<?xml version="1.0" standalone="no"?>
<!DOCTYPE svg PUBLIC "-//W3C//DTD SVG 1.1//EN" "http://www.w3.org/Graphics/SVG/1.1/DTD/svg11.dtd" >
<svg xmlns="http://www.w3.org/2000/svg" xmlns:xlink="http://www.w3.org/1999/xlink" version="1.1">
<metadata>
Created by FontForge 20201107 at Tue Apr  3 03:19:59 2012
 By 
Copyright (c) 2012 by Maung Maung San, YoeYar Studios. All rights reserved.
</metadata>
<defs>
<font id="YoeYar-One" horiz-adv-x="1152" >
  <font-face 
    font-family="YoeYar-One"
    font-weight="400"
    font-stretch="normal"
    units-per-em="2048"
    panose-1="2 2 6 0 0 0 0 2 0 3"
    ascent="1638"
    descent="-410"
    x-height="882"
    cap-height="1324"
    bbox="-2085 -1410 4890 2090"
    underline-thickness="100"
    underline-position="-273"
    unicode-range="U+0020-25CC"
  />
<missing-glyph horiz-adv-x="1628" 
d="M284 0v1280h1024v-1280h-1024zM316 32h960v1216h-960v-1216z" />
    <glyph glyph-name="u1039_u1000" unicode="&#x1039;&#x1000;" horiz-adv-x="37" 
d="M-967 -539q0 -63 -13 -131.5t-41 -132.5t-72.5 -119.5t-107.5 -94.5q-9 -5 -23 -9t-25 -4t-20 3q-43 6 -54 47q-6 16 -6 31q0 38 38 62q7 7 15.5 12.5t16.5 10.5q5 3 10.5 6.5t10.5 7.5q30 19 52 54t36.5 77t21 87.5t6.5 85.5q0 70 -27 131t-72.5 107t-105.5 72.5
t-127 26.5q-68 0 -129 -26.5t-106.5 -72.5t-72 -107t-26.5 -131q-1 -38 6.5 -83t22.5 -87.5t36 -78t47 -54.5q4 -2 7.5 -4.5t6.5 -4.5q8 -6 16 -11t17 -9q25 -26 35 -51q5 -15 5 -27q0 -16 -7 -31q-10 -27 -47 -38q-12 -4 -27 -4q-10 0 -21 3.5t-20 8.5q-68 36 -113 90
t-72 118t-38 132t-11 131q0 99 37.5 187t103.5 154t156 104.5t194 38.5q145 0 261 -72q55 -35 93.5 -71.5t55.5 -70.5q2 2 8.5 9t17.5 21q28 34 69 69q76 64 170 93q72 21 144 21q11 0 22 -0.5t22 -1.5q93 -9 180.5 -52.5t151.5 -121.5q30 -37 54 -80.5t38 -88.5
q11 -35 16.5 -70.5t5.5 -70.5q0 -11 -0.5 -21t-1.5 -20q-8 -91 -52.5 -178t-119.5 -152q-50 -42 -108.5 -70t-123.5 -37q-19 -2 -37.5 -3.5t-37.5 -1.5q-42 0 -86.5 8t-82.5 22q-17 4 -28.5 15t-15.5 25q-5 15 -5 27q0 10 3 21q5 12 14.5 23.5t20.5 21.5q9 7 21 11.5t24 4.5
q14 0 26 -4q11 -5 20.5 -9.5t15.5 -8.5q3 -2 6.5 -4t5.5 -2q28 -6 58 -6q38 0 80 11q69 18 126 66q54 45 85 105t37 126q1 7 1 14v15q0 49 -14 103q-9 31 -25 61t-39 56q-45 54 -105 83.5t-123 35.5q-8 1 -15 1.5t-15 0.5q-48 0 -93 -16q-30 -10 -59.5 -26.5t-55.5 -37.5
q-57 -51 -87.5 -115t-35.5 -135z" />
    <glyph glyph-name="u1039_u1001" unicode="&#x1039;&#x1001;" horiz-adv-x="37" 
d="M-424 -848q53 23 96 104q43 80 43 191q0 72 -27 134.5t-73 108.5t-106 72.5t-126 26.5q-36 0 -71 -9t-67.5 -24.5t-61.5 -36.5t-53 -46q-2 -4 -3.5 -10.5t-3.5 -11.5q-2 -8 -4 -17t-7 -17q-23 -33 -62 -34h-5q-31 0 -56 17q-24 17 -33 41q-4 12 -4 24q0 14 4 26
q33 54 78.5 97.5t100.5 76.5q54 32 116.5 49t131.5 17q102 0 191.5 -38.5t155.5 -104.5t104 -154t38 -187q0 -98 -34 -185.5t-95.5 -153.5t-146.5 -104.5t-188 -38.5q-44 0 -92 6t-94.5 19t-88.5 33.5t-74 48.5t-51.5 65t-20.5 82q0 52 25 96.5t65.5 76.5t91.5 50t104 18
q64 0 119.5 -24.5t96.5 -65.5t64 -95.5t23 -114.5v-8zM-582 -892l1 1v-1h-1zM-581 -891q2 5 5.5 20.5t3.5 30.5q0 33 -12.5 62t-34 50t-49.5 33.5t-59 12.5q-20 0 -41.5 -7t-39.5 -19t-30 -28t-14 -34v-8q0 -37 29 -58q36 -27 86.5 -39.5t102.5 -14.5q9 -1 16.5 -1h14.5h22z
" />
    <glyph glyph-name="u1039_u1002" unicode="&#x1039;&#x1002;" horiz-adv-x="37" 
d="M-443 -877q5 2 11 5.5t11 7.5q8 5 15 9.5t14 6.5q24 19 44 54.5t34 77.5t22 87t8 83q0 72 -26.5 134t-71.5 107.5t-105.5 71.5t-128.5 26t-128.5 -26t-106.5 -72t-72.5 -107.5t-26.5 -133.5q0 -40 7 -85.5t21.5 -87.5t37 -77t52.5 -54q5 -4 10.5 -7.5t11.5 -7.5
q15 -9 30 -21q40 -23 40 -62q0 -16 -7 -33q-4 -17 -18 -28.5t-34 -16.5q-14 -3 -25 -3q-23 0 -47 11q-68 40 -113.5 94t-72.5 116t-38.5 129t-11.5 133q-1 66 16.5 128t49.5 116.5t77 99t99.5 76t117.5 49t131 17.5q103 0 192.5 -38.5t156 -104.5t105 -154.5t38.5 -188.5
q0 -65 -11 -133t-37.5 -131t-72 -117t-114.5 -91q-19 -10 -41 -10q-15 0 -28 4q-33 12 -47 39q-8 14 -8 30q0 11 5 26q11 29 35 52z" />
    <glyph glyph-name="u1039_u1003" unicode="&#x1039;&#x1003;" horiz-adv-x="35" 
d="M-1022 -814q-10 -21 -61 -72q-24 -24 -51.5 -46t-55.5 -39q-57 -34 -121 -51t-124 -17q-73 1 -142 25t-128.5 64t-107 94t-77.5 117q-37 79 -37 164v11.5t1 11.5q5 63 33.5 118.5t64.5 99t72.5 73t58.5 40.5l3 -1q-13 9 -30 11q-5 1 -8.5 1.5t-7.5 0.5q-32 0 -63 -17
q-12 -6 -19.5 -11.5t-13.5 -10.5q-4 -4 -9 -7.5t-10 -7.5q-25 -19 -52 -19q-30 0 -61 25q-25 17 -25 47v5.5t1 6.5q4 31 30 52q63 56 139 69q26 4 49.5 6t46.5 2q11 0 20.5 -0.5t19.5 -1.5q26 -3 49.5 -13t43 -24.5t33.5 -32.5t22 -37q10 -23 10 -46q0 -18 -6 -37
q-15 -43 -68 -66q-21 -9 -49 -30.5t-52.5 -51.5t-42.5 -67t-20 -78q-1 -7 -1 -14v-14q0 -52 21 -100q18 -45 50 -83t73 -65.5t89.5 -43.5t99.5 -16q68 0 129 26.5t106.5 72t72.5 107t27 131.5q0 37 -13 81.5t-34.5 86.5t-48.5 77t-55 55q-5 2 -13.5 7t-13.5 8l-16 10t-16 8
q-29 21 -35 47q-3 12 -3 26q0 5 0.5 11t1.5 15q14 38 61 47q7 1 12.5 1h10.5q12 0 23.5 -3t19.5 -8q51 -32 99.5 -76.5t86 -103.5t61 -132.5t24.5 -162.5q6 -62 30.5 -123t69.5 -109q48 -49 109 -74t125 -25q63 0 125 25t113 76q48 48 72.5 110.5t24.5 129.5q0 66 -24.5 130
t-73.5 112q-56 55 -123 77q-60 20 -117 20q-12 0 -17 -1q-2 0 -5.5 -2t-7.5 -4q-8 -5 -19 -10t-28 -9h-9q-14 0 -29 6t-26 14q-24 21 -30 47q-1 5 -1.5 9.5t-0.5 9.5q0 17 9 34q11 24 40 35q63 15 126 15q61 0 126 -15q125 -31 225 -125q70 -72 104 -161t34 -182
q0 -94 -34 -181.5t-103 -159.5q-73 -73 -164 -108t-187 -35q-97 0 -187 35t-162 108q-27 27 -46 57q-3 5 -7 11t-7 11q0 -2 1 -3z" />
    <glyph glyph-name="u1039_u1005" unicode="&#x1039;&#x1005;" horiz-adv-x="37" 
d="M-121 -548q0 -99 -38 -186.5t-103.5 -153.5t-154.5 -104t-191 -38t-191 38t-154.5 104t-103.5 153.5t-38 186.5q0 98 38 185.5t103.5 153.5t154.5 104.5t191 38.5t191 -38.5t154.5 -104.5t103.5 -153.5t38 -185.5zM-694 -555q0 59 -38 97t-92 38q-49 0 -84 -38
q-36 -38 -36 -97q0 -55 36 -92q35 -38 84 -38q54 0 92 38t38 92zM-847 -824q0 1 35 1l3 -3h-15q-7 0 -12.5 0.5t-10.5 1.5zM-815 -273q-41 -11 -39 -13q6 1 14 1h16q60 0 110.5 -21.5t88 -58.5t58.5 -86t21 -104q0 -54 -19.5 -101.5t-55 -84.5t-83.5 -59.5t-105 -25.5
q64 -64 201 -64q69 0 130 26.5t107 72.5t73 108.5t27 134.5t-27 134.5t-73 108.5t-107 72t-130 26q-77 0 -140 -30q-62 -31 -67 -36z" />
    <glyph glyph-name="u1039_u1006" unicode="&#x1039;&#x1006;" horiz-adv-x="37" 
d="M-1395 -886q8 14 8 51q0 68 -46 114t-109 46q-21 0 -42 -7t-39 -19.5t-30 -29.5t-14 -36q-1 -4 -1 -12q0 -31 27 -50q37 -27 88 -40.5t102 -15.5q8 -1 16 -1h15h25zM-277 -548q0 72 -27 134.5t-72.5 108.5t-106.5 72t-130 26q-68 0 -129 -26t-107 -72t-72.5 -108.5
t-26.5 -134.5t26.5 -134t72.5 -107.5t107 -72t129 -26.5q69 0 130 26.5t106.5 72t72.5 107.5t27 134zM-1023 -283q36 72 151 145q114 72 259 72q102 0 190.5 -38.5t154 -104.5t103.5 -153.5t38 -185.5q0 -99 -38 -186.5t-103.5 -153.5t-154 -104t-190.5 -38q-146 0 -258 72
q-54 35 -91.5 71.5t-55.5 68.5q-18 -33 -53 -69t-87 -71q-107 -72 -252 -72q-65 0 -138 14.5t-135 46t-102.5 79.5t-40.5 116q0 51 24 93.5t63.5 74t91 49t105.5 17.5q63 0 118 -23.5t95.5 -64t63.5 -94t23 -113.5v-26q1 1 3 9q-2 -2 -0.5 2t2.5 7q49 21 94 103t45 192
q0 72 -27 134.5t-73 108.5t-107 72t-130 26q-72 0 -139 -32.5t-113 -82.5q-1 -2 -2.5 -6.5t-2.5 -6.5q-2 -9 -6.5 -20.5t-12.5 -23.5q-17 -27 -56 -30h-8q-28 0 -50 13q-26 15 -36 40q-4 9 -4 20q0 16 10 29q31 55 74 99.5t99 76.5q113 65 247 65q145 0 261 -72
q115 -73 151 -145z" />
    <glyph glyph-name="u1039_u1007" unicode="&#x1039;&#x1007;" horiz-adv-x="37" 
d="M-278 -596h3l-3 3v-3zM-152 -784q24 -45 58 -67q10 -8 24 -15q8 -5 17 -10.5t17 -11.5q36 -26 36 -62q0 -14 -6 -30q-15 -35 -54 -43q-12 -3 -23 -3q-23 0 -41 9q-20 11 -39.5 25t-33.5 27l-6 6l-6 6q-8 8 -13 12.5t-7 6.5q-6 -5 -20.5 -15t-31.5 -19
q-22 -11 -47.5 -17.5t-50.5 -6.5q-91 0 -152 63q-61 61 -61 148q0 85 61 146t152 61q43 0 79 -14q15 -7 22 -8v-10.5t1 -6.5q0 1 0.5 2.5t0.5 2.5q1 8 1.5 16t0.5 16q0 72 -27 134.5t-73 108.5t-107 72.5t-130 26.5t-130 -26.5t-107 -72.5t-73 -108.5t-27 -134.5
q0 -41 7 -86.5t22 -88t37.5 -78t51.5 -54.5q10 -8 20.5 -14t22.5 -12l12 -6q35 -27 35 -63q0 -14 -5 -32q-8 -37 -51 -45q-11 -3 -21 -3q-26 0 -45 13q-64 38 -109 92.5t-73.5 117.5t-42 130t-13.5 129q0 98 38.5 185.5t104.5 153.5t155 104.5t191 38.5q101 0 190 -38.5
t155 -104.5t104 -153.5t38 -185.5q0 -54 -5.5 -107t-22.5 -101zM-315 -781q0 33 -19 53.5t-45 20.5q-29 0 -48.5 -21t-19.5 -53q0 -31 19.5 -52t48.5 -21q26 0 45 20.5t19 52.5z" />
    <glyph glyph-name="u1039_u1008" unicode="&#x1039;&#x1008;" horiz-adv-x="300" 
d="M-253 -850q18 -22 64 -22h187v1748q0 6 -5 23q-3 11 -6 24.5t-3 27.5q0 58 30 75q31 16 63 16q38 0 60 -25.5t22 -58.5v-1882q0 -18 -5.5 -35.5t-16 -31t-26 -22t-34.5 -8.5h-307q-26 0 -50.5 6.5t-45.5 17.5q-20 11 -36 22t-24 19q-18 -10 -46 -22t-56 -21
q-32 -11 -66.5 -16.5t-69.5 -5.5q-102 0 -190.5 38.5t-154 104t-103.5 153t-38 186.5q0 98 38 185.5t103.5 153.5t154 104.5t190.5 38.5t191 -38.5t155 -104.5t103.5 -153.5t37.5 -185.5q0 -93 -34 -176q-34 -82 -82 -135zM-712 -546q0 56 -38 94q-38 36 -87 36
q-26 0 -48.5 -9.5t-39 -27t-26 -41.5t-9.5 -52q0 -58 36 -95q35 -38 87 -38q49 0 87 38t38 95zM-828 -814l2 -2h-11h-13t-11 1q0 1 33 1zM-835 -264q-40 -10 -40 -13h4q6 1 16 1h18q58 0 108.5 -21.5t87.5 -58.5t58 -86t21 -104q0 -53 -20 -101t-55.5 -85t-84 -59.5
t-104.5 -24.5q15 -15 72 -39q60 -26 130 -26q69 0 130 26.5t106.5 73t72 108.5t26.5 134t-26.5 135t-72 109.5t-106.5 73t-130 26.5q-78 0 -141 -31q-65 -32 -70 -38z" />
    <glyph glyph-name="u1039_u100C" unicode="&#x1039;&#x100c;" horiz-adv-x="37" 
d="M-1729 -314q0 12 9 35.5t27.5 49.5t46.5 49t66 35q40 12 76 12h18q63 -8 111 -35t68 -60q8 -11 14 -25.5t11 -30.5q8 -29 8 -59v-13q-1 -20 -6 -42t-13 -45q-16 -45 -128 -204q22 88 32.5 144t10.5 79v16q-3 54 -13 81q-6 11 -18 22t-30 20q-37 19 -65 19q-21 0 -35 -7
t-22.5 -15t-12 -15.5t-3.5 -8.5v-448q0 -8 3 -19t8 -23t12 -23t15 -19q20 -20 49 -27.5t63 -7.5h402q-15 17 -29.5 43.5t-26 61t-18.5 76.5t-7 90v10q0 54 11 103.5t31 92.5q31 65 81 116.5t110 87.5t126.5 55.5t130.5 19.5q102 0 190.5 -38.5t154.5 -104.5t103.5 -154
t37.5 -188q0 -65 -16.5 -126t-48.5 -115q-32 -53 -76.5 -98t-95.5 -75q-7 -4 -18.5 -7.5t-19.5 -3.5q-12 0 -24 5q-13 4 -24 13.5t-19 20.5q-6 9 -10 22t-4 25q0 6 1 9q2 15 8.5 28t19.5 22q11 8 23 12.5t21 7.5q5 2 8.5 2.5t5.5 2.5q25 23 46 51.5t37 61.5t25 68.5t9 73.5
q0 73 -27 135.5t-72.5 108.5t-106.5 72t-128 26q-69 0 -130.5 -26t-107.5 -72t-72.5 -108.5t-26.5 -135.5q0 -78 32 -143t86 -113q2 -3 10 -4q7 -2 16.5 -5t20.5 -11q25 -19 28 -51v-10q0 -22 -9 -41q-29 -44 -68 -44h-646q-51 0 -94 19t-76 49q-33 33 -54.5 71t-21.5 81
v496z" />
    <glyph glyph-name="u1039_u100E" unicode="&#x1039;&#x100e;" horiz-adv-x="35" 
d="M-117 -546q0 -55 -12 -105t-33.5 -95t-51 -83.5t-64.5 -70.5q-36 -31 -77 -55.5t-84.5 -42t-86.5 -26.5t-83 -9q-73 2 -142 25.5t-128.5 63.5t-107 94t-77.5 117q-37 79 -37 165v11.5t1 11.5q5 63 33 118t64 98.5t72.5 73t59.5 41.5q-11 8 -23 10q-5 1 -10 1h-10
q-33 0 -64 -17q-11 -5 -18 -10t-13 -10q-5 -4 -9.5 -7.5t-10.5 -7.5q-11 -9 -24.5 -15t-28.5 -6q-28 0 -62 23q-23 23 -23 49v6t1 7q2 14 10 28t19 24q62 54 140 68q26 4 51.5 6t49.5 2h17t18 -1q54 -6 93.5 -37t55.5 -73q8 -24 8 -44q0 -18 -6 -37q-15 -42 -68 -66
q-21 -8 -48.5 -29.5t-52.5 -52t-42.5 -67.5t-19.5 -77q-1 -7 -1 -14v-14q0 -52 21 -100q18 -45 50 -83t73 -65.5t89.5 -43.5t99.5 -16q68 0 129 26t106.5 71t72.5 106.5t27 133.5q0 39 -13.5 83t-35 85t-48.5 76t-55 56q-5 3 -11.5 6.5t-12.5 7.5q-9 5 -18 11t-17 9
q-38 26 -38 68q0 15 4 27q7 19 22 32t38 17q5 1 9.5 1h9.5q14 0 26 -4t21 -10q50 -30 98.5 -73t87.5 -100.5t63.5 -130t26.5 -161.5z" />
    <glyph glyph-name="u1039_u100F" unicode="&#x1039;&#x100f;" horiz-adv-x="41" 
d="M-1628 -125q51 0 106.5 -15t106.5 -40t93 -59t66 -71l18 9t27 11.5t33 9.5t36 4h22q72 0 110 -35q2 3 3.5 7t3.5 6q0 1 3 4q34 38 75.5 69t87 52.5t94 33.5t95.5 12q95 0 179.5 -37.5t148 -101t100.5 -147.5t37 -177q0 -96 -39.5 -178t-104 -142t-146 -93.5t-164.5 -33.5
h-32q-16 0 -33.5 2.5t-32 10t-24 21t-9.5 35.5q0 32 23 55t61 23q10 0 18 -2.5t14 -4.5l4 -2q2 -1 6 -1q65 0 122 26.5t100 71t67.5 103.5t24.5 125q0 65 -26.5 121.5t-70.5 98t-102 65.5t-121 24q-69 0 -130.5 -28.5t-106.5 -79.5q-2 -2 -6 -8q-11 -13 -21.5 -28t-18.5 -37
t-13.5 -53.5t-5.5 -77.5q0 -29 2 -61t5 -67q0 -2 0.5 -5t0.5 -5q1 -5 1 -12t1 -12q3 -34 5 -68.5t2 -67.5q0 -32 -14 -60.5t-38 -50.5t-57.5 -34.5t-72.5 -12.5q-8 0 -15.5 1t-11.5 2h-9q-42 0 -78 13t-61.5 34t-40 48.5t-14.5 56.5q0 45 3 91t7 86q1 9 1.5 19.5t1.5 18.5
q1 5 1 10t1 10q2 25 4 47.5t2 38.5q0 79 -29 135.5t-74 92.5t-98.5 53t-102.5 17q-62 0 -118.5 -25t-99 -68.5t-67.5 -102t-25 -125.5q0 -59 23 -115.5t65 -101.5t100.5 -73t129.5 -30q17 12 39.5 19.5t45.5 9.5q53 1 69 -56q13 -57 -33 -85q-9 -6 -23.5 -10t-30.5 -6.5
t-33 -4t-31 -1.5q-97 3 -182 40.5t-148.5 98.5t-100.5 140.5t-37 166.5q0 90 36 173.5t98.5 148t145.5 103t177 38.5zM-1175 -445q2 -28 3 -58t1 -60q0 -72 -7 -152.5t-21 -152.5q1 -6 7 -13t14 -12.5t17 -9t16 -3.5h11q8 0 18 4t18.5 10.5t14.5 13.5t7 13q-5 28 -8.5 61
t-6.5 66.5t-4.5 67.5t-1.5 65q0 42 2 83t5 81q-2 18 -17 29.5t-36 11.5q-14 0 -23 -10.5t-9 -34.5z" />
    <glyph glyph-name="u1039_u1010" unicode="&#x1039;&#x1010;" horiz-adv-x="37" 
d="M-971 -511q1 -10 1 -19.5v-19.5q0 -48 -7.5 -92.5t-21.5 -83.5q-27 -71 -73 -128t-105.5 -97t-130 -61t-145.5 -21q-105 0 -195 38t-156 104t-103.5 155t-37.5 190q0 66 17 127.5t48.5 115.5t76 99t99 77t118 49.5t133.5 17.5q141 0 257 -71q57 -35 94.5 -71.5
t55.5 -71.5q27 54 125 123q84 58 179 77q55 11 105 11q21 0 43 -1.5t42 -5.5q45 -9 90 -26.5t86 -43t77.5 -59.5t64.5 -74q57 -83 76 -173q10 -50 10 -102q0 -20 -1.5 -41t-5.5 -41q-8 -42 -27 -85t-45.5 -84t-59.5 -77.5t-69 -64.5q-110 -77 -236 -87q-10 -1 -20 -1h-20
q-107 0 -203 43q-29 14 -34 41q-3 7 -3 16q0 16 8 30q10 23 39 43q17 11 40 11q13 0 28 -5q11 -4 19 -9t14 -10q3 -2 5.5 -3.5t4.5 -2.5q37 -9 76 -9q28 0 60 6q68 10 128 53q58 42 93.5 98.5t47.5 122.5q6 30 6 63q0 37 -7 69q-14 65 -55 123q-39 57 -95.5 91t-118.5 46
q-14 2 -29.5 3.5t-29.5 1.5q-17 0 -34.5 -1.5t-34.5 -4.5q-32 -7 -63 -21t-60 -34q-58 -42 -95 -106.5t-46 -136.5zM-1121 -546q0 70 -27 131t-72.5 107t-106 72.5t-126.5 26.5q-68 0 -129 -26.5t-106.5 -72.5t-72.5 -107t-27 -131q0 -71 27 -133t72.5 -108t106.5 -72.5
t129 -26.5q66 0 126.5 26.5t106 72.5t72.5 108t27 133z" />
    <glyph glyph-name="u1039_u1011" unicode="&#x1039;&#x1011;" horiz-adv-x="37" 
d="M-1054 -818q-17 -35 -56.5 -72t-91.5 -72q-113 -73 -261 -73q-103 0 -192.5 38.5t-155.5 105.5t-103.5 155.5t-37.5 187.5q0 98 37.5 186.5t103.5 155.5t155.5 106t192.5 38q148 0 261 -72q54 -35 92.5 -73t55.5 -73q18 36 56.5 73.5t95.5 72.5q115 72 260 72
q102 0 191 -39t154.5 -105.5t103.5 -154.5t38 -187t-38 -187.5t-103.5 -155t-154.5 -105.5t-191 -39q-144 0 -260 73q-56 35 -95.5 72t-56.5 72zM-1129 -548q0 71 -26.5 132.5t-72.5 107t-106.5 71.5t-128.5 26q-67 0 -127.5 -26t-106 -71.5t-72.5 -107t-27 -132.5
q0 -72 27 -134t72.5 -107.5t106 -72t127.5 -26.5q68 0 128.5 26.5t106.5 72t72.5 107.5t26.5 134zM-307 -548q0 71 -27 132.5t-72.5 107t-106.5 71.5t-129 26t-128.5 -26t-105.5 -71.5t-71.5 -107t-26.5 -132.5q0 -72 26.5 -134t71.5 -108t105.5 -72t128.5 -26t129 26.5
t106.5 72t72.5 107.5t27 134z" />
    <glyph glyph-name="u1039_u1012" unicode="&#x1039;&#x1012;" horiz-adv-x="37" 
d="M-680 -481q7 -2 16.5 -4t22.5 -3q19 -3 40 -3h13q26 1 49 7t37 17q11 8 21 38t10 47q0 66 -41 107q-43 41 -101 41q-17 0 -42 -3t-48.5 -11.5t-41 -23.5t-18.5 -38q-1 -5 -1 -9v-8q-1 -16 -3 -26.5t-13 -23.5q-22 -26 -60 -31q-4 -1 -9 -1h-8q-28 0 -45 14q-15 15 -24 28
q-10 12 -10 33q0 5 1 13.5t2 14.5q12 67 48 109t82.5 65.5t97 32t92.5 7.5q62 0 116 -23t94 -63t63 -92.5t23 -111.5q0 -110 -54 -167q16 -5 55 -56q40 -52 45 -137v-10q0 -75 -28 -128q-23 -40 -59 -67.5t-78.5 -45.5t-88 -26.5t-86.5 -10.5q-6 -1 -15 -1h-17q-9 0 -19 0.5
t-21 1.5h-6q-35 2 -74.5 10.5t-77 25.5t-69 44t-50.5 66q-12 30 -12 54q0 33 25 58q21 15 58 20h7q36 0 64 -34q11 -22 11 -32q0 -2 8 -16q6 -14 32.5 -24t57 -17t58.5 -10.5t38 -3.5q26 0 52 1.5t48.5 7.5t41 18t29.5 34q16 26 16 75v10q0 28 -20 54q-21 25 -41 36
q-20 10 -46.5 16t-52.5 7h-21h-19t-17 -1q-25 -2 -35 -6q-9 -6 -22 -10t-29 -4q-41 0 -68 27t-27 65q0 18 7 34t20 28t30 19.5t38 7.5q29 0 49 -12z" />
    <glyph glyph-name="u1039_u1013" unicode="&#x1039;&#x1013;" horiz-adv-x="37" 
d="M-130 -555q0 -97 -37.5 -183.5t-102 -151t-152.5 -102.5t-188 -38q-99 0 -186.5 38t-153 102.5t-103 151t-37.5 183.5q0 96 37.5 182t103 151.5t153 103.5t186.5 38q100 0 188 -38t152.5 -103.5t102 -151.5t37.5 -182zM-888 -748q3 17 87 53q84 35 196 35q107 0 190 -33
q80 -33 86 -49q52 57 52 187q0 71 -26.5 132.5t-72 107t-106 71.5t-128.5 26t-128.5 -26t-106 -71.5t-72.5 -107t-27 -132.5t25 -128q24 -58 31 -65zM-471 -847q0 20 -37 36.5t-97 16.5q-63 0 -98.5 -16.5t-35.5 -36.5q0 -7 9.5 -15.5t27 -15.5t42.5 -12t55 -5t54.5 5
t42.5 12t27.5 15.5t9.5 15.5z" />
    <glyph glyph-name="u1039_u1014" unicode="&#x1039;&#x1014;" horiz-adv-x="35" 
d="M-297 -938q14 -44 14 -73q0 -17 -4 -28q-13 -35 -75 -88q-2 2 -3 5t-3 5q-17 31 -28.5 51.5t-17.5 29.5q-14 19 -15 21q-29 -8 -81.5 -14t-118.5 -6q-175 0 -289 54t-130 151q-1 5 -1 14q0 40 23 84q26 48 74 84t117 51q28 6 60 6q39 0 85 -11q49 -12 97 -28t93 -40
q42 -25 80 -61q9 -9 15.5 -16t11.5 -12v13q0 25 -6 51q-11 53 -57.5 87.5t-133.5 34.5h-15q-68 0 -127 17q-94 30 -145.5 93.5t-51.5 148.5q0 117 75 191q74 73 231 77h13q74 0 128 -22q44 -20 76 -48t52.5 -61t30.5 -68.5t10 -68.5q0 -6 -1.5 -18t-3.5 -29
q-3 -17 -21 -29.5t-48 -19.5q-15 -5 -30 -5q-8 0 -15.5 2t-13.5 4q-24 7 -42 23.5t-24 39.5q-1 5 -1.5 9t-0.5 9q0 13 4 25q2 6 2 10q0 9 -3 18q-6 16 -16.5 31t-25 27t-32 19t-37.5 7q-56 0 -97 -37q-42 -38 -42 -86q0 -21 14.5 -41.5t38.5 -37t54.5 -27t62.5 -11.5
q8 1 19.5 1h19.5q76 0 136 -23q69 -28 114 -81.5t65 -114.5q13 -45 13 -92q0 -10 -0.5 -19.5t-1.5 -19.5q-15 -102 -71 -158zM-505 -878q-4 5 -13 14t-23 21q-14 11 -30 23t-29 20q-29 17 -56.5 29.5t-44.5 18.5q-29 10 -58 10h-16q-35 -3 -62 -15.5t-41 -30.5q-6 -8 -6 -18
q0 -9 4 -16q8 -23 45 -39.5t94 -22.5q42 -6 89 -6h19.5t20.5 1q35 2 61.5 4.5t45.5 6.5z" />
    <glyph glyph-name="u1039_u1015" unicode="&#x1039;&#x1015;" horiz-adv-x="37" 
d="M-449 -219q-24 24 -35 53q-5 15 -5 26q0 16 9 33q12 24 46 36q13 4 29 4q20 0 40 -9q69 -38 114.5 -92t72 -117t37.5 -131t11 -132q0 -101 -38.5 -190t-105 -155t-156 -104t-192.5 -38q-102 0 -192 38.5t-156.5 104.5t-105 154.5t-37.5 189.5q0 64 11.5 131t38.5 129.5
t72.5 117t114.5 94.5q20 10 46 10h11t13 -1q45 -11 53 -46q3 -8 5 -16.5t2 -16.5q0 -39 -39 -62q-7 -6 -15.5 -12t-16.5 -11q-6 -4 -11 -7t-10 -7q-31 -18 -53 -53t-36.5 -77.5t-21.5 -88t-7 -84.5q0 -72 26.5 -134t72 -107.5t106.5 -72t129 -26.5t128.5 26t105.5 72
t71.5 108t26.5 134q0 38 -7.5 83t-21.5 87.5t-34 77.5t-45 53q-5 2 -13.5 7t-12.5 7q-6 4 -13 7.5t-12 6.5z" />
    <glyph glyph-name="u1039_u1016" unicode="&#x1039;&#x1016;" horiz-adv-x="37" 
d="M-289 -621q8 8 11 15t4 10q-3 0 -7 -3q-21 -13 -50 -23q-25 -5 -42 -5q-24 0 -51 8q-30 9 -59.5 29t-54.5 48.5t-45 64t-30 75.5q-13 42 -13 89v8t1 8q2 37 11.5 72.5t27.5 64.5t44 49.5t62 29.5q23 5 41 5q42 0 81 -16q60 -26 101 -81q33 -39 57 -84.5t39.5 -94.5
t23 -98.5t7.5 -97.5q1 -101 -37.5 -189.5t-105 -154.5t-156.5 -104.5t-192 -38.5q-103 0 -192.5 38t-156 104t-105 155t-38.5 190q0 63 10.5 131t37 132t72 118.5t115.5 90.5q18 9 39 9q15 0 28 -4q36 -12 48 -36q9 -17 9 -33q0 -11 -5 -26q-11 -29 -35 -53q-12 -6 -26 -14
q-4 -2 -8 -4.5t-8 -4.5q-4 -3 -9 -5q-24 -19 -44.5 -54.5t-35.5 -77.5t-23 -86.5t-8 -82.5q0 -72 27 -134t72.5 -107.5t106.5 -72t129 -26.5q69 0 129 26.5t105 71.5q45 46 71 106q27 61 27 63zM-347 -334q-17 54 -48 87q-20 20 -33 20q-3 0 -6 -1q-22 -4 -33 -41
q-6 -20 -6 -43q0 -25 8 -57q8 -26 20.5 -48.5t27.5 -37.5q18 -20 34 -20q2 0 8 2q20 7 31 42q5 20 5 41q0 24 -8 56z" />
    <glyph glyph-name="u1039_u1017" unicode="&#x1039;&#x1017;" horiz-adv-x="37" 
d="M-349 -288v2v-2zM-883 -283q-21 -18 -45 -103q-24 -86 -24 -160q0 -71 27 -133t72.5 -108t106 -72.5t128.5 -26.5t128.5 26.5t106 72.5t72 108t26.5 133q0 26 -3.5 56.5t-10 61.5t-16.5 61t-22 54q-5 9 -8.5 15.5t-3.5 9.5q-15 -47 -89 -105q-77 -59 -175 -59
q-105 0 -181 59q-76 58 -89 110zM-479 -175q-2 5 -3 12.5t-2 15.5q-1 3 -1 9q0 17 8 31q14 27 47 38q13 4 29 4q20 0 40 -9q69 -37 114.5 -91.5t72.5 -117.5t37.5 -131t10.5 -132q0 -101 -38 -190t-104.5 -155t-156.5 -104t-193 -38q-102 0 -191.5 38t-156 104t-105 155
t-38.5 190q1 66 12 133t38 129t72.5 116t114.5 94q20 10 46 10h11t13 -1q43 -11 54 -47q4 -12 4 -28q0 -23 -10 -41q5 -52 44 -88q40 -39 97 -39q56 0 94 37q39 39 40 96z" />
    <glyph glyph-name="u1039_u1018" unicode="&#x1039;&#x1018;" horiz-adv-x="37" 
d="M-1050 -270q24 47 122 117q85 58 181 77q55 11 105 11q21 0 43 -1.5t42 -5.5q44 -9 88.5 -26.5t86 -43t77.5 -58t63 -71.5q57 -83 78 -177q10 -50 10 -102q0 -20 -1.5 -41t-5.5 -41q-8 -42 -26.5 -85.5t-44.5 -84t-59 -77t-70 -64.5q-110 -76 -237 -87q-11 -1 -21 -1h-20
q-106 0 -203 42q-29 14 -34 44q-1 3 -1 7v7q0 19 7 34q10 22 39 39q17 10 38 10q15 0 30 -5q9 -2 18.5 -7.5t15.5 -10.5q2 -2 5.5 -4t5.5 -3q34 -9 73 -9q28 0 60 6q68 12 130 54q57 39 93.5 97.5t48.5 121.5q2 14 3 28.5t1 28.5q0 38 -8 76q-7 32 -21 63.5t-34 60.5
q-39 57 -96 91t-119 46q-14 2 -28.5 3.5t-28.5 1.5q-37 0 -69 -7q-63 -13 -122 -54t-93.5 -107t-45.5 -136q1 -3 3 -10.5t2 -18.5q0 -98 -38 -185.5t-104.5 -153.5t-156.5 -104.5t-193 -38.5q-134 0 -244 64q-53 32 -98 75t-78 93q-9 14 -9 28q0 13 7 26q6 12 15 21.5
t19 15.5t23 10t26 4h10q37 -5 62 -33q5 -8 7 -15t4 -12q3 -12 7 -14q48 -55 112.5 -87.5t136.5 -32.5q68 0 129 26.5t106.5 72t72.5 107.5t27 133q0 72 -27 134.5t-72.5 108.5t-106.5 72.5t-129 26.5q-72 0 -137.5 -31t-111.5 -85q-3 -3 -4 -8t-3 -11q-2 -7 -6 -17t-9 -19
q-21 -33 -60 -35h-4q-16 0 -30.5 5t-25.5 13q-23 15 -34 40q-5 13 -5 23q0 15 7 28q32 54 75.5 97.5t99.5 77.5q110 67 248 67q146 0 261 -71q112 -71 150 -144z" />
    <glyph glyph-name="u1039_u1019" unicode="&#x1039;&#x1019;" horiz-adv-x="37" 
d="M-328 -731q52 55 52 187q0 40 -7.5 85.5t-22.5 87.5t-37 77t-50 54q-4 3 -11 7t-12 6q-8 4 -18.5 10.5t-18.5 12.5q-34 25 -34 61q0 18 7 35q14 35 52 44q13 3 24 3q10 0 22 -3.5t20 -7.5q67 -39 112.5 -93.5t73.5 -117t40 -130t12 -131.5q0 -101 -38 -189.5
t-103.5 -154.5t-154.5 -104t-191 -38t-191.5 38t-155.5 104t-104 154.5t-38 189.5q0 65 11 133t37.5 131t71 117t112.5 91q19 10 41 10q15 0 28 -4q33 -12 47 -39q7 -14 7 -29q0 -12 -5 -27q-10 -29 -33 -51q-1 -1 -8.5 -6t-12.5 -7q-17 -12 -31 -17q-26 -19 -46 -54
t-34 -77t-21 -87t-7 -84q4 -63 27 -126q22 -61 27 -67q5 17 87 53q84 35 196 35q108 0 191 -33t87 -49zM-461 -835q0 24 -40.5 42t-104.5 18q-63 0 -103.5 -18t-40.5 -42q0 -10 10.5 -20t30 -17.5t45.5 -12.5t58 -5t58.5 5t46 12.5t30 17.5t10.5 20z" />
    <glyph glyph-name="u1039_u101A" unicode="&#x1039;&#x101a;" horiz-adv-x="37" 
d="M-975 -551q4 -70 34.5 -135t87.5 -115q26 -21 55.5 -37.5t60.5 -26.5q48 -16 97 -16h13.5t13.5 1q61 5 121.5 35.5t105.5 81.5q21 26 37.5 57t26.5 63q14 54 14 103v15t-1 15q-6 66 -37 125.5t-85 104.5q-29 24 -61 41t-65 26q-39 10 -80 10q-30 0 -58 -6q-4 0 -14 -7
q-6 -4 -14.5 -8.5t-19.5 -8.5q-12 -4 -27 -4q-23 0 -41 13q-13 10 -23 22t-15 26q-3 12 -3 22q0 14 4 26q5 14 16.5 25t28.5 15q39 14 82 22t87 8q19 0 37.5 -1.5t37.5 -3.5q65 -9 123.5 -37t108.5 -70q37 -32 67 -71t52 -81.5t35.5 -87.5t17.5 -89q1 -10 1.5 -20t0.5 -21
q0 -34 -6 -71t-16 -72q-14 -43 -38.5 -87.5t-53.5 -80.5q-64 -78 -151.5 -121.5t-180.5 -52.5q-11 -1 -22 -1.5t-22 -0.5q-32 0 -72.5 7t-71.5 15q-46 14 -89 37t-81 55q-42 36 -69 70q-11 13 -17.5 20.5t-8.5 7.5q-18 -34 -55.5 -70t-94.5 -71q-116 -72 -260 -72
q-105 0 -195 38.5t-156 104.5t-103.5 154t-37.5 187q0 63 11.5 131t38.5 131.5t72 118t112 90.5q9 5 20.5 8.5t21.5 3.5q15 0 27 -4q17 -5 29.5 -14.5t17.5 -23.5q7 -15 7 -31q0 -11 -5 -26q-5 -13 -13.5 -26t-21.5 -26q-10 -4 -17.5 -9t-15.5 -10q-4 -2 -7 -5t-7 -5
q-26 -20 -47 -55t-35.5 -77t-22.5 -87t-8 -84q0 -70 27 -131.5t72.5 -107t106.5 -72t129 -26.5q66 0 126.5 26.5t106 72t72.5 107t27 131.5q0 40 -7 85t-21 87.5t-36 77.5t-52 54q-4 4 -10.5 7.5t-11.5 6.5q-8 4 -16.5 10t-14.5 12q-39 23 -39 62q0 8 2 16.5t5 16.5
q8 41 54 48q5 1 10 1h10q11 0 25 -4t24 -9q62 -39 106.5 -94.5t72.5 -119.5t41 -132.5t13 -131.5z" />
    <glyph glyph-name="u1039_u101C" unicode="&#x1039;&#x101c;" horiz-adv-x="37" 
d="M-1126 -538q-13 67 -42 133.5t-81 115.5q-13 9 -29 18t-32.5 17.5t-33 15.5t-29.5 11q-46 13 -95 13q-8 0 -16.5 -0.5t-16.5 -1.5q-61 -7 -119 -37.5t-103 -82.5q-47 -53 -66 -116q-16 -48 -16 -103q0 -7 0.5 -13.5t1.5 -13.5q5 -69 35.5 -129t84.5 -105q27 -19 59 -34.5
t66 -25.5q36 -13 77 -13q30 0 69 9h1q19 17 42 19q13 5 27 5q25 0 42 -16q8 -8 16.5 -16t18.5 -17l6 -6q0 -2 0.5 -3.5t0.5 -3.5q1 -3 1 -7v-6q0 -19 -11 -38q-16 -24 -41 -34q-28 -11 -57.5 -18.5t-59.5 -9.5q-11 -2 -23 -2.5t-23 -0.5q-38 0 -77 6q-61 10 -120 32.5
t-110 64.5q-81 67 -126 153t-53 179q-1 11 -1.5 21.5t-0.5 21.5q0 70 20 139q13 46 35.5 89.5t53.5 81.5q67 81 155 125t185 53q11 1 20.5 1.5t18.5 0.5q73 0 148 -23q45 -15 89 -41t83 -59q45 -35 78 -76.5t51 -86.5q37 -93 42 -186q-4 -19 -4 -40q0 -31 11 -64
q17 -49 56 -103q38 -57 93.5 -89t118.5 -42q31 -6 63 -6t65 6q32 5 62.5 15.5t59.5 27.5q26 19 48.5 45t40 56t29.5 62.5t18 64.5q2 15 3.5 32t1.5 32q0 38 -7 72q-12 67 -48 120q-50 67 -110.5 100.5t-125.5 45.5q-2 0 -5.5 -1t-5.5 -2q-8 -2 -20.5 -6.5t-24.5 -10.5
q-45 0 -67.5 24.5t-28.5 66.5q7 16 21 40q18 28 54 28h23q112 0 219 -43q118 -49 197 -154q58 -89 78 -183q9 -50 9 -97q0 -22 -2 -44t-6 -45q-18 -90 -69.5 -170t-134.5 -134q-42 -29 -89 -50.5t-92 -31.5q-53 -12 -104 -12q-22 0 -43 1.5t-42 5.5q-93 17 -174.5 68
t-138.5 126q-26 34 -43.5 70.5t-23.5 68.5q-5 23 -7 49t-2 53q0 13 0.5 25t1.5 23z" />
    <glyph glyph-name="u1039_u101E" unicode="&#x1039;&#x101e;" horiz-adv-x="37" 
d="M-983 -580q9 -70 44.5 -134t96.5 -106q59 -41 121 -54q32 -7 69 -7q28 0 58 6q63 11 118 44.5t97 90.5q40 60 53 126q4 17 5.5 35t1.5 36q0 15 -1.5 30.5t-3.5 29.5q-13 65 -47 124t-91 98q-63 43 -131 53q-14 2 -27.5 3t-26.5 1q-43 0 -85 -11q-2 -1 -11 -8
q-6 -5 -16 -10.5t-20 -9.5q-8 -3 -17 -5.5t-17 -2.5q-20 0 -37 11q-27 16 -39 45q-6 13 -6 29q0 5 0.5 10t1.5 10q9 28 36 42q99 47 204 47h20.5t21.5 -1q64 -6 125 -28.5t117 -60.5q37 -29 70 -65t59.5 -76.5t45 -84t26.5 -85.5q6 -41 6 -82q0 -52 -10 -102
q-19 -93 -77 -177q-28 -39 -63.5 -72.5t-76.5 -59t-86 -43t-90 -26.5q-20 -4 -41.5 -5.5t-42.5 -1.5q-54 0 -106 12q-47 10 -92.5 29t-87.5 47q-25 17 -47 38t-41 44q-17 20 -27.5 34t-12.5 16q-40 -73 -149 -141q-111 -69 -256 -69q-134 0 -244 65q-109 64 -176 169
q-9 15 -9 29q0 13 7 26q13 24 36 35q22 13 51 13h5q37 -1 63 -34q9 -15 12 -26t7 -15q45 -54 110.5 -85.5t137.5 -31.5q68 0 129 26.5t106.5 72t72.5 107.5t27 134t-27 134.5t-72.5 108t-106.5 72t-129 26.5q-72 0 -137 -31t-113 -85q-3 -3 -4 -8.5t-3 -10.5q-2 -8 -5 -18
t-9 -20q-21 -29 -53 -32q-2 -1 -13 -1q-31 0 -54 18q-23 15 -34 40q-5 13 -5 23q0 15 7 28q65 108 175 174q111 66 248 66q103 0 193 -38.5t156.5 -104.5t104.5 -154t38 -187q0 -13 -2.5 -26.5t-4.5 -21.5z" />
    <glyph glyph-name="u1039_u101F" unicode="&#x1039;&#x101f;" horiz-adv-x="37" 
d="M-1038 -253q-1 -2 -1 -3t-0.5 -1.5t-0.5 -1.5q1 0 18 21q11 14 28 30t33 29q37 30 81.5 54t89.5 38q70 21 142 21q11 0 22.5 -0.5t22.5 -1.5q93 -9 180.5 -52.5t151.5 -121.5q30 -36 54 -79t38 -87q11 -35 16.5 -70.5t5.5 -70.5q0 -11 -0.5 -21t-1.5 -20
q-8 -91 -51.5 -177t-120.5 -150q-47 -37 -108 -66t-118 -40q-21 -5 -43.5 -7t-43.5 -2q-41 0 -81.5 7t-79.5 21q-31 8 -40 39q-3 10 -3 20q0 16 8 30q11 23 34 40q20 13 45 13h9t9 -1q21 -3 34 -12l12 -9q12 -2 25.5 -3t26.5 -1q21 0 42 3t43 8q69 16 125 65q54 45 85 106
t37 127q1 7 1 14v15q0 50 -14 101q-10 28 -26.5 60t-35.5 55q-47 53 -107.5 85t-121.5 37q-7 1 -14 1h-14q-47 0 -97 -14q-61 -16 -114 -62q-61 -50 -89 -120t-34 -142q-6 -94 -45.5 -181t-104.5 -153.5t-151.5 -106.5t-185.5 -40q-104 0 -194 38t-156 104t-103.5 154
t-37.5 188q0 63 12 130.5t39.5 130.5t72.5 118t111 93q20 10 40 10q11 0 25 -3q18 -5 30.5 -15.5t18.5 -23.5q3 -6 5 -15t2 -16q0 -11 -5 -26q-10 -28 -35 -51q-8 -4 -15.5 -9t-15.5 -10q-4 -3 -7.5 -5.5t-8.5 -5.5q-27 -17 -48.5 -51.5t-36 -77.5t-22 -88.5t-6.5 -84.5
q0 -71 27 -132t72.5 -107t106.5 -72t129 -26q67 0 127 26t105.5 72t72.5 107t27 132q0 39 -6.5 85t-20.5 88.5t-36.5 77t-53.5 52.5q-5 5 -10.5 8.5t-12.5 7.5t-15.5 10t-14.5 12q-37 23 -37 62q0 14 6 31q11 40 55 48q5 1 10 1h10q23 0 47 -11q77 -43 122 -100
q23 -29 36 -49t17 -30z" />
    <glyph glyph-name="u102B_u103A" unicode="&#x102b;&#x103a;" horiz-adv-x="304" 
d="M395 1942q141 49 295 49q277 0 465 -136q189 -137 429 -585q-106 132 -174 209t-98 101q-28 23 -59.5 45t-58.5 40q-45 28 -88.5 51t-80.5 42q-11 5 -20.5 10t-18.5 10q-55 30 -130 45.5t-156 15.5q-94 0 -174 -20t-143 -56.5t-107.5 -88.5t-67.5 -116q-2 -18 -5.5 -50.5
t-7.5 -78.5q-2 -16 -2.5 -33t-2.5 -35q-2 -34 -5 -71.5t-7 -76.5q-5 -60 -8.5 -124.5t-6.5 -130.5q-2 -63 -3.5 -126t-1.5 -117q0 -37 0.5 -68.5t1.5 -59.5q2 -28 4 -74.5t4 -108.5q3 -63 4.5 -122.5t1.5 -110.5q-1 -13 4 -21t12 -16q8 -9 16.5 -22t10.5 -39q0 -57 -38 -74
q-39 -17 -76 -17q-45 0 -62 32q-15 31 -17 60q-6 65 -9.5 131.5t-5.5 132.5q-3 135 -3 306v170q0 42 0.5 85.5t1.5 91.5v15q2 157 15.5 274.5t25.5 197.5q7 47 11.5 84.5t4.5 66.5q0 41 -15.5 84t-45.5 78t-74 57.5t-100 22.5q-61 0 -105.5 -24t-73.5 -61t-43 -80.5
t-14 -83.5q0 -29 8 -48q54 -158 85.5 -272t31.5 -198q0 -2 -0.5 -4.5t-0.5 -5.5q-1 -14 -3.5 -33t-12.5 -36t-29.5 -30t-53.5 -14q-33 0 -65 19q-33 20 -33 67q0 45 16 64t16 38q-3 30 -12 77q-10 45 -29.5 117.5t-48.5 160.5q-9 26 -14.5 53.5t-5.5 54.5q0 72 28.5 140.5
t80 122t123 86t158.5 32.5q131 0 226 -72q91 -70 117 -140q85 94 219 141z" />
    <glyph glyph-name="u103D_u103E" unicode="&#x103d;&#x103e;" horiz-adv-x="37" 
d="M-282 -530q0 72 -26.5 134.5t-72.5 108.5t-106.5 72.5t-129.5 26.5t-131 -26.5t-108 -72.5t-73 -108.5t-27 -134.5t27 -134.5t73 -108.5t108 -72.5t131 -26.5t129.5 26.5t106.5 72.5t72.5 108.5t26.5 134.5zM-1077 -708q-26 -48 -94 -117q-35 -35 -70.5 -63t-72.5 -48
q-75 -40 -146 -57t-131 -17q-70 0 -146 29t-165 149q119 -59 166 -66q23 -4 44.5 -6t41.5 -2q27 0 58.5 4.5t67 15t73 28t75.5 44.5q75 53 149.5 149.5t135.5 243.5q20 75 65 142t107.5 117.5t139.5 80.5t162 30q101 0 189 -37.5t153.5 -103t103 -152.5t37.5 -186
q-1 -99 -38 -186.5t-102 -152.5t-153 -102.5t-190 -38.5q-87 0 -164 28t-140 77q-31 24 -58.5 54t-49.5 62q-18 28 -32 51t-16 30z" />
    <glyph glyph-name="u103B_u103D" unicode="&#x103b;&#x103d;" horiz-adv-x="315" 
d="M-99 -569q0 -105 -40 -192q-20 -44 -43.5 -78t-49.5 -57q5 0 13 -3q20 -5 42 -5h219q8 0 16 7t14.5 17.5t10.5 23.5t4 25t-1 14q-12 43 -27 120.5t-28 174.5q-12 98 -21 208q-5 65 -7 357.5t-2 805.5q0 17 -18 37q-18 19 -18 65q0 55 32 75t72 20q52 0 76 -28.5t24 -66.5
v-21.5t1 -45.5q2 -59 3 -571t9 -615q6 -76 15.5 -152t21.5 -148.5t26 -138t29 -120.5q1 -5 1.5 -12.5t0.5 -16.5q0 -31 -16 -61.5t-42 -54.5t-58 -39t-63 -15h-335q-46 0 -87.5 12.5t-73.5 35.5q-30 -13 -80 -25t-105 -12q-102 0 -190.5 38t-154 103.5t-103 152.5t-37.5 186
q0 100 37.5 186.5t103.5 152.5q64 64 153 102.5t191 38.5q103 -1 191 -38.5t153.5 -102.5t102.5 -152.5t38 -186.5zM-247 -569q0 72 -27 134.5t-73 108.5t-107 72.5t-130 26.5t-130 -26.5t-107 -72.5t-73 -108.5t-27 -134.5t27 -134.5t73 -108.5t107 -72.5t130 -26.5
t130 26.5t107 72.5t73 108.5t27 134.5z" />
    <glyph glyph-name="u103B_u103E" unicode="&#x103b;&#x103e;" horiz-adv-x="313" 
d="M102 -1037q-24 -7 -50 -7q-110 0 -208 29.5t-176 84.5q-38 27 -72.5 62t-61.5 73q-55 79 -67 123q-20 -34 -51 -72t-73 -79q-83 -81 -171 -130q-88 -48 -170.5 -68.5t-155.5 -20.5q-44 0 -88.5 8.5t-86.5 24.5q-20 8 -41 18.5t-38 21.5q-18 12 -43.5 39.5t-57.5 70.5
q119 -47 178 -57q30 -5 57 -8t52 -3q43 0 96 11.5t112 38.5t121 71t122 109t116 153t102 203v268q0 15 5 31t15.5 29.5t27 24t39.5 13.5q40 0 82 -17q40 -16 40 -76q0 -48 -18 -67q-18 -21 -18 -40v-419q18 -56 50 -107.5t78 -89.5q45 -39 101.5 -61.5t117.5 -28.5h74
q9 0 17 6.5t14 16.5t10 23t4 27q0 11 -1 14q-11 43 -25.5 120t-27.5 174.5t-22.5 208t-9.5 218.5v917q0 19 -18 40q-18 22 -18 67q0 49 33 71t71 22q26 0 45.5 -8t32 -21.5t19 -30.5t6.5 -35v-174q0 -109 0.5 -321t1.5 -531q0 -97 8.5 -200t22.5 -203t31.5 -192t36.5 -166
q2 -9 4 -17.5t2 -13.5q0 -32 -17.5 -62.5t-43.5 -54t-57 -37.5t-58 -14z" />
    <glyph glyph-name="u103B_u103D_u103E" unicode="&#x103b;&#x103d;&#x103e;" horiz-adv-x="319" 
d="M-1044 -746q-26 -47 -96 -117t-143 -111q-74 -40 -145 -57.5t-131 -17.5q-35 0 -72 7.5t-74 21.5q-77 31 -167 148q60 -29 102 -45t66 -20q23 -4 44.5 -6t41.5 -2q35 0 79 9t93 30.5t100.5 58t102 90.5t97.5 127.5t87 170.5q20 74 64.5 141t107 118t139.5 81t163 30
q102 -1 190 -38.5t153 -102.5t102 -152.5t38 -186.5q0 -104 -41 -195q-36 -77 -122 -118q29 -14 47 -18t40 -4h219q8 0 16 7t14.5 17.5t10.5 23.5t4 25t-1 14q-12 43 -27 120.5t-27.5 175t-21.5 207.5t-9 218v945q0 17 -18 37q-18 19 -18 65q0 55 32 75t72 20q52 0 76 -28.5
t24 -66.5v-18q0 -11 0.5 -26.5t1.5 -35.5q2 -54 2.5 -297.5t0.5 -673.5q0 -99 8 -202t22 -202.5t32 -191t38 -165.5q1 -5 1.5 -12.5t0.5 -16.5q0 -31 -16 -61.5t-42 -54.5t-58 -39t-63 -15h-335q-46 0 -87.5 12.5t-73.5 35.5q-30 -13 -80 -25t-105 -12q-87 0 -164 28.5
t-140 76.5q-65 51 -108 116q-44 69 -47 82zM-250 -569q0 72 -26.5 134.5t-72.5 108.5t-106.5 72.5t-129.5 26.5t-131 -26.5t-108 -72.5t-73 -108.5t-27 -134.5t27 -134.5t73 -108.5t108 -72.5t131 -26.5t129.5 26.5t106.5 72.5t72.5 108.5t26.5 134.5z" />
    <glyph glyph-name="u103C_u103D_u103E" unicode="&#x103c;&#x103d;&#x103e;" horiz-adv-x="318" 
d="M1447 1037q-89 322 -120 386q-14 30 -29.5 57t-29.5 46q-31 39 -63.5 78t-70.5 74t-82.5 65t-99.5 52t-122.5 34t-150.5 12q-74 0 -134 -13.5t-108.5 -38t-86.5 -58.5t-68 -74q-29 -39 -50 -85.5t-34 -97.5q-11 -48 -17.5 -100t-6.5 -97v-1657q-1 -71 22 -146.5
t64.5 -143.5t99 -123t124.5 -84q5 0 15 2q7 1 16.5 2t22.5 1q43 0 81 -29t38 -75q0 -24 -8.5 -41t-23 -28.5t-33.5 -16.5t-40 -5q-117 0 -220 63q-101 61 -175 156q-72 94 -114 205q-20 54 -31 107.5t-11 103.5v1761q0 108 24 227q26 119 102 218q75 99 219 164
q141 64 377 64q113 0 213 -35.5t183 -97t148 -143t109 -172.5q17 -37 28.5 -71.5t15.5 -64.5q7 -62 27 -381zM1257 -530q0 72 -26.5 134.5t-72 108.5t-106 72.5t-129.5 26.5q-70 0 -131.5 -26.5t-107.5 -72.5t-73 -108.5t-27 -134.5t27 -134.5t73 -108.5t107.5 -72.5
t131.5 -26.5q69 0 129.5 26.5t106 72.5t72 108.5t26.5 134.5zM452 -666q-2 -1 -30 -1q-74 0 -135 39q-79 52 -136 177q49 -18 82 -30t52 -19q30 -11 55 -11h5q23 1 48.5 22t54.5 69q20 74 65 141t107.5 117.5t139.5 80.5t163 30q102 0 189.5 -37.5t152.5 -103t102 -152.5
t38 -186q-1 -99 -38 -186.5t-102 -152.5t-152.5 -102.5t-189.5 -38.5q-87 0 -164.5 28t-140.5 77q-63 51 -108 115q-22 33 -36.5 64t-21.5 60z" />
    <glyph glyph-name="u1004_u103A_u1039" unicode="&#x1004;&#x103a;&#x1039;" horiz-adv-x="37" 
d="M-717 1346q-11 4 -31 11.5t-47 19.5q-93 40 -137 115q-44 77 -44 158q0 84 38.5 150.5t104 112t151 70t179.5 24.5q215 0 349 -91q135 -91 346 -496q-236 308 -319 351q-84 45 -138 60q-48 14 -107.5 23.5t-123.5 9.5q-67 0 -126.5 -16.5t-103.5 -46t-70 -69t-26 -84.5
q0 -43 27.5 -79.5t75.5 -63.5q13 -7 29.5 -16t31.5 -17q16 -9 32.5 -18t31.5 -16.5t26 -12.5t17 -5q3 2 11 4t19 2q33 0 46 -25t13 -47q-1 -11 -12.5 -24.5t-30.5 -28.5t-42 -30.5t-46 -30.5q-7 -5 -15 -9.5t-15 -9.5q-20 -13 -34 -18.5t-19 -7.5q2 0 5.5 0.5t8.5 0.5
q21 -1 46 -1.5t54 -0.5h60.5t53.5 1q14 0 27 0.5t21 1.5q5 4 21 12t44 8q46 0 66 -29q19 -28 19 -52q0 -41 -31 -62q-32 -20 -56 -20h-541q-20 0 -37 7t-29.5 19t-20 27t-7.5 31q0 38 37 63l223 144q-4 0 -5 1z" />
    <glyph glyph-name="u1004_u103A_u1039_u102D" unicode="&#x1004;&#x103a;&#x1039;&#x102d;" horiz-adv-x="37" 
d="M-74 1538q0 -99 -37.5 -186t-103 -152.5t-154 -103t-190.5 -37.5q-50 0 -98 10t-92 28q-33 14 -65.5 33t-58.5 41q9 -18 9 -35q0 -41 -30 -62q-32 -20 -56 -20h-542q-19 0 -36 7t-29.5 19t-20 27t-7.5 31q0 37 36 63l224 143q-1 0 -1.5 0.5t-1.5 0.5q-2 0 -3 1
q-11 4 -31 11.5t-46 19.5q-94 40 -138 115q-44 77 -44 158q0 84 39 150.5t104.5 112t151 70t179.5 24.5q87 0 163 -16.5t137 -45.5q14 8 32.5 17.5t34.5 16.5q44 19 92 29t98 10q103 -1 191 -38.5t153.5 -102.5t102.5 -152.5t38 -186.5zM-222 1538q0 72 -27 134.5t-73 108.5
t-107 72.5t-130 26.5q-34 0 -67 -7t-63 -20q-1 0 -1.5 -0.5t-1.5 -0.5t-1.5 -0.5t-1.5 -0.5q57 -64 126.5 -172t147.5 -259q-236 308 -319 351q-6 3 -11.5 5.5t-10.5 5.5t-10.5 5.5t-10.5 5.5q-2 -2 -6.5 -6t-6.5 -6q-44 -46 -72 -109t-28 -134q0 -72 27 -134.5t73 -108.5
t107 -72.5t130 -26.5t130 26.5t107 72.5t73 108.5t27 134.5zM-986 1854q-30 5 -61 7.5t-63 2.5q-66 0 -125.5 -16.5t-103.5 -46t-70 -69t-26 -84.5q0 -88 103 -143q19 -12 45 -26.5t50.5 -27t44 -22t26.5 -10.5q1 1 4 2t4 2q7 3 23 3q33 0 46 -25q14 -26 14 -47
q-1 -11 -12.5 -24.5t-30.5 -28.5t-42 -30.5t-46 -30.5q-7 -5 -15 -9.5t-15 -9.5q-2 -2 -5 -3.5t-5 -3.5q-6 -5 -15.5 -10t-14.5 -8h9q17 -1 40 -1.5t52 -0.5h60.5t53.5 1q15 0 27 0.5t20 0.5q4 2 8 5.5t8 5.5q16 10 50 10q20 0 32 -4q-26 29 -49 65t-40 74q-18 44 -28 91
t-10 95q0 49 10 96t28 90q14 32 33 63t40 57q-12 3 -26 5.5t-28 4.5z" />
    <glyph glyph-name="u1004_u103A_u1039_u102E" unicode="&#x1004;&#x103a;&#x1039;&#x102e;" horiz-adv-x="37" 
d="M-67 1536q-1 -99 -38 -186.5t-102.5 -152.5t-153.5 -102.5t-191 -38.5q-101 0 -191 38q-74 32 -134 85q13 -24 13 -43q0 -41 -30 -62q-32 -20 -56 -20h-542q-19 0 -36 7t-29.5 19t-20 27t-7.5 31q0 37 36 63l224 143q-1 0 -1.5 0.5t-1.5 0.5q-2 0 -3 1q-11 4 -31 11.5
t-46 19.5q-94 40 -138 115q-44 77 -44 158q0 84 39 150.5t104.5 112t151 70t179.5 24.5q90 0 166.5 -16.5t138.5 -48.5q14 8 33 18t35 17q44 19 92 29t99 10q103 -1 191 -38.5t153.5 -102.5t102.5 -152.5t38 -186.5zM-828 1333q2 8 25 22.5t61 31.5q41 19 90.5 29t104.5 10
q107 0 189 -37q36 -17 59 -30t26 -21q12 14 34 70q11 29 17.5 62.5t6.5 65.5q0 72 -27 134.5t-73 108.5t-107 72.5t-130 26.5t-130 -27l-4 -2t-1 0l-4 -2q57 -64 124.5 -171t145.5 -256q-234 305 -319 351l-10 5t-9 5q-3 1 -9.5 4t-8.5 5q-4 -3 -12 -11q-46 -46 -73 -108.5
t-27 -134.5q0 -71 27 -132q25 -60 34 -71zM-999 1349q-38 90 -38 187q0 49 10 96t28 90q14 32 33 63.5t41 57.5q-14 3 -30 6t-31 5q-30 5 -61 7.5t-63 2.5q-66 0 -125.5 -16.5t-103.5 -46t-70 -69t-26 -84.5q0 -88 103 -143q19 -12 45 -26.5t50.5 -27t44 -22t26.5 -10.5
q1 1 4 2t4 2q7 3 23 3q33 0 46 -25q14 -26 14 -47q-1 -11 -12.5 -24.5t-30.5 -28.5t-42 -30.5t-46 -30.5q-7 -5 -15 -9.5t-15 -9.5q-2 -2 -5 -3.5t-5 -3.5q-6 -5 -15.5 -10t-14.5 -8h9q17 -1 40 -1.5t52 -0.5h60.5t53.5 1q15 0 27 0.5t20 0.5q4 2 8 5.5t8 5.5q16 10 50 10
q21 0 40 -7q-27 29 -50.5 64.5t-40.5 74.5zM-409 1245q0 20 -38 37.5t-100 17.5q-32 0 -58 -5t-44.5 -12.5t-29 -17.5t-10.5 -20q0 -18 39.5 -34.5t102.5 -16.5t100.5 16.5t37.5 34.5z" />
    <glyph glyph-name="u1004_u103A_u1039_u1036" unicode="&#x1004;&#x103a;&#x1039;&#x1036;" horiz-adv-x="37" 
d="M-144 1682q0 -81 -58 -139q-59 -59 -144 -59q-43 0 -79.5 16t-63.5 43t-42 63t-15 76q0 53 27 97q-36 18 -68 31.5t-56 20.5q-48 14 -107.5 23.5t-123.5 9.5q-68 0 -127 -16.5t-103 -46t-69.5 -69t-25.5 -84.5q0 -43 27 -79.5t75 -63.5q13 -7 29.5 -16t31.5 -17
q16 -9 32.5 -18t31.5 -16.5t26 -12.5t17 -5q3 2 11 4t19 2q33 0 46 -25t13 -47q0 -11 -12 -24.5t-30.5 -28.5t-42 -30.5t-46.5 -30.5q-7 -5 -15 -9.5t-15 -9.5q-2 -2 -5 -3.5t-5 -3.5q-7 -5 -15 -9.5t-14 -8.5h9q17 -1 39.5 -1.5t51.5 -0.5h60t53 1q16 0 28.5 0.5t20.5 0.5
q4 2 8 5.5t8 5.5q16 10 50 10q45 0 65 -29q19 -28 19 -52q0 -41 -31 -62q-32 -20 -56 -20h-541q-20 0 -37 7t-29.5 19t-20 27t-7.5 31q0 38 37 63l223 144q-4 0 -5 1q-11 4 -31 11.5t-47 19.5q-93 40 -137 115q-44 77 -44 158q0 84 39 150.5t104 112t151 70t179 24.5
q106 0 193.5 -23t155.5 -68q24 -17 46.5 -34.5t37.5 -31.5q22 13 48 20t54 7q43 0 80 -15.5t64 -42.5t42.5 -62.5t15.5 -74.5zM-300 1682q0 20 -14 34t-32 14q-15 0 -29 -14t-14 -34q0 -23 14 -37t29 -14q18 0 32 14t14 37z" />
    <glyph glyph-name="u102D_u1036" unicode="&#x102d;&#x1036;" horiz-adv-x="35" 
d="M-238 1538q0 -99 -37 -186t-102.5 -152.5t-154 -103t-190.5 -37.5t-190.5 37.5t-154 103t-103 152.5t-37.5 186q1 99 38 186.5t102.5 152.5t153.5 102.5t191 38.5q102 0 190.5 -38t154 -103.5t102.5 -152.5t37 -186zM-385 1538q0 72 -27 134.5t-73 108.5t-107 72.5
t-130 26.5t-130 -26.5t-107 -72.5t-73 -108.5t-27 -134.5t27 -134.5t73 -108.5t107 -72.5t130 -26.5t130 26.5t107 72.5t73 108.5t27 134.5zM208 1682q0 -81 -58 -139q-59 -59 -144 -59q-43 0 -79.5 16t-63.5 43t-42 63t-15 76q0 79 58 137q57 58 142 58q43 0 80 -15.5
t64 -42.5t42.5 -62.5t15.5 -74.5zM52 1682q0 20 -14 34t-32 14q-15 0 -29 -14t-14 -34q0 -23 14 -37t29 -14q18 0 32 14t14 37z" />
    <glyph glyph-name="u103E_u102F.clig" unicode="&#x103e;&#x102f;" horiz-adv-x="35" 
d="M-441 11q40 0 60 -32q19 -31 19 -61v-810h471q1 1 4 2t4 2q6 2 15 8.5t17.5 17t14 25.5t5.5 36v6q0 36 -22 76q-22 42 -50 56q-34 16 -78 17h-12q-46 0 -201 -34q130 94 181 111q48 16 92 16q42 0 78 -13t62 -29q16 -12 32 -30t29.5 -41.5t23 -52t11.5 -62.5v-14
q0 -41 -13 -83q-12 -40 -37.5 -70.5t-54.5 -51.5t-57 -31.5t-46 -10.5h-555q-34 0 -57 32t-23 68v769q0 5 -3 12.5t-6 14.5q-4 7 -7.5 17.5t-6.5 20.5q-5 13 -5 28v7t1 6q1 22 11 40t30 27q25 12 56 12h9t8 -1zM-1006 -889q4 -3 6 -3h164v719q0 5 -2.5 10.5t-6.5 12.5
q-5 8 -10 18.5t-9 23.5q-5 13 -5 28v7t1 6q1 23 11.5 41t30.5 27q28 11 56 11h8.5t7.5 -1q19 -1 35 -9t25 -23q19 -31 19 -61v-860q0 -18 -5 -36t-15.5 -32.5t-25.5 -23t-35 -8.5h-239q-17 0 -38.5 8.5t-39.5 19.5q-20 11 -40 27.5t-29 36.5q-8 22 -14.5 44.5t-11.5 45.5
q-1 7 -1.5 13.5t-0.5 13.5q0 37 56 163q16 -127 35 -153q18 -27 37 -43q18 -16 32 -21q2 -2 4 -2z" />
    <glyph glyph-name="u100D_u1039_u100E" unicode="&#x100d;&#x1039;&#x100e;" horiz-adv-x="1163" 
d="M322 237q0 73 43 98q44 26 82 26q6 0 13 -0.5t15 -1.5t14.5 -1h13.5q42 0 76 32q33 33 33 81q0 49 -33 82t-76 33q-27 0 -52 -22t-64 -22q-31 0 -51.5 20.5t-20.5 42.5q1 24 22 43.5t50 33.5t60.5 21t55.5 7q52 0 96.5 -19.5t77.5 -52t52 -76t19 -91.5
q0 -75 -40.5 -134.5t-108.5 -91.5q-33 -14 -72 -19q10 -5 21.5 -14t20.5 -18q10 -11 16 -26.5t7 -29.5q34 4 90 36t96 79q42 48 65 110t23 131q0 41 -13 89t-36 93t-54 83t-65 59q-26 25 -59 39q-34 15 -34 63q0 38 23.5 56.5t56.5 18.5q19 0 44 -11q57 -33 108.5 -78
t90.5 -105t62.5 -136t25.5 -171q0 -105 -38.5 -192t-101.5 -151q-29 -31 -66.5 -58t-75.5 -47q-37 -19 -74.5 -31.5t-67.5 -15.5q0 -93 0.5 -208t0.5 -234.5t0.5 -234.5t0.5 -208q1 -1 6 -1q2 0 3.5 -0.5t3.5 -0.5h34q8 1 18.5 1h18.5q5 0 10.5 1t10.5 3l18 4.5t24 2.5
q25 0 43 -7t29 -18t16 -25t5 -29q0 -43 -42 -58q-20 -7 -44.5 -11.5t-49.5 -5.5q-11 -1 -34.5 -1t-52.5 2q-65 3 -99 3q-17 0 -31 8t-24.5 21t-16.5 30.5t-6 35.5v930q-68 8 -151 49q-84 41 -146 102q-63 63 -100 145t-37 173q-1 67 22 124t56 102t68 77.5t58 49.5
q30 19 33 21q0 5 -6 8.5t-14.5 6t-17.5 4t-16 1.5q-29 0 -50.5 -10t-40.5 -24q-3 -2 -6 -4.5t-7 -5.5q-15 -11 -32 -21.5t-40 -10.5q-32 0 -56 20t-24 51q0 21 9.5 38t25.5 31.5t35.5 25t40.5 18.5q44 15 88.5 22.5t72.5 7.5q42 0 78 -12t65 -34q58 -46 58 -116
q0 -30 -18 -58t-54 -41q-26 -13 -57.5 -38.5t-59 -60.5t-46 -78t-18.5 -91q0 -66 26 -123t69 -103q20 -22 43 -39.5t48 -31.5q-11 27 -11 63z" />
    <glyph glyph-name="u100B_u1039_u100C" unicode="&#x100b;&#x1039;&#x100c;" horiz-adv-x="1095" 
d="M797 700q-7 8 -10 16.5t-5 16.5q-2 5 -3 9t-3 6q-48 60 -119 92t-149 32q-74 0 -140 -27.5t-115.5 -76.5t-79 -115t-29.5 -143t29.5 -144t79 -116.5t115.5 -78t140 -28.5q39 0 77 9.5t72.5 26t64.5 39t54 48.5q5 8 10 19t9 20l4 12q6 15 21 28.5t46 13.5q17 0 32.5 -6.5
t28.5 -17.5q26 -24 26 -49q0 -16 -9 -30q-32 -57 -77 -103t-102 -81q-116 -69 -257 -69q-108 0 -200.5 40.5t-161 109.5t-107.5 161t-39 196q0 101 39 192.5t107.5 160.5t161 110t200.5 41q66 0 130.5 -18.5t121.5 -50.5q57 -33 102.5 -78t77.5 -99q4 -7 6.5 -15t2.5 -14
q0 -16 -7.5 -28.5t-19.5 -21.5t-27.5 -13.5t-30.5 -4.5q-17 0 -36 6t-31 23zM10 -794q0 61 20 104.5t52 71.5t72.5 40.5t81.5 12.5q39 0 87 -14q45 -14 164 -105q-142 31 -184 31q-65 0 -113 -39q-22 -20 -34 -47t-12 -60q2 -21 7.5 -36t12 -25t13.5 -15.5t13 -7.5l2 -4h478
q55 0 91.5 44t36.5 125v567q-43 -19 -118.5 -38.5t-171.5 -19.5q-34 0 -70.5 4t-73.5 11.5t-73 18.5t-67 24q-32 13 -59.5 28.5t-50.5 32.5q-45 34 -45 78q0 42 21.5 62.5t53.5 20.5q20 -1 34.5 -7t24.5 -14.5t16.5 -18t10.5 -16.5q2 -5 4 -8.5t4 -1.5q64 -35 129 -52.5
t141 -17.5q42 0 78 4t69 12.5t65 21.5t65 31q3 2 6 13q1 6 6 19q5 14 20.5 28t48.5 14t59 -18.5t26 -52.5v-182l5 -604q0 -39 -18.5 -83t-50 -81t-74.5 -61.5t-91 -24.5h-521q-24 0 -56.5 14.5t-62.5 44t-51 73.5t-21 103z" />
    <glyph glyph-name="u100F_u1039_u100D" unicode="&#x100f;&#x1039;&#x100d;" horiz-adv-x="2255" 
d="M1060 -617q0 -17 -2.5 -43t-7 -55.5t-11.5 -60.5t-17 -57v-5q5 -4 13 -8t16 -4q16 0 28.5 27t20.5 65t12.5 79t4.5 70q0 71 -18 134.5t-43 128.5q-5 10 -5 26q0 17 8.5 35t24.5 32.5t39.5 23.5t53.5 9h667v6t1 7q-1 8 -1 19v16q0 11 -0.5 18.5t-1.5 13.5t-3.5 13t-5.5 16
q-1 2 -3 8l-4 11q4 75 34 83q14 2 27.5 3.5t26.5 1.5q37 0 51.5 -20.5t14.5 -65.5v-206q0 -23 -3.5 -37.5t-16 -23t-35.5 -12t-62 -3.5q-16 1 -97 1h-231h-133q-44 0 -91.5 0.5t-100.5 0.5q1 -2 1.5 -5t1.5 -5q13 -54 24 -110t11 -119q0 -31 -2.5 -71.5t-9.5 -83.5t-20 -84
t-35 -73.5t-54 -52.5t-76 -20q-33 0 -62.5 13.5t-51 37t-34.5 55.5t-13 69q18 48 26.5 105t8.5 105q0 63 -25.5 119.5t-69 98.5t-101.5 67t-124 25q-68 0 -126.5 -25.5t-101.5 -69t-67.5 -101.5t-24.5 -122q0 -72 29.5 -132.5t77.5 -102.5q8 -6 22 -10q10 -3 21 -7.5t20 -13
t14.5 -21.5t5.5 -34q0 -17 -6 -31.5t-16 -25.5t-22 -17.5t-24 -6.5q-6 0 -13.5 1.5t-14.5 4.5q-50 31 -92 72.5t-73 92.5t-48 109t-17 122q0 97 37 181t99.5 145.5t145 96.5t174.5 35t174.5 -35t145 -96.5t99 -145.5t36.5 -181zM921 806q3 2 15 8.5t30 13.5t40 12.5t45 5.5
h26q86 0 123 -41q4 5 7.5 11.5t7.5 11.5q76 93 178 138.5t212 45.5q106 0 200 -41.5t164.5 -112t111.5 -163.5t41 -196q0 -107 -44 -198t-115.5 -157.5t-161.5 -104t-183 -37.5h-36q-17 0 -35 3t-34 11t-26 22t-10 37q0 33 24.5 57.5t64.5 24.5q12 0 20 -3t14 -5q7 -3 12 -3
q74 0 139.5 30t114 80.5t76.5 118t28 142.5t-30 139t-80 111.5t-116.5 74.5t-138.5 27q-76 0 -147 -33t-122 -90q-13 -15 -26 -33.5t-24 -45t-18 -63.5t-7 -90q0 -35 2.5 -74t6.5 -81q4 -45 7 -90.5t3 -89.5q0 -35 -15 -66t-41.5 -54t-62.5 -37t-79 -14q-20 0 -29 3h-12
q-46 0 -85 14t-67 37t-44 52.5t-16 61.5q0 65 5 126.5t10 113.5q4 37 6.5 67t2.5 53q0 60 -15.5 108.5t-41.5 86.5t-60.5 65.5t-73 45t-78.5 26t-77 8.5q-71 0 -135 -28.5t-113 -78t-77.5 -116.5t-28.5 -143q0 -68 26 -133t74 -116t115.5 -82.5t149.5 -32.5q19 14 42.5 22
t50.5 9q55 3 71 -57q16 -59 -34 -90q-24 -15 -57.5 -20.5t-71.5 -3.5q-109 2 -204 43.5t-165 109.5t-110.5 156.5t-40.5 185.5q0 66 18.5 130t51.5 121.5t79.5 105.5t103 83t121 54.5t134.5 19.5q58 0 120 -16.5t119 -45t103 -66.5t72 -81zM1009 661q2 -31 3 -64t1 -68
q0 -84 -7 -171t-24 -170q1 -8 8 -16.5t17 -15.5t21 -12t20 -5h12q10 0 22.5 5.5t23 13.5t17.5 17t8 16q-11 66 -17 143t-6 149q0 45 2 91.5t6 91.5q-4 23 -22.5 37.5t-43.5 14.5q-18 0 -29.5 -13t-11.5 -44z" />
    <glyph glyph-name="u100F_u1039_u100F" unicode="&#x100f;&#x1039;&#x100f;" horiz-adv-x="2255" 
d="M925 -360q3 2 43 22q41 18 82 24q23 -7 46.5 -15t46.5 -17q34 -14 41 -14q13 25 61 65q49 41 108 71q58 28 122.5 42.5t118.5 14.5q75 0 140 -21.5t118 -58t94 -85t69 -103t42.5 -112t14.5 -111.5q0 -88 -38 -173.5t-98 -151.5q-32 -33 -69 -60.5t-77.5 -47.5t-83.5 -31
t-86 -11q-57 0 -110 14q-17 1 -27.5 7t-16.5 15t-8 20t-2 21v15q0 9 3 20.5t11.5 22t22.5 17.5t35 7q22 0 34.5 -4.5t20.5 -9.5q2 -2 6.5 -4t3.5 -1q27 3 56.5 11.5t59 21t56.5 29.5t49 38q48 42 77 101t29 132q0 74 -31 138t-80 111t-109.5 73.5t-118.5 26.5
q-72 0 -141 -33.5t-121 -94.5q-2 -2 -3.5 -4t-3.5 -4q-10 -11 -19.5 -24.5t-17 -36.5t-12.5 -59.5t-5 -94.5q0 -26 2.5 -57t5.5 -63q4 -38 7 -80.5t3 -86.5q0 -60 -52 -118q-26 -27 -63 -42t-85 -15t-92.5 11t-81.5 31q-74 42 -74 134q6 45 11 90t9 87t6.5 80t2.5 70
q0 63 -30 137q-15 36 -42 67.5t-62 57.5q-39 27 -83.5 41t-91.5 14q-64 0 -126 -24t-111 -69t-79 -109t-30 -143q0 -63 24 -121.5t66 -104.5t99 -77.5t123 -40.5q32 -5 58.5 -1t45 1t29 -19t10.5 -60q0 -24 -9.5 -37.5t-24.5 -19.5t-34.5 -7t-40.5 -1q-111 1 -202.5 45
t-157.5 115t-103 161t-38 183q0 101 38.5 186.5t104.5 147.5t154.5 97t187.5 35q57 0 117.5 -12t114.5 -39q54 -28 101 -71q46 -42 60 -71zM1005 -513q9 -38 12.5 -78.5t3.5 -82.5q0 -35 -3 -71.5t-7 -72.5q-4 -37 -7 -73t-3 -72q0 -14 18 -22t36 -8h13l14 -4q14 1 27 14.5
t14 27.5q-17 72 -24 151.5t-7 154.5q0 42 3 77q1 15 2 32.5t1 32.5q0 18 -8.5 29t-16.5 12q-2 -1 -4.5 -2.5t-4.5 -2.5h-20q-11 0 -23 -9t-16 -33zM921 806q3 2 15 8.5t30 13.5t40 12.5t45 5.5h26q86 0 123 -41q4 5 7.5 11.5t7.5 11.5q76 93 178 138.5t212 45.5
q106 0 200 -41.5t164.5 -112t111.5 -163.5t41 -196q0 -107 -44 -198t-115.5 -157.5t-161.5 -104t-183 -37.5h-36q-17 0 -35 3t-34 11t-26 22t-10 37q0 33 24.5 57.5t64.5 24.5q12 0 20 -3t14 -5q7 -3 12 -3q74 0 139.5 30t114 80.5t76.5 118t28 142.5t-30 139t-80 111.5
t-116.5 74.5t-138.5 27q-76 0 -147 -33t-122 -90q-13 -15 -26 -33.5t-24 -45t-18 -63.5t-7 -90q0 -35 2.5 -74t6.5 -81q4 -45 7 -90.5t3 -89.5q0 -35 -15 -66t-41.5 -54t-62.5 -37t-79 -14q-20 0 -29 3h-12q-46 0 -85 14t-67 37t-44 52.5t-16 61.5q0 65 5 126.5t10 113.5
q4 37 6.5 67t2.5 53q0 60 -15.5 108.5t-41.5 86.5t-60.5 65.5t-73 45t-78.5 26t-77 8.5q-71 0 -135 -28.5t-113 -78t-77.5 -116.5t-28.5 -143q0 -68 26 -133t74 -116t115.5 -82.5t149.5 -32.5q19 14 42.5 22t50.5 9q55 3 71 -57q16 -59 -34 -90q-24 -15 -57.5 -20.5
t-71.5 -3.5q-109 2 -204 43.5t-165 109.5t-110.5 156.5t-40.5 185.5q0 66 18.5 130t51.5 121.5t79.5 105.5t103 83t121 54.5t134.5 19.5q58 0 120 -16.5t119 -45t103 -66.5t72 -81zM1009 661q2 -31 3 -64t1 -68q0 -84 -7 -171t-24 -170q1 -8 8 -16.5t17 -15.5t21 -12t20 -5
h12q10 0 22.5 5.5t23 13.5t17.5 17t8 16q-11 66 -17 143t-6 149q0 45 2 91.5t6 91.5q-4 23 -22.5 37.5t-43.5 14.5q-18 0 -29.5 -13t-11.5 -44z" />
    <glyph glyph-name="u100B_u1039_u100B" unicode="&#x100b;&#x1039;&#x100b;" horiz-adv-x="1095" 
d="M1106 -877q43 0 59 -28q17 -29 17 -50q0 -30 -20.5 -52t-55.5 -22h-246q-17 0 -31 8t-24.5 21.5t-16.5 30.5t-6 35v552q0 3 1 4q-64 -17 -132.5 -32t-143.5 -15q-30 0 -64 2t-69 6.5t-70 11.5t-66 18q-61 20 -109 65q-45 43 -45 113q0 72 52 125q52 54 135 54
q54 -23 118 -34.5t118 -11.5q18 0 41.5 1.5t48.5 5.5t51 9.5t50 13.5q48 15 78 36t30 47q0 17 -10 27t-23 10q-9 0 -23 -11q-57 -28 -115 -44t-124 -16q-107 0 -199.5 40.5t-161 109.5t-107.5 161.5t-39 196.5q0 101 39 192.5t107.5 160.5t161 109.5t199.5 40.5
q67 0 132 -18t122 -50q57 -33 102.5 -78.5t77.5 -99.5q10 -17 10 -28q0 -15 -7.5 -27.5t-19.5 -22t-28 -14.5t-32 -5q-23 0 -38 7.5t-24.5 18t-14.5 22t-8 20.5q-2 3 -3.5 7t-0.5 3q-51 57 -120.5 90t-147.5 33q-74 0 -139.5 -27.5t-115.5 -76t-79 -114.5t-29 -143
q0 -78 29 -145t79 -116.5t115.5 -78t139.5 -28.5q35 -2 68 9.5t66 25.5q32 14 63.5 25t64.5 11q76 0 129 -53t53 -124q0 -67 -47 -114q-47 -48 -113 -77q-33 -14 -70 -25t-75 -18.5t-74.5 -11.5t-68.5 -4q-20 0 -45.5 3t-53 7.5t-53.5 10t-46 10t-32.5 7.5t-11.5 3
q-14 0 -23 -9.5t-9 -27.5t27.5 -32.5t72.5 -24.5q22 -5 46.5 -8.5t47.5 -6t44 -3.5t36 -1q81 0 154.5 20.5t150.5 53.5q1 1 17 1q36 0 74 -36q37 -36 37 -104v-538q0 1 4 1q6 -2 21 -2q33 0 62 6q28 6 79 6zM637 -653q33 -20 33 -55v-54.5t-1 -42.5q0 -8 -0.5 -20.5
t-0.5 -18.5v-36q3 1 5.5 1.5t6.5 1.5q9 2 21 4.5t31 2.5q54 0 74 -26q4 -6 7.5 -22t6 -34.5t4 -36t1.5 -27.5q-2 27 -19 10q-19 -17 -47 -24q-27 -7 -59 -7h-55q-53 0 -97 22q-44 21 -44 84v114q-5 -1 -9 -1.5t-9 -0.5q-112 0 -179 59q-65 59 -65 141q0 81 65 138
q66 57 179 57q21 0 52 -4.5t57 -13.5q27 -10 50 -28.5t23 -48.5q0 -33 -27 -55t-69 -22q-32 0 -54 16t-32 16q-48 0 -67.5 -15.5t-19.5 -39.5t20.5 -42t66.5 -18q26 0 55 15q28 15 61 15q22 0 35 -4z" />
    <glyph glyph-name="u100D_u1039_u100D" unicode="&#x100d;&#x1039;&#x100d;" horiz-adv-x="1066" 
d="M422 10q-20 0 -47.5 2t-62.5 6t-68 12.5t-62 20.5h-10q-5 -5 -10.5 -15.5t-5.5 -21.5q0 -19 26 -33.5t71 -25.5t94.5 -16.5t82.5 -5.5q81 0 154 21.5t145 50.5q8 4 25 4q37 0 73 -36q36 -38 36 -100v-763q0 1 1 1q1 -1 62 5q30 2 51.5 3.5t34.5 1.5q52 0 72 -28
q10 -14 15.5 -28t5.5 -28q0 -41 -43 -56t-145 -14q-51 1 -84 1h-50q-50 0 -65 52q-8 24 -12 84.5t-5 139.5q-1 18 -1.5 41.5t-0.5 46.5q0 66 3 153q2 71 2.5 162.5t0.5 191.5q0 3 1 4q-10 -2 -15 -4q-61 -15 -126 -28t-135 -13q-29 0 -63 1.5t-69 5.5t-70.5 11.5t-67.5 18.5
q-31 11 -59 28t-51 38q-45 43 -45 113t53 123q53 52 136 52q25 -12 55 -19.5t61.5 -12t62 -6t57.5 -1.5q72 0 136.5 28.5t113 78t77 115.5t28.5 141q0 77 -29 143.5t-79 116t-116 78t-139 28.5q-84 0 -153 -33t-115 -90q-6 -7 -9 -14.5t-6 -15.5l-4 -10l-4 -10
q-7 -14 -21.5 -27.5t-46.5 -13.5q-18 0 -34 6.5t-27.5 17t-18.5 23t-7 24.5q0 14 9 31q64 112 180 183t257 71q107 0 199.5 -41t161 -110.5t107.5 -162t39 -194.5t-39 -193.5t-107.5 -160.5t-161 -109t-199.5 -40zM193 -633q0 3 -0.5 6t-0.5 6q-1 3 -1 7.5v8.5
q0 27 8.5 52.5t30 45.5t58 32.5t92.5 12.5q36 0 61 16t25 39q0 25 -23 42t-58 17q-39 0 -67 -18q-29 -18 -77 -18q-23 0 -38.5 6.5t-26 16.5t-15 23t-4.5 26q0 31 26 51.5t60 31.5t72 16t70 5q105 0 174 -54q69 -56 69 -145q0 -86 -71 -142t-177 -56q-2 0 -4 0.5t-5 0.5
q-4 1 -8 1h-9t-9 -2t-4 -14q0 -16 20.5 -22t41.5 -6q25 0 37 6q13 6 38 6q73 0 90 -55q9 -30 9 -64v-13t-1 -13q0 -3 -0.5 -7.5t-0.5 -6.5q-5 -39 -6 -70v-19q4 0 9 1t10 3q8 2 19.5 4.5t27.5 2.5q26 0 44.5 -7.5t30.5 -20t17.5 -28.5t5.5 -32q0 -40 -34 -56
q-33 -17 -74 -19q-8 -1 -19 -1h-19h-19t-19 1q-3 0 -7 0.5t-7 0.5q-13 1 -24 1h-20q-20 0 -35 8.5t-24.5 22t-14.5 31.5t-5 36q-1 35 -2 70.5t-2 70.5q-103 2 -159 42.5t-56 118.5z" />
    <glyph glyph-name="u1039_u1050" unicode="&#x1039;&#x1050;" horiz-adv-x="35" 
d="M-438 -877q5 2 11 5.5t11 7.5q8 5 15 9.5t14 6.5q24 19 44 54.5t34 77.5t22 87t8 83q0 72 -26.5 134t-71.5 107.5t-105.5 71.5t-128.5 26t-128.5 -26t-106.5 -72t-72.5 -107.5t-26.5 -133.5q0 -40 7 -85.5t21.5 -87.5t37 -77t52.5 -54q5 -4 10.5 -7.5t11.5 -7.5
q15 -9 30 -21q40 -23 40 -62q0 -16 -7 -33q-4 -17 -18 -28.5t-34 -16.5q-14 -3 -25 -3q-23 0 -47 11q-68 40 -113.5 94t-72.5 116t-38.5 129t-11.5 133q-1 66 16.5 128t49.5 116.5t77 99t99.5 76t117.5 49t131 17.5q103 0 192.5 -38.5t156 -104.5t105 -154.5t38.5 -188.5
q0 -65 -11 -133t-37.5 -131t-72 -117t-114.5 -91q-19 -10 -41 -10q-15 0 -28 4q-33 12 -47 39q-8 14 -8 30q0 11 5 26q11 29 35 52zM-613 -766q-43 0 -79.5 16t-63.5 43t-42 62.5t-15 75.5q0 80 58 138q57 57 142 57q43 0 80 -15.5t64 -42t42.5 -62t15.5 -75.5
q0 -80 -58 -138q-59 -59 -144 -59zM-613 -521q-15 0 -29 -14t-14 -34q0 -22 14 -36t29 -14q17 0 31 14t14 36q0 20 -14 34t-31 14z" />
    <glyph glyph-name="u1039_u1051" unicode="&#x1039;&#x1051;" horiz-adv-x="35" 
d="M-440 -219q-24 24 -35 53q-5 15 -5 26q0 16 9 33q12 24 46 36q13 4 29 4q20 0 40 -9q69 -38 114.5 -92t72 -117t37.5 -131t11 -132q0 -101 -38.5 -190t-105 -155t-156 -104t-192.5 -38q-102 0 -192 38.5t-156.5 104.5t-105 154.5t-37.5 189.5q0 64 11.5 131t38.5 129.5
t72.5 117t114.5 94.5q20 10 46 10h11t13 -1q45 -11 53 -46q3 -8 5 -16.5t2 -16.5q0 -39 -39 -62q-7 -6 -15.5 -12t-16.5 -11q-6 -4 -11 -7t-10 -7q-31 -18 -53 -53t-36.5 -77.5t-21.5 -88t-7 -84.5q0 -72 26.5 -134t72 -107.5t106.5 -72t129 -26.5t128.5 26t105.5 72
t71.5 108t26.5 134q0 38 -7.5 83t-21.5 87.5t-34 77.5t-45 53q-5 2 -13.5 7t-12.5 7q-6 4 -13 7.5t-12 6.5zM-615 -730q-43 0 -79.5 16t-63.5 43t-42 63t-15 76q0 79 58 137q57 58 142 58q43 0 80 -16t64 -42.5t42.5 -62t15.5 -74.5q0 -81 -58 -139q-59 -59 -144 -59z
M-615 -484q-15 0 -29 -14t-14 -34q0 -23 14 -37t29 -14q17 0 31 14t14 37q0 20 -14 34t-31 14z" />
    <glyph glyph-name="u1020_u103E" unicode="&#x1020;&#x103e;" horiz-adv-x="1088" 
d="M878 -114q-53 -31 -109 -54t-96 -31v-95q0 -30 -9.5 -64t-30.5 -64t-54 -50t-81 -21h-21q-49 0 -90 8t-76 28t-64 54t-54 85q50 -17 81 -26t50.5 -13.5t31 -5t23.5 -0.5h6q34 0 59.5 7t42 19t24.5 27t8 31v56l10 2q-1 1 -5 1h-20q-45 0 -92.5 8t-92.5 20t-84 27.5
t-67 30.5q-1 0 -1.5 -0.5t-1.5 -0.5v-681q0 -29 15.5 -47t32.5 -18h553q11 3 22 13q8 8 16 24t10 43q0 70 -44 109q-20 19 -75 43q-53 24 -87 24q-46 0 -132 -62q58 48 96.5 72.5t65 35.5t46 12t41.5 1q41 0 81.5 -13.5t73 -42t52.5 -72.5t20 -104t-22 -104t-52 -72
t-62.5 -41.5t-53.5 -13.5h-586q-45 0 -77.5 20.5t-54.5 50t-32.5 63t-10.5 60.5v727q0 35 12 62t31.5 45t44 27.5t50.5 9.5q13 0 31 -5t38.5 -13t41.5 -17.5t40 -18.5q14 -6 29 -13t27 -12q71 -31 158 -31q35 0 83.5 7t93 20.5t75.5 31.5t31 41q0 21 -11 31.5t-25 10.5
q-4 0 -4 -1q-113 -65 -247 -65q-107 0 -199.5 40.5t-161 110t-108 162t-39.5 196.5q0 101 39.5 192t108 160t161 109.5t199.5 40.5q68 0 132 -19t120.5 -52t102.5 -78t79 -97q9 -14 9 -28q0 -17 -7.5 -29.5t-19.5 -21.5t-27 -13.5t-30 -4.5q-21 0 -35 5.5t-22.5 14
t-13.5 18.5t-8 19q-4 12 -11 19q-48 61 -118 93.5t-151 32.5q-74 0 -139.5 -27.5t-115 -76.5t-78 -115t-28.5 -142q0 -78 28.5 -145t78 -117t115 -78.5t139.5 -28.5q98 0 171 46q20 13 39 18t48 5q39 0 73.5 -14.5t59.5 -39t39.5 -58t14.5 -71.5q0 -43 -18 -78.5t-49 -63.5z
" />
    <glyph glyph-name="u1000_u103A" unicode="&#x1000;&#x103a;" horiz-adv-x="2027" 
d="M1019 520q0 -67 -13 -139.5t-42 -140t-75.5 -126.5t-113.5 -99q-11 -5 -23 -8.5t-23 -3.5q-34 0 -56.5 20t-22.5 58q0 17 7 30.5t18 24t24 18.5t24 14q15 7 23 14q31 21 54.5 58.5t39 83t23 94.5t7.5 94q0 76 -29 142.5t-78 115.5t-114 77.5t-138 28.5q-74 0 -139.5 -29
t-114 -79t-76.5 -117.5t-28 -143.5q0 -45 7.5 -94.5t22 -95t37 -81.5t52.5 -53q42 -24 66 -47t24 -61q0 -32 -22 -50.5t-56 -18.5q-8 0 -18.5 2t-18.5 7q-72 39 -119 96t-74.5 124t-38.5 138.5t-11 138.5q0 105 39 196.5t107 160t161 107.5t200 39q73 0 143 -22t128 -56.5
t101 -76t63 -80.5q6 11 22.5 31t39.5 43.5t50.5 46t55.5 39.5q61 35 126.5 55t134.5 20q104 0 197 -40.5t163.5 -109.5t111.5 -161t41 -194q0 -101 -38.5 -193t-107 -162t-161.5 -111.5t-201 -41.5q-24 0 -61 3t-71.5 12t-59 26.5t-24.5 46.5q0 13 4.5 28.5t14.5 29t25.5 22
t37.5 8.5q16 0 29.5 -6.5t23.5 -13.5q6 -4 11 -7t10 -3q16 -4 31.5 -5.5t30.5 -1.5q72 0 136.5 30t113 81t77 118.5t28.5 141.5q0 77 -30 143t-80 114.5t-114.5 76t-134.5 27.5q-74 0 -138.5 -28t-113 -76.5t-77 -112.5t-30.5 -136zM1351 1146q11 0 12 -1v-1q2 1 4 1t4 1
q7 1 14.5 2t16.5 1q46 0 65 -30t19 -56q0 -15 -6 -29.5t-16.5 -25.5t-24 -17.5t-28.5 -6.5q-40 0 -86.5 13t-92.5 39t-89 66t-76 93.5t-52.5 121.5t-19.5 151q0 64 18.5 128.5t54.5 124t89 111.5t121 90t151 60t180 22q150 0 275 -42t228 -120q102 -77 182 -185
q81 -110 236 -481q-195 299 -251 353q-28 28 -55 52t-55 45q-32 24 -66 47t-63 41q-18 11 -35 22t-32 22q-33 21 -74 38t-87 29.5t-96 19t-100 6.5q-124 0 -211.5 -34t-143 -89.5t-81.5 -125t-26 -141.5q0 -75 20 -130.5t49.5 -94t64 -60.5t63.5 -30z" />
    <glyph glyph-name="u1000_u102C" unicode="&#x1000;&#x102c;" horiz-adv-x="2902" 
d="M1019 520q0 -67 -13 -139.5t-42 -140t-75.5 -126.5t-113.5 -99q-11 -5 -23 -8.5t-23 -3.5q-34 0 -56.5 20t-22.5 58q0 17 7 30.5t18 24t24 18.5t24 14q15 7 23 14q31 21 54.5 58.5t39 83t23 94.5t7.5 94q0 76 -29 142.5t-78 115.5t-114 77.5t-138 28.5q-74 0 -139.5 -29
t-114 -79t-76.5 -117.5t-28 -143.5q0 -45 7.5 -94.5t22 -95t37 -81.5t52.5 -53q42 -24 66 -47t24 -61q0 -32 -22 -50.5t-56 -18.5q-8 0 -18.5 2t-18.5 7q-72 39 -119 96t-74.5 124t-38.5 138.5t-11 138.5q0 105 39 196.5t107 160t161 107.5t200 39q73 0 143 -22t128 -56.5
t101 -76t63 -80.5q6 11 22.5 31t39.5 43.5t50.5 46t55.5 39.5q61 35 126.5 55t134.5 20q104 0 197 -40.5t163.5 -109.5t111.5 -161t41 -194q0 -101 -38.5 -193t-107 -162t-161.5 -111.5t-201 -41.5q-24 0 -61 3t-71.5 12t-59 26.5t-24.5 46.5q0 13 4.5 28.5t14.5 29t25.5 22
t37.5 8.5q16 0 29.5 -6.5t23.5 -13.5q6 -4 11 -7t10 -3q16 -4 31.5 -5.5t30.5 -1.5q72 0 136.5 30t113 81t77 118.5t28.5 141.5q0 77 -30 143t-80 114.5t-114.5 76t-134.5 27.5q-74 0 -138.5 -28t-113 -76.5t-77 -112.5t-30.5 -136zM2151 156q4 0 9.5 -1.5t8.5 -3.5q2 2 3 2
q47 -19 91 -19q63 0 119 21t101 59q58 65 91.5 139t33.5 148q0 66 -26.5 131.5t-73 118t-110.5 85t-139 32.5q-60 0 -124 -21.5t-118 -63.5q-63 -57 -92 -123t-33 -134q0 -21 2.5 -31.5t9.5 -27.5l3 -6q-5 -39 -26.5 -62t-72.5 -41q-38 11 -57 56q-8 35 -12.5 67t-4.5 61
q0 89 37.5 174t105 151t160.5 106.5t203 40.5q90 0 182 -33t167 -96.5t122 -156t47 -211.5q0 -56 -13 -113.5t-38 -111.5t-61.5 -102.5t-84.5 -86.5q-75 -54 -160 -78t-176 -24q-24 0 -55 2t-58.5 9.5t-46.5 23t-19 43.5q0 8 6 21.5t16.5 26.5t25.5 22.5t33 9.5q13 0 24 -3z
" />
    <glyph glyph-name="u1000_u102C_u1037" unicode="&#x1000;&#x102c;&#x1037;" horiz-adv-x="2902" 
d="M1019 520q0 -67 -13 -139.5t-42 -140t-75.5 -126.5t-113.5 -99q-11 -5 -23 -8.5t-23 -3.5q-34 0 -56.5 20t-22.5 58q0 17 7 30.5t18 24t24 18.5t24 14q15 7 23 14q31 21 54.5 58.5t39 83t23 94.5t7.5 94q0 76 -29 142.5t-78 115.5t-114 77.5t-138 28.5q-74 0 -139.5 -29
t-114 -79t-76.5 -117.5t-28 -143.5q0 -45 7.5 -94.5t22 -95t37 -81.5t52.5 -53q42 -24 66 -47t24 -61q0 -32 -22 -50.5t-56 -18.5q-8 0 -18.5 2t-18.5 7q-72 39 -119 96t-74.5 124t-38.5 138.5t-11 138.5q0 105 39 196.5t107 160t161 107.5t200 39q73 0 143 -22t128 -56.5
t101 -76t63 -80.5q6 11 22.5 31t39.5 43.5t50.5 46t55.5 39.5q61 35 126.5 55t134.5 20q104 0 197 -40.5t163.5 -109.5t111.5 -161t41 -194q0 -101 -38.5 -193t-107 -162t-161.5 -111.5t-201 -41.5q-24 0 -61 3t-71.5 12t-59 26.5t-24.5 46.5q0 13 4.5 28.5t14.5 29t25.5 22
t37.5 8.5q16 0 29.5 -6.5t23.5 -13.5q6 -4 11 -7t10 -3q16 -4 31.5 -5.5t30.5 -1.5q72 0 136.5 30t113 81t77 118.5t28.5 141.5q0 77 -30 143t-80 114.5t-114.5 76t-134.5 27.5q-74 0 -138.5 -28t-113 -76.5t-77 -112.5t-30.5 -136zM2151 156q4 0 9.5 -1.5t8.5 -3.5q2 2 3 2
q47 -19 91 -19q63 0 119 21t101 59q58 65 91.5 139t33.5 148q0 66 -26.5 131.5t-73 118t-110.5 85t-139 32.5q-60 0 -124 -21.5t-118 -63.5q-63 -57 -92 -123t-33 -134q0 -21 2.5 -31.5t9.5 -27.5l3 -6q-5 -39 -26.5 -62t-72.5 -41q-38 11 -57 56q-8 35 -12.5 67t-4.5 61
q0 89 37.5 174t105 151t160.5 106.5t203 40.5q90 0 182 -33t167 -96.5t122 -156t47 -211.5q0 -56 -13 -113.5t-38 -111.5t-61.5 -102.5t-84.5 -86.5q-75 -54 -160 -78t-176 -24q-24 0 -55 2t-58.5 9.5t-46.5 23t-19 43.5q0 8 6 21.5t16.5 26.5t25.5 22.5t33 9.5q13 0 24 -3z
M2429 -455q0 -80 -59 -139t-143 -59q-43 0 -80 15.5t-64 42.5t-42 63t-15 77q0 80 58 138q58 57 143 57q43 0 80 -15.5t64 -42.5t42.5 -62.5t15.5 -74.5zM2272 -455q0 20 -14 34t-31 14q-16 0 -30 -14t-14 -34q0 -23 14 -37t30 -14q17 0 31 14t14 37z" />
    <glyph glyph-name="u1000_u102D" unicode="&#x1000;&#x102d;" horiz-adv-x="2032" 
d="M1019 520q0 -67 -13 -139.5t-42 -140t-75.5 -126.5t-113.5 -99q-11 -5 -23 -8.5t-23 -3.5q-34 0 -56.5 20t-22.5 58q0 17 7 30.5t18 24t24 18.5t24 14q15 7 23 14q31 21 54.5 58.5t39 83t23 94.5t7.5 94q0 76 -29 142.5t-78 115.5t-114 77.5t-138 28.5q-74 0 -139.5 -29
t-114 -79t-76.5 -117.5t-28 -143.5q0 -45 7.5 -94.5t22 -95t37 -81.5t52.5 -53q42 -24 66 -47t24 -61q0 -32 -22 -50.5t-56 -18.5q-8 0 -18.5 2t-18.5 7q-72 39 -119 96t-74.5 124t-38.5 138.5t-11 138.5q0 105 39 196.5t107 160t161 107.5t200 39q73 0 143 -22t128 -56.5
t101 -76t63 -80.5q6 11 22.5 31t39.5 43.5t50.5 46t55.5 39.5q61 35 126.5 55t134.5 20q104 0 197 -40.5t163.5 -109.5t111.5 -161t41 -194q0 -101 -38.5 -193t-107 -162t-161.5 -111.5t-201 -41.5q-24 0 -61 3t-71.5 12t-59 26.5t-24.5 46.5q0 13 4.5 28.5t14.5 29t25.5 22
t37.5 8.5q16 0 29.5 -6.5t23.5 -13.5q6 -4 11 -7t10 -3q16 -4 31.5 -5.5t30.5 -1.5q72 0 136.5 30t113 81t77 118.5t28.5 141.5q0 77 -30 143t-80 114.5t-114.5 76t-134.5 27.5q-74 0 -138.5 -28t-113 -76.5t-77 -112.5t-30.5 -136zM1860 1538q0 -99 -37.5 -186t-103 -152.5
t-154 -103t-190.5 -37.5t-190.5 37.5t-153.5 103t-102 152.5t-38 186q1 99 38 186.5t102 152.5t153.5 102.5t190.5 38.5q103 -1 191 -38.5t153.5 -102.5t102.5 -152.5t38 -186.5zM1712 1538q0 72 -27 134.5t-73 108.5t-107 72.5t-130 26.5t-130 -26.5t-107 -72.5
t-72.5 -108.5t-26.5 -134.5t26.5 -134.5t72.5 -108.5t107 -72.5t130 -26.5t130 26.5t107 72.5t73 108.5t27 134.5z" />
    <glyph glyph-name="u1000_u102E" unicode="&#x1000;&#x102e;" horiz-adv-x="2026" 
d="M1019 520q0 -67 -13 -139.5t-42 -140t-75.5 -126.5t-113.5 -99q-11 -5 -23 -8.5t-23 -3.5q-34 0 -56.5 20t-22.5 58q0 17 7 30.5t18 24t24 18.5t24 14q15 7 23 14q31 21 54.5 58.5t39 83t23 94.5t7.5 94q0 76 -29 142.5t-78 115.5t-114 77.5t-138 28.5q-74 0 -139.5 -29
t-114 -79t-76.5 -117.5t-28 -143.5q0 -45 7.5 -94.5t22 -95t37 -81.5t52.5 -53q42 -24 66 -47t24 -61q0 -32 -22 -50.5t-56 -18.5q-8 0 -18.5 2t-18.5 7q-72 39 -119 96t-74.5 124t-38.5 138.5t-11 138.5q0 105 39 196.5t107 160t161 107.5t200 39q73 0 143 -22t128 -56.5
t101 -76t63 -80.5q6 11 22.5 31t39.5 43.5t50.5 46t55.5 39.5q61 35 126.5 55t134.5 20q104 0 197 -40.5t163.5 -109.5t111.5 -161t41 -194q0 -101 -38.5 -193t-107 -162t-161.5 -111.5t-201 -41.5q-24 0 -61 3t-71.5 12t-59 26.5t-24.5 46.5q0 13 4.5 28.5t14.5 29t25.5 22
t37.5 8.5q16 0 29.5 -6.5t23.5 -13.5q6 -4 11 -7t10 -3q16 -4 31.5 -5.5t30.5 -1.5q72 0 136.5 30t113 81t77 118.5t28.5 141.5q0 77 -30 143t-80 114.5t-114.5 76t-134.5 27.5q-74 0 -138.5 -28t-113 -76.5t-77 -112.5t-30.5 -136zM1860 1536q-1 -99 -38 -186.5
t-102.5 -152.5t-153.5 -102.5t-191 -38.5q-103 1 -191 38.5t-153.5 102.5t-102.5 152.5t-38 186.5q1 99 38 186.5t102.5 152.5t153.5 102.5t191 38.5q103 -1 191 -38.5t153.5 -102.5t102.5 -152.5t38 -186.5zM1099 1333q2 8 25 22.5t61 31.5q41 19 90.5 29t104.5 10
q53 0 101 -9.5t87 -27.5q37 -17 60 -30t26 -21q12 14 34 70q11 29 17.5 62.5t6.5 65.5q0 72 -27 134.5t-73 108.5t-107 72.5t-130 26.5t-130 -26.5t-107 -72.5t-73 -108.5t-27 -134.5q0 -34 7 -68t19 -64q14 -30 22.5 -48t12.5 -23zM1518 1245q0 20 -38 37.5t-100 17.5
q-32 0 -58 -5t-44.5 -12.5t-29 -17.5t-10.5 -20q0 -18 39.5 -34.5t102.5 -16.5t100.5 16.5t37.5 34.5z" />
    <glyph glyph-name="u1000_u102E_u1037" unicode="&#x1000;&#x102e;&#x1037;" horiz-adv-x="2026" 
d="M1019 520q0 -67 -13 -139.5t-42 -140t-75.5 -126.5t-113.5 -99q-11 -5 -23 -8.5t-23 -3.5q-34 0 -56.5 20t-22.5 58q0 17 7 30.5t18 24t24 18.5t24 14q15 7 23 14q31 21 54.5 58.5t39 83t23 94.5t7.5 94q0 76 -29 142.5t-78 115.5t-114 77.5t-138 28.5q-74 0 -139.5 -29
t-114 -79t-76.5 -117.5t-28 -143.5q0 -45 7.5 -94.5t22 -95t37 -81.5t52.5 -53q42 -24 66 -47t24 -61q0 -32 -22 -50.5t-56 -18.5q-8 0 -18.5 2t-18.5 7q-72 39 -119 96t-74.5 124t-38.5 138.5t-11 138.5q0 105 39 196.5t107 160t161 107.5t200 39q73 0 143 -22t128 -56.5
t101 -76t63 -80.5q6 11 22.5 31t39.5 43.5t50.5 46t55.5 39.5q61 35 126.5 55t134.5 20q104 0 197 -40.5t163.5 -109.5t111.5 -161t41 -194q0 -101 -38.5 -193t-107 -162t-161.5 -111.5t-201 -41.5q-24 0 -61 3t-71.5 12t-59 26.5t-24.5 46.5q0 13 4.5 28.5t14.5 29t25.5 22
t37.5 8.5q16 0 29.5 -6.5t23.5 -13.5q6 -4 11 -7t10 -3q16 -4 31.5 -5.5t30.5 -1.5q72 0 136.5 30t113 81t77 118.5t28.5 141.5q0 77 -30 143t-80 114.5t-114.5 76t-134.5 27.5q-74 0 -138.5 -28t-113 -76.5t-77 -112.5t-30.5 -136zM1860 1536q-1 -99 -38 -186.5
t-102.5 -152.5t-153.5 -102.5t-191 -38.5q-103 1 -191 38.5t-153.5 102.5t-102.5 152.5t-38 186.5q1 99 38 186.5t102.5 152.5t153.5 102.5t191 38.5q103 -1 191 -38.5t153.5 -102.5t102.5 -152.5t38 -186.5zM1099 1333q2 8 25 22.5t61 31.5q41 19 90.5 29t104.5 10
q53 0 101 -9.5t87 -27.5q37 -17 60 -30t26 -21q12 14 34 70q11 29 17.5 62.5t6.5 65.5q0 72 -27 134.5t-73 108.5t-107 72.5t-130 26.5t-130 -26.5t-107 -72.5t-73 -108.5t-27 -134.5q0 -34 7 -68t19 -64q14 -30 22.5 -48t12.5 -23zM1518 1245q0 20 -38 37.5t-100 17.5
q-32 0 -58 -5t-44.5 -12.5t-29 -17.5t-10.5 -20q0 -18 39.5 -34.5t102.5 -16.5t100.5 16.5t37.5 34.5zM1582 -455q0 -80 -59 -139t-143 -59q-43 0 -80 15.5t-64 42.5t-42 63t-15 77q0 80 58 138q58 57 143 57q43 0 80 -15.5t64 -42.5t42.5 -62.5t15.5 -74.5zM1425 -455
q0 20 -14 34t-31 14q-16 0 -30 -14t-14 -34q0 -23 14 -37t30 -14q17 0 31 14t14 37z" />
    <glyph glyph-name="u1000_u102F" unicode="&#x1000;&#x102f;" horiz-adv-x="2022" 
d="M1019 520q0 -67 -13 -139.5t-42 -140t-75.5 -126.5t-113.5 -99q-11 -5 -23 -8.5t-23 -3.5q-34 0 -56.5 20t-22.5 58q0 17 7 30.5t18 24t24 18.5t24 14q15 7 23 14q31 21 54.5 58.5t39 83t23 94.5t7.5 94q0 76 -29 142.5t-78 115.5t-114 77.5t-138 28.5q-74 0 -139.5 -29
t-114 -79t-76.5 -117.5t-28 -143.5q0 -45 7.5 -94.5t22 -95t37 -81.5t52.5 -53q42 -24 66 -47t24 -61q0 -32 -22 -50.5t-56 -18.5q-8 0 -18.5 2t-18.5 7q-72 39 -119 96t-74.5 124t-38.5 138.5t-11 138.5q0 105 39 196.5t107 160t161 107.5t200 39q73 0 143 -22t128 -56.5
t101 -76t63 -80.5q6 11 22.5 31t39.5 43.5t50.5 46t55.5 39.5q61 35 126.5 55t134.5 20q104 0 197 -40.5t163.5 -109.5t111.5 -161t41 -194q0 -101 -38.5 -193t-107 -162t-161.5 -111.5t-201 -41.5q-24 0 -61 3t-71.5 12t-59 26.5t-24.5 46.5q0 13 4.5 28.5t14.5 29t25.5 22
t37.5 8.5q16 0 29.5 -6.5t23.5 -13.5q6 -4 11 -7t10 -3q16 -4 31.5 -5.5t30.5 -1.5q72 0 136.5 30t113 81t77 118.5t28.5 141.5q0 77 -30 143t-80 114.5t-114.5 76t-134.5 27.5q-74 0 -138.5 -28t-113 -76.5t-77 -112.5t-30.5 -136zM1391 18q40 0 60 -32q19 -31 19 -61v-811
h627l7 4q7 3 16 9t17.5 16.5t14 26t5.5 36.5q0 74 -48 115q-46 40 -115 40q-41 0 -195 -35q124 97 173 112t92 15q44 0 86.5 -14.5t76 -44.5t54 -76.5t20.5 -111.5q0 -62 -24 -107.5t-57.5 -75t-68.5 -44t-57 -14.5h-708q-34 0 -58 32q-24 31 -24 68v769q0 17 -14 34
q-13 16 -13 59q0 57 33 74q34 17 81 17z" />
    <glyph glyph-name="u1000_u1030" unicode="&#x1000;&#x1030;" horiz-adv-x="2027" 
d="M1019 520q0 -67 -13 -139.5t-42 -140t-75.5 -126.5t-113.5 -99q-11 -5 -23 -8.5t-23 -3.5q-34 0 -56.5 20t-22.5 58q0 17 7 30.5t18 24t24 18.5t24 14q15 7 23 14q31 21 54.5 58.5t39 83t23 94.5t7.5 94q0 76 -29 142.5t-78 115.5t-114 77.5t-138 28.5q-74 0 -139.5 -29
t-114 -79t-76.5 -117.5t-28 -143.5q0 -45 7.5 -94.5t22 -95t37 -81.5t52.5 -53q42 -24 66 -47t24 -61q0 -32 -22 -50.5t-56 -18.5q-8 0 -18.5 2t-18.5 7q-72 39 -119 96t-74.5 124t-38.5 138.5t-11 138.5q0 105 39 196.5t107 160t161 107.5t200 39q73 0 143 -22t128 -56.5
t101 -76t63 -80.5q6 11 22.5 31t39.5 43.5t50.5 46t55.5 39.5q61 35 126.5 55t134.5 20q104 0 197 -40.5t163.5 -109.5t111.5 -161t41 -194q0 -101 -38.5 -193t-107 -162t-161.5 -111.5t-201 -41.5q-24 0 -61 3t-71.5 12t-59 26.5t-24.5 46.5q0 13 4.5 28.5t14.5 29t25.5 22
t37.5 8.5q16 0 29.5 -6.5t23.5 -13.5q6 -4 11 -7t10 -3q16 -4 31.5 -5.5t30.5 -1.5q72 0 136.5 30t113 81t77 118.5t28.5 141.5q0 77 -30 143t-80 114.5t-114.5 76t-134.5 27.5q-74 0 -138.5 -28t-113 -76.5t-77 -112.5t-30.5 -136zM1594 14q39 0 59 -30q19 -29 19 -60v-812
h628l8 4q7 1 16 7t17 17t13.5 27t5.5 37q0 36 -12.5 64.5t-34.5 48.5t-52 30.5t-65 10.5q-22 0 -46 -3t-138 -21q114 87 161 101q49 15 91 15q45 0 88 -14.5t76.5 -44.5t54.5 -76.5t21 -110.5q0 -63 -24.5 -108t-58 -74.5t-68.5 -43.5t-57 -14h-708q-32 0 -57 30
q-25 29 -25 70v768q0 17 -13 33t-13 59q0 60 33 75t81 15zM1350 -850q0 -16 16 -35t16 -63q0 -46 -31 -68t-65 -22q-26 0 -44.5 8t-30.5 21t-17.5 30t-5.5 35v776q0 17 -16 33t-16 61q0 24 8 40.5t21.5 27t31.5 15.5t37 5q96 0 96 -90v-774z" />
    <glyph glyph-name="u1000_u1030_u1037" unicode="&#x1000;&#x1030;&#x1037;" horiz-adv-x="2022" 
d="M1019 520q0 -67 -13 -139.5t-42 -140t-75.5 -126.5t-113.5 -99q-11 -5 -23 -8.5t-23 -3.5q-34 0 -56.5 20t-22.5 58q0 17 7 30.5t18 24t24 18.5t24 14q15 7 23 14q31 21 54.5 58.5t39 83t23 94.5t7.5 94q0 76 -29 142.5t-78 115.5t-114 77.5t-138 28.5q-74 0 -139.5 -29
t-114 -79t-76.5 -117.5t-28 -143.5q0 -45 7.5 -94.5t22 -95t37 -81.5t52.5 -53q42 -24 66 -47t24 -61q0 -32 -22 -50.5t-56 -18.5q-8 0 -18.5 2t-18.5 7q-72 39 -119 96t-74.5 124t-38.5 138.5t-11 138.5q0 105 39 196.5t107 160t161 107.5t200 39q73 0 143 -22t128 -56.5
t101 -76t63 -80.5q6 11 22.5 31t39.5 43.5t50.5 46t55.5 39.5q61 35 126.5 55t134.5 20q104 0 197 -40.5t163.5 -109.5t111.5 -161t41 -194q0 -101 -38.5 -193t-107 -162t-161.5 -111.5t-201 -41.5q-24 0 -61 3t-71.5 12t-59 26.5t-24.5 46.5q0 13 4.5 28.5t14.5 29t25.5 22
t37.5 8.5q16 0 29.5 -6.5t23.5 -13.5q6 -4 11 -7t10 -3q16 -4 31.5 -5.5t30.5 -1.5q72 0 136.5 30t113 81t77 118.5t28.5 141.5q0 77 -30 143t-80 114.5t-114.5 76t-134.5 27.5q-74 0 -138.5 -28t-113 -76.5t-77 -112.5t-30.5 -136zM1594 14q39 0 59 -30q19 -29 19 -60v-812
h628l8 4q7 1 16 7t17 17t13.5 27t5.5 37q0 36 -12.5 64.5t-34.5 48.5t-52 30.5t-65 10.5q-22 0 -46 -3t-138 -21q114 87 161 101q49 15 91 15q45 0 88 -14.5t76.5 -44.5t54.5 -76.5t21 -110.5q0 -63 -24.5 -108t-58 -74.5t-68.5 -43.5t-57 -14h-708q-32 0 -57 30
q-25 29 -25 70v768q0 17 -13 33t-13 59q0 60 33 75t81 15zM1350 -850q0 -16 16 -35t16 -63q0 -46 -31 -68t-65 -22q-26 0 -44.5 8t-30.5 21t-17.5 30t-5.5 35v776q0 17 -16 33t-16 61q0 24 8 40.5t21.5 27t31.5 15.5t37 5q96 0 96 -90v-774zM2189 -295q0 -80 -59 -139
t-143 -59q-43 0 -80 15.5t-64 42.5t-42 63t-15 77q0 80 58 138q58 57 143 57q43 0 80 -15.5t64 -42.5t42.5 -62.5t15.5 -74.5zM2032 -295q0 20 -14 34t-31 14q-16 0 -30 -14t-14 -34q0 -23 14 -37t30 -14q17 0 31 14t14 37z" />
    <glyph glyph-name="u1000_u1031" unicode="&#x1000;&#x1031;" horiz-adv-x="3068" 
d="M308 185q3 -16 4 -16t1 4v27q0 61 24 117t65.5 98t98 67t122.5 25q56 0 109.5 -18.5t95 -51t67 -77.5t25.5 -97q0 -69 -43.5 -119t-109 -82t-142 -47t-142.5 -15q-108 0 -196.5 40t-152 108.5t-98.5 160t-35 194.5q0 107 39.5 200.5t108 162.5t161 109t199.5 40
q68 0 133 -19t122 -53t104 -80t80 -101q4 -7 6.5 -14.5t2.5 -13.5q0 -11 -6.5 -24t-18.5 -24t-28.5 -18t-35.5 -7q-21 0 -34.5 6t-22.5 16t-14.5 21.5t-9.5 22.5q-3 8 -5 14.5t-7 11.5q-46 57 -115 90t-151 33q-74 0 -140 -28.5t-115 -78.5t-77.5 -118.5t-28.5 -147.5
q0 -59 14.5 -112t38 -95t52 -71t55.5 -40zM465 140q2 -1 29 -1q38 0 85 6t87.5 21t68 39t27.5 60q0 22 -13 42t-33 34.5t-44.5 23t-48.5 8.5q-33 0 -64 -13.5t-54.5 -36.5t-37.5 -55t-14 -68q0 -14 3 -27t6 -22q1 -4 2 -8.5t1 -2.5zM2070 520q0 -67 -13 -139.5t-42 -140
t-75.5 -126.5t-113.5 -99q-11 -5 -23 -8.5t-23 -3.5q-34 0 -56.5 20t-22.5 58q0 17 7 30.5t18 24t24 18.5t24 14q15 7 23 14q31 21 54.5 58.5t39 83t23 94.5t7.5 94q0 76 -29 142.5t-78 115.5t-114 77.5t-138 28.5q-74 0 -139.5 -29t-114 -79t-76.5 -117.5t-28 -143.5
q0 -45 7.5 -94.5t22 -95t37 -81.5t52.5 -53q42 -24 66 -47t24 -61q0 -32 -22 -50.5t-56 -18.5q-8 0 -18.5 2t-18.5 7q-72 39 -119 96t-74.5 124t-38.5 138.5t-11 138.5q0 105 39 196.5t107 160t161 107.5t200 39q73 0 143 -22t128 -56.5t101 -76t63 -80.5q6 11 22.5 31
t39.5 43.5t50.5 46t55.5 39.5q61 35 126.5 55t134.5 20q104 0 197 -40.5t163.5 -109.5t111.5 -161t41 -194q0 -101 -38.5 -193t-107 -162t-161.5 -111.5t-201 -41.5q-24 0 -61 3t-71.5 12t-59 26.5t-24.5 46.5q0 13 4.5 28.5t14.5 29t25.5 22t37.5 8.5q16 0 29.5 -6.5
t23.5 -13.5q6 -4 11 -7t10 -3q16 -4 31.5 -5.5t30.5 -1.5q72 0 136.5 30t113 81t77 118.5t28.5 141.5q0 77 -30 143t-80 114.5t-114.5 76t-134.5 27.5q-74 0 -138.5 -28t-113 -76.5t-77 -112.5t-30.5 -136z" />
    <glyph glyph-name="u1000_u1031_u1037" unicode="&#x1000;&#x1031;&#x1037;" horiz-adv-x="3067" 
d="M308 185q3 -16 4 -16t1 4v27q0 61 24 117t65.5 98t98 67t122.5 25q56 0 109.5 -18.5t95 -51t67 -77.5t25.5 -97q0 -69 -43.5 -119t-109 -82t-142 -47t-142.5 -15q-108 0 -196.5 40t-152 108.5t-98.5 160t-35 194.5q0 107 39.5 200.5t108 162.5t161 109t199.5 40
q68 0 133 -19t122 -53t104 -80t80 -101q4 -7 6.5 -14.5t2.5 -13.5q0 -11 -6.5 -24t-18.5 -24t-28.5 -18t-35.5 -7q-21 0 -34.5 6t-22.5 16t-14.5 21.5t-9.5 22.5q-3 8 -5 14.5t-7 11.5q-46 57 -115 90t-151 33q-74 0 -140 -28.5t-115 -78.5t-77.5 -118.5t-28.5 -147.5
q0 -59 14.5 -112t38 -95t52 -71t55.5 -40zM465 140q2 -1 29 -1q38 0 85 6t87.5 21t68 39t27.5 60q0 22 -13 42t-33 34.5t-44.5 23t-48.5 8.5q-33 0 -64 -13.5t-54.5 -36.5t-37.5 -55t-14 -68q0 -14 3 -27t6 -22q1 -4 2 -8.5t1 -2.5zM2061 520q0 -67 -13 -139.5t-42 -140
t-75.5 -126.5t-113.5 -99q-11 -5 -23 -8.5t-23 -3.5q-34 0 -56.5 20t-22.5 58q0 17 7 30.5t18 24t24 18.5t24 14q15 7 23 14q31 21 54.5 58.5t39 83t23 94.5t7.5 94q0 76 -29 142.5t-78 115.5t-114 77.5t-138 28.5q-74 0 -139.5 -29t-114 -79t-76.5 -117.5t-28 -143.5
q0 -45 7.5 -94.5t22 -95t37 -81.5t52.5 -53q42 -24 66 -47t24 -61q0 -32 -22 -50.5t-56 -18.5q-8 0 -18.5 2t-18.5 7q-72 39 -119 96t-74.5 124t-38.5 138.5t-11 138.5q0 105 39 196.5t107 160t161 107.5t200 39q73 0 143 -22t128 -56.5t101 -76t63 -80.5q6 11 22.5 31
t39.5 43.5t50.5 46t55.5 39.5q61 35 126.5 55t134.5 20q104 0 197 -40.5t163.5 -109.5t111.5 -161t41 -194q0 -101 -38.5 -193t-107 -162t-161.5 -111.5t-201 -41.5q-24 0 -61 3t-71.5 12t-59 26.5t-24.5 46.5q0 13 4.5 28.5t14.5 29t25.5 22t37.5 8.5q16 0 29.5 -6.5
t23.5 -13.5q6 -4 11 -7t10 -3q16 -4 31.5 -5.5t30.5 -1.5q72 0 136.5 30t113 81t77 118.5t28.5 141.5q0 77 -30 143t-80 114.5t-114.5 76t-134.5 27.5q-74 0 -138.5 -28t-113 -76.5t-77 -112.5t-30.5 -136zM2621 -455q0 -80 -59 -139t-143 -59q-43 0 -80 15.5t-64 42.5
t-42 63t-15 77q0 80 58 138q58 57 143 57q43 0 80 -15.5t64 -42.5t42.5 -62.5t15.5 -74.5zM2464 -455q0 20 -14 34t-31 14q-16 0 -30 -14t-14 -34q0 -23 14 -37t30 -14q17 0 31 14t14 37z" />
    <glyph glyph-name="u1000_u1032" unicode="&#x1000;&#x1032;" horiz-adv-x="2032" 
d="M1019 520q0 -67 -13 -139.5t-42 -140t-75.5 -126.5t-113.5 -99q-11 -5 -23 -8.5t-23 -3.5q-34 0 -56.5 20t-22.5 58q0 17 7 30.5t18 24t24 18.5t24 14q15 7 23 14q31 21 54.5 58.5t39 83t23 94.5t7.5 94q0 76 -29 142.5t-78 115.5t-114 77.5t-138 28.5q-74 0 -139.5 -29
t-114 -79t-76.5 -117.5t-28 -143.5q0 -45 7.5 -94.5t22 -95t37 -81.5t52.5 -53q42 -24 66 -47t24 -61q0 -32 -22 -50.5t-56 -18.5q-8 0 -18.5 2t-18.5 7q-72 39 -119 96t-74.5 124t-38.5 138.5t-11 138.5q0 105 39 196.5t107 160t161 107.5t200 39q73 0 143 -22t128 -56.5
t101 -76t63 -80.5q6 11 22.5 31t39.5 43.5t50.5 46t55.5 39.5q61 35 126.5 55t134.5 20q104 0 197 -40.5t163.5 -109.5t111.5 -161t41 -194q0 -101 -38.5 -193t-107 -162t-161.5 -111.5t-201 -41.5q-24 0 -61 3t-71.5 12t-59 26.5t-24.5 46.5q0 13 4.5 28.5t14.5 29t25.5 22
t37.5 8.5q16 0 29.5 -6.5t23.5 -13.5q6 -4 11 -7t10 -3q16 -4 31.5 -5.5t30.5 -1.5q72 0 136.5 30t113 81t77 118.5t28.5 141.5q0 77 -30 143t-80 114.5t-114.5 76t-134.5 27.5q-74 0 -138.5 -28t-113 -76.5t-77 -112.5t-30.5 -136zM1866 1230q19 -11 44 -20t58 -9
q22 0 118 21q-73 -81 -127 -94q-54 -12 -98 -12q-57 0 -125 28.5t-143.5 80t-156.5 124t-163 159.5q-57 62 -105.5 122t-84.5 110t-58 84.5t-26 45.5q-4 5 -14.5 21t-21.5 37t-19.5 43.5t-8.5 42.5q0 31 24 51.5t61 20.5q58 0 79 -35q10 -17 15.5 -32t5.5 -26v-22
q0 -10 -1 -11q13 -15 73 -111q60 -97 200 -251q43 -48 92 -92.5t98 -84t95 -72t84 -57.5t65.5 -41t39.5 -21z" />
    <glyph glyph-name="u1000_u1032_u1037" unicode="&#x1000;&#x1032;&#x1037;" horiz-adv-x="2026" 
d="M1019 520q0 -67 -13 -139.5t-42 -140t-75.5 -126.5t-113.5 -99q-11 -5 -23 -8.5t-23 -3.5q-34 0 -56.5 20t-22.5 58q0 17 7 30.5t18 24t24 18.5t24 14q15 7 23 14q31 21 54.5 58.5t39 83t23 94.5t7.5 94q0 76 -29 142.5t-78 115.5t-114 77.5t-138 28.5q-74 0 -139.5 -29
t-114 -79t-76.5 -117.5t-28 -143.5q0 -45 7.5 -94.5t22 -95t37 -81.5t52.5 -53q42 -24 66 -47t24 -61q0 -32 -22 -50.5t-56 -18.5q-8 0 -18.5 2t-18.5 7q-72 39 -119 96t-74.5 124t-38.5 138.5t-11 138.5q0 105 39 196.5t107 160t161 107.5t200 39q73 0 143 -22t128 -56.5
t101 -76t63 -80.5q6 11 22.5 31t39.5 43.5t50.5 46t55.5 39.5q61 35 126.5 55t134.5 20q104 0 197 -40.5t163.5 -109.5t111.5 -161t41 -194q0 -101 -38.5 -193t-107 -162t-161.5 -111.5t-201 -41.5q-24 0 -61 3t-71.5 12t-59 26.5t-24.5 46.5q0 13 4.5 28.5t14.5 29t25.5 22
t37.5 8.5q16 0 29.5 -6.5t23.5 -13.5q6 -4 11 -7t10 -3q16 -4 31.5 -5.5t30.5 -1.5q72 0 136.5 30t113 81t77 118.5t28.5 141.5q0 77 -30 143t-80 114.5t-114.5 76t-134.5 27.5q-74 0 -138.5 -28t-113 -76.5t-77 -112.5t-30.5 -136zM1871 1230q19 -11 44 -20t58 -9
q22 0 118 21q-73 -81 -127 -94q-54 -12 -98 -12q-57 0 -125 28.5t-143.5 80t-156.5 124t-163 159.5q-57 62 -105.5 122t-84.5 110t-58 84.5t-26 45.5q-4 5 -14.5 21t-21.5 37t-19.5 43.5t-8.5 42.5q0 31 24 51.5t61 20.5q58 0 79 -35q10 -17 15.5 -32t5.5 -26v-22
q0 -10 -1 -11q13 -15 73 -111q60 -97 200 -251q43 -48 92 -92.5t98 -84t95 -72t84 -57.5t65.5 -41t39.5 -21zM1579 -455q0 -80 -59 -139t-143 -59q-43 0 -80 15.5t-64 42.5t-42 63t-15 77q0 80 58 138q58 57 143 57q43 0 80 -15.5t64 -42.5t42.5 -62.5t15.5 -74.5z
M1422 -455q0 20 -14 34t-31 14q-16 0 -30 -14t-14 -34q0 -23 14 -37t30 -14q17 0 31 14t14 37z" />
    <glyph glyph-name="u1000_u1031_u102C" unicode="&#x1000;&#x1031;&#x102c;" horiz-adv-x="3943" 
d="M308 185q3 -16 4 -16t1 4v27q0 61 24 117t65.5 98t98 67t122.5 25q56 0 109.5 -18.5t95 -51t67 -77.5t25.5 -97q0 -69 -43.5 -119t-109 -82t-142 -47t-142.5 -15q-108 0 -196.5 40t-152 108.5t-98.5 160t-35 194.5q0 107 39.5 200.5t108 162.5t161 109t199.5 40
q68 0 133 -19t122 -53t104 -80t80 -101q4 -7 6.5 -14.5t2.5 -13.5q0 -11 -6.5 -24t-18.5 -24t-28.5 -18t-35.5 -7q-21 0 -34.5 6t-22.5 16t-14.5 21.5t-9.5 22.5q-3 8 -5 14.5t-7 11.5q-46 57 -115 90t-151 33q-74 0 -140 -28.5t-115 -78.5t-77.5 -118.5t-28.5 -147.5
q0 -59 14.5 -112t38 -95t52 -71t55.5 -40zM465 140q2 -1 29 -1q38 0 85 6t87.5 21t68 39t27.5 60q0 22 -13 42t-33 34.5t-44.5 23t-48.5 8.5q-33 0 -64 -13.5t-54.5 -36.5t-37.5 -55t-14 -68q0 -14 3 -27t6 -22q1 -4 2 -8.5t1 -2.5zM2065 520q0 -67 -13 -139.5t-42 -140
t-75.5 -126.5t-113.5 -99q-11 -5 -23 -8.5t-23 -3.5q-34 0 -56.5 20t-22.5 58q0 17 7 30.5t18 24t24 18.5t24 14q15 7 23 14q31 21 54.5 58.5t39 83t23 94.5t7.5 94q0 76 -29 142.5t-78 115.5t-114 77.5t-138 28.5q-74 0 -139.5 -29t-114 -79t-76.5 -117.5t-28 -143.5
q0 -45 7.5 -94.5t22 -95t37 -81.5t52.5 -53q42 -24 66 -47t24 -61q0 -32 -22 -50.5t-56 -18.5q-8 0 -18.5 2t-18.5 7q-72 39 -119 96t-74.5 124t-38.5 138.5t-11 138.5q0 105 39 196.5t107 160t161 107.5t200 39q73 0 143 -22t128 -56.5t101 -76t63 -80.5q6 11 22.5 31
t39.5 43.5t50.5 46t55.5 39.5q61 35 126.5 55t134.5 20q104 0 197 -40.5t163.5 -109.5t111.5 -161t41 -194q0 -101 -38.5 -193t-107 -162t-161.5 -111.5t-201 -41.5q-24 0 -61 3t-71.5 12t-59 26.5t-24.5 46.5q0 13 4.5 28.5t14.5 29t25.5 22t37.5 8.5q16 0 29.5 -6.5
t23.5 -13.5q6 -4 11 -7t10 -3q16 -4 31.5 -5.5t30.5 -1.5q72 0 136.5 30t113 81t77 118.5t28.5 141.5q0 77 -30 143t-80 114.5t-114.5 76t-134.5 27.5q-74 0 -138.5 -28t-113 -76.5t-77 -112.5t-30.5 -136zM3195 156q4 0 9.5 -1.5t8.5 -3.5q2 2 3 2q47 -19 91 -19
q63 0 119 21t101 59q58 65 91.5 139t33.5 148q0 66 -26.5 131.5t-73 118t-110.5 85t-139 32.5q-60 0 -124 -21.5t-118 -63.5q-63 -57 -92 -123t-33 -134q0 -21 2.5 -31.5t9.5 -27.5l3 -6q-5 -39 -26.5 -62t-72.5 -41q-38 11 -57 56q-8 35 -12.5 67t-4.5 61q0 89 37.5 174
t105 151t160.5 106.5t203 40.5q90 0 182 -33t167 -96.5t122 -156t47 -211.5q0 -56 -13 -113.5t-38 -111.5t-61.5 -102.5t-84.5 -86.5q-75 -54 -160 -78t-176 -24q-24 0 -55 2t-58.5 9.5t-46.5 23t-19 43.5q0 8 6 21.5t16.5 26.5t25.5 22.5t33 9.5q13 0 24 -3z" />
    <glyph glyph-name="u1000_u1031_u102C_u1037" unicode="&#x1000;&#x1031;&#x102c;&#x1037;" horiz-adv-x="3948" 
d="M309 185q3 -16 4 -16t1 4v27q0 61 24 117t65.5 98t98 67t122.5 25q56 0 109.5 -18.5t95 -51t67 -77.5t25.5 -97q0 -69 -43.5 -119t-109 -82t-142 -47t-142.5 -15q-108 0 -196.5 40t-152 108.5t-98.5 160t-35 194.5q0 107 39.5 200.5t108 162.5t161 109t199.5 40
q68 0 133 -19t122 -53t104 -80t80 -101q4 -7 6.5 -14.5t2.5 -13.5q0 -11 -6.5 -24t-18.5 -24t-28.5 -18t-35.5 -7q-21 0 -34.5 6t-22.5 16t-14.5 21.5t-9.5 22.5q-3 8 -5 14.5t-7 11.5q-46 57 -115 90t-151 33q-74 0 -140 -28.5t-115 -78.5t-77.5 -118.5t-28.5 -147.5
q0 -59 14.5 -112t38 -95t52 -71t55.5 -40zM466 140q2 -1 29 -1q38 0 85 6t87.5 21t68 39t27.5 60q0 22 -13 42t-33 34.5t-44.5 23t-48.5 8.5q-33 0 -64 -13.5t-54.5 -36.5t-37.5 -55t-14 -68q0 -14 3 -27t6 -22q1 -4 2 -8.5t1 -2.5zM2066 520q0 -67 -13 -139.5t-42 -140
t-75.5 -126.5t-113.5 -99q-11 -5 -23 -8.5t-23 -3.5q-34 0 -56.5 20t-22.5 58q0 17 7 30.5t18 24t24 18.5t24 14q15 7 23 14q31 21 54.5 58.5t39 83t23 94.5t7.5 94q0 76 -29 142.5t-78 115.5t-114 77.5t-138 28.5q-74 0 -139.5 -29t-114 -79t-76.5 -117.5t-28 -143.5
q0 -45 7.5 -94.5t22 -95t37 -81.5t52.5 -53q42 -24 66 -47t24 -61q0 -32 -22 -50.5t-56 -18.5q-8 0 -18.5 2t-18.5 7q-72 39 -119 96t-74.5 124t-38.5 138.5t-11 138.5q0 105 39 196.5t107 160t161 107.5t200 39q73 0 143 -22t128 -56.5t101 -76t63 -80.5q6 11 22.5 31
t39.5 43.5t50.5 46t55.5 39.5q61 35 126.5 55t134.5 20q104 0 197 -40.5t163.5 -109.5t111.5 -161t41 -194q0 -101 -38.5 -193t-107 -162t-161.5 -111.5t-201 -41.5q-24 0 -61 3t-71.5 12t-59 26.5t-24.5 46.5q0 13 4.5 28.5t14.5 29t25.5 22t37.5 8.5q16 0 29.5 -6.5
t23.5 -13.5q6 -4 11 -7t10 -3q16 -4 31.5 -5.5t30.5 -1.5q72 0 136.5 30t113 81t77 118.5t28.5 141.5q0 77 -30 143t-80 114.5t-114.5 76t-134.5 27.5q-74 0 -138.5 -28t-113 -76.5t-77 -112.5t-30.5 -136zM3200 156q4 0 9.5 -1.5t8.5 -3.5q2 2 3 2q47 -19 91 -19
q63 0 119 21t101 59q58 65 91.5 139t33.5 148q0 66 -26.5 131.5t-73 118t-110.5 85t-139 32.5q-60 0 -124 -21.5t-118 -63.5q-63 -57 -92 -123t-33 -134q0 -21 2.5 -31.5t9.5 -27.5l3 -6q-5 -39 -26.5 -62t-72.5 -41q-38 11 -57 56q-8 35 -12.5 67t-4.5 61q0 89 37.5 174
t105 151t160.5 106.5t203 40.5q90 0 182 -33t167 -96.5t122 -156t47 -211.5q0 -56 -13 -113.5t-38 -111.5t-61.5 -102.5t-84.5 -86.5q-75 -54 -160 -78t-176 -24q-24 0 -55 2t-58.5 9.5t-46.5 23t-19 43.5q0 8 6 21.5t16.5 26.5t25.5 22.5t33 9.5q13 0 24 -3zM3477 -455
q0 -80 -59 -139t-143 -59q-43 0 -80 15.5t-64 42.5t-42 63t-15 77q0 80 58 138q58 57 143 57q43 0 80 -15.5t64 -42.5t42.5 -62.5t15.5 -74.5zM3320 -455q0 20 -14 34t-31 14q-16 0 -30 -14t-14 -34q0 -23 14 -37t30 -14q17 0 31 14t14 37z" />
    <glyph glyph-name="u1000_u1031_u102C_u103A" unicode="&#x1000;&#x1031;&#x102c;&#x103a;" horiz-adv-x="3943" 
d="M307 185q3 -16 4 -16t1 4v27q0 61 24 117t65.5 98t98 67t122.5 25q56 0 109.5 -18.5t95 -51t67 -77.5t25.5 -97q0 -69 -43.5 -119t-109 -82t-142 -47t-142.5 -15q-108 0 -196.5 40t-152 108.5t-98.5 160t-35 194.5q0 107 39.5 200.5t108 162.5t161 109t199.5 40
q68 0 133 -19t122 -53t104 -80t80 -101q4 -7 6.5 -14.5t2.5 -13.5q0 -11 -6.5 -24t-18.5 -24t-28.5 -18t-35.5 -7q-21 0 -34.5 6t-22.5 16t-14.5 21.5t-9.5 22.5q-3 8 -5 14.5t-7 11.5q-46 57 -115 90t-151 33q-74 0 -140 -28.5t-115 -78.5t-77.5 -118.5t-28.5 -147.5
q0 -59 14.5 -112t38 -95t52 -71t55.5 -40zM464 140q2 -1 29 -1q38 0 85 6t87.5 21t68 39t27.5 60q0 22 -13 42t-33 34.5t-44.5 23t-48.5 8.5q-33 0 -64 -13.5t-54.5 -36.5t-37.5 -55t-14 -68q0 -14 3 -27t6 -22q1 -4 2 -8.5t1 -2.5zM2064 520q0 -67 -13 -139.5t-42 -140
t-75.5 -126.5t-113.5 -99q-11 -5 -23 -8.5t-23 -3.5q-34 0 -56.5 20t-22.5 58q0 17 7 30.5t18 24t24 18.5t24 14q15 7 23 14q31 21 54.5 58.5t39 83t23 94.5t7.5 94q0 76 -29 142.5t-78 115.5t-114 77.5t-138 28.5q-74 0 -139.5 -29t-114 -79t-76.5 -117.5t-28 -143.5
q0 -45 7.5 -94.5t22 -95t37 -81.5t52.5 -53q42 -24 66 -47t24 -61q0 -32 -22 -50.5t-56 -18.5q-8 0 -18.5 2t-18.5 7q-72 39 -119 96t-74.5 124t-38.5 138.5t-11 138.5q0 105 39 196.5t107 160t161 107.5t200 39q73 0 143 -22t128 -56.5t101 -76t63 -80.5q6 11 22.5 31
t39.5 43.5t50.5 46t55.5 39.5q61 35 126.5 55t134.5 20q104 0 197 -40.5t163.5 -109.5t111.5 -161t41 -194q0 -101 -38.5 -193t-107 -162t-161.5 -111.5t-201 -41.5q-24 0 -61 3t-71.5 12t-59 26.5t-24.5 46.5q0 13 4.5 28.5t14.5 29t25.5 22t37.5 8.5q16 0 29.5 -6.5
t23.5 -13.5q6 -4 11 -7t10 -3q16 -4 31.5 -5.5t30.5 -1.5q72 0 136.5 30t113 81t77 118.5t28.5 141.5q0 77 -30 143t-80 114.5t-114.5 76t-134.5 27.5q-74 0 -138.5 -28t-113 -76.5t-77 -112.5t-30.5 -136zM3194 156q4 0 9.5 -1.5t8.5 -3.5q2 2 3 2q47 -19 91 -19
q63 0 119 21t101 59q58 65 91.5 139t33.5 148q0 66 -26.5 131.5t-73 118t-110.5 85t-139 32.5q-60 0 -124 -21.5t-118 -63.5q-63 -57 -92 -123t-33 -134q0 -21 2.5 -31.5t9.5 -27.5l3 -6q-5 -39 -26.5 -62t-72.5 -41q-38 11 -57 56q-8 35 -12.5 67t-4.5 61q0 89 37.5 174
t105 151t160.5 106.5t203 40.5q90 0 182 -33t167 -96.5t122 -156t47 -211.5q0 -56 -13 -113.5t-38 -111.5t-61.5 -102.5t-84.5 -86.5q-75 -54 -160 -78t-176 -24q-24 0 -55 2t-58.5 9.5t-46.5 23t-19 43.5q0 8 6 21.5t16.5 26.5t25.5 22.5t33 9.5q13 0 24 -3zM3236 1145
q11 0 12 -1v-1q2 1 4 1t4 1q7 1 14.5 2t16.5 1q46 0 65 -30t19 -56q0 -15 -6 -29.5t-16.5 -25.5t-24 -17.5t-28.5 -6.5q-40 0 -86.5 13t-92.5 39t-89 66t-76 93.5t-52.5 121.5t-19.5 151q0 64 18.5 128.5t54.5 124t89 111.5t121 90t151 60t180 22q150 0 275 -42t228 -120
q102 -77 182 -185q81 -110 236 -481q-195 299 -251 353q-28 28 -55 52t-55 45q-32 24 -66 47t-63 41q-18 11 -35 22t-32 22q-33 21 -74 38t-87 29.5t-96 19t-100 6.5q-124 0 -211.5 -34t-143 -89.5t-81.5 -125t-26 -141.5q0 -75 20 -130.5t49.5 -94t64 -60.5t63.5 -30z" />
    <glyph glyph-name="u1000_u1031_u102C_u1037_u103A" unicode="&#x1000;&#x1031;&#x102c;&#x1037;&#x103a;" horiz-adv-x="3948" 
d="M308 185q3 -16 4 -16t1 4v27q0 61 24 117t65.5 98t98 67t122.5 25q56 0 109.5 -18.5t95 -51t67 -77.5t25.5 -97q0 -69 -43.5 -119t-109 -82t-142 -47t-142.5 -15q-108 0 -196.5 40t-152 108.5t-98.5 160t-35 194.5q0 107 39.5 200.5t108 162.5t161 109t199.5 40
q68 0 133 -19t122 -53t104 -80t80 -101q4 -7 6.5 -14.5t2.5 -13.5q0 -11 -6.5 -24t-18.5 -24t-28.5 -18t-35.5 -7q-21 0 -34.5 6t-22.5 16t-14.5 21.5t-9.5 22.5q-3 8 -5 14.5t-7 11.5q-46 57 -115 90t-151 33q-74 0 -140 -28.5t-115 -78.5t-77.5 -118.5t-28.5 -147.5
q0 -59 14.5 -112t38 -95t52 -71t55.5 -40zM465 140q2 -1 29 -1q38 0 85 6t87.5 21t68 39t27.5 60q0 22 -13 42t-33 34.5t-44.5 23t-48.5 8.5q-33 0 -64 -13.5t-54.5 -36.5t-37.5 -55t-14 -68q0 -14 3 -27t6 -22q1 -4 2 -8.5t1 -2.5zM2065 520q0 -67 -13 -139.5t-42 -140
t-75.5 -126.5t-113.5 -99q-11 -5 -23 -8.5t-23 -3.5q-34 0 -56.5 20t-22.5 58q0 17 7 30.5t18 24t24 18.5t24 14q15 7 23 14q31 21 54.5 58.5t39 83t23 94.5t7.5 94q0 76 -29 142.5t-78 115.5t-114 77.5t-138 28.5q-74 0 -139.5 -29t-114 -79t-76.5 -117.5t-28 -143.5
q0 -45 7.5 -94.5t22 -95t37 -81.5t52.5 -53q42 -24 66 -47t24 -61q0 -32 -22 -50.5t-56 -18.5q-8 0 -18.5 2t-18.5 7q-72 39 -119 96t-74.5 124t-38.5 138.5t-11 138.5q0 105 39 196.5t107 160t161 107.5t200 39q73 0 143 -22t128 -56.5t101 -76t63 -80.5q6 11 22.5 31
t39.5 43.5t50.5 46t55.5 39.5q61 35 126.5 55t134.5 20q104 0 197 -40.5t163.5 -109.5t111.5 -161t41 -194q0 -101 -38.5 -193t-107 -162t-161.5 -111.5t-201 -41.5q-24 0 -61 3t-71.5 12t-59 26.5t-24.5 46.5q0 13 4.5 28.5t14.5 29t25.5 22t37.5 8.5q16 0 29.5 -6.5
t23.5 -13.5q6 -4 11 -7t10 -3q16 -4 31.5 -5.5t30.5 -1.5q72 0 136.5 30t113 81t77 118.5t28.5 141.5q0 77 -30 143t-80 114.5t-114.5 76t-134.5 27.5q-74 0 -138.5 -28t-113 -76.5t-77 -112.5t-30.5 -136zM3195 156q4 0 9.5 -1.5t8.5 -3.5q2 2 3 2q47 -19 91 -19
q63 0 119 21t101 59q58 65 91.5 139t33.5 148q0 66 -26.5 131.5t-73 118t-110.5 85t-139 32.5q-60 0 -124 -21.5t-118 -63.5q-63 -57 -92 -123t-33 -134q0 -21 2.5 -31.5t9.5 -27.5l3 -6q-5 -39 -26.5 -62t-72.5 -41q-38 11 -57 56q-8 35 -12.5 67t-4.5 61q0 89 37.5 174
t105 151t160.5 106.5t203 40.5q90 0 182 -33t167 -96.5t122 -156t47 -211.5q0 -56 -13 -113.5t-38 -111.5t-61.5 -102.5t-84.5 -86.5q-75 -54 -160 -78t-176 -24q-24 0 -55 2t-58.5 9.5t-46.5 23t-19 43.5q0 8 6 21.5t16.5 26.5t25.5 22.5t33 9.5q13 0 24 -3zM3236 1145
q11 0 12 -1v-1q2 1 4 1t4 1q7 1 14.5 2t16.5 1q46 0 65 -30t19 -56q0 -15 -6 -29.5t-16.5 -25.5t-24 -17.5t-28.5 -6.5q-40 0 -86.5 13t-92.5 39t-89 66t-76 93.5t-52.5 121.5t-19.5 151q0 64 18.5 128.5t54.5 124t89 111.5t121 90t151 60t180 22q150 0 275 -42t228 -120
q102 -77 182 -185q81 -110 236 -481q-195 299 -251 353q-28 28 -55 52t-55 45q-32 24 -66 47t-63 41q-18 11 -35 22t-32 22q-33 21 -74 38t-87 29.5t-96 19t-100 6.5q-124 0 -211.5 -34t-143 -89.5t-81.5 -125t-26 -141.5q0 -75 20 -130.5t49.5 -94t64 -60.5t63.5 -30z
M3465 -455q0 -80 -59 -139t-143 -59q-43 0 -80 15.5t-64 42.5t-42 63t-15 77q0 80 58 138q58 57 143 57q43 0 80 -15.5t64 -42.5t42.5 -62.5t15.5 -74.5zM3308 -455q0 20 -14 34t-31 14q-16 0 -30 -14t-14 -34q0 -23 14 -37t30 -14q17 0 31 14t14 37z" />
    <glyph glyph-name="u1000_u1036" unicode="&#x1000;&#x1036;" horiz-adv-x="2026" 
d="M1019 520q0 -67 -13 -139.5t-42 -140t-75.5 -126.5t-113.5 -99q-11 -5 -23 -8.5t-23 -3.5q-34 0 -56.5 20t-22.5 58q0 17 7 30.5t18 24t24 18.5t24 14q15 7 23 14q31 21 54.5 58.5t39 83t23 94.5t7.5 94q0 76 -29 142.5t-78 115.5t-114 77.5t-138 28.5q-74 0 -139.5 -29
t-114 -79t-76.5 -117.5t-28 -143.5q0 -45 7.5 -94.5t22 -95t37 -81.5t52.5 -53q42 -24 66 -47t24 -61q0 -32 -22 -50.5t-56 -18.5q-8 0 -18.5 2t-18.5 7q-72 39 -119 96t-74.5 124t-38.5 138.5t-11 138.5q0 105 39 196.5t107 160t161 107.5t200 39q73 0 143 -22t128 -56.5
t101 -76t63 -80.5q6 11 22.5 31t39.5 43.5t50.5 46t55.5 39.5q61 35 126.5 55t134.5 20q104 0 197 -40.5t163.5 -109.5t111.5 -161t41 -194q0 -101 -38.5 -193t-107 -162t-161.5 -111.5t-201 -41.5q-24 0 -61 3t-71.5 12t-59 26.5t-24.5 46.5q0 13 4.5 28.5t14.5 29t25.5 22
t37.5 8.5q16 0 29.5 -6.5t23.5 -13.5q6 -4 11 -7t10 -3q16 -4 31.5 -5.5t30.5 -1.5q72 0 136.5 30t113 81t77 118.5t28.5 141.5q0 77 -30 143t-80 114.5t-114.5 76t-134.5 27.5q-74 0 -138.5 -28t-113 -76.5t-77 -112.5t-30.5 -136zM1577 1482q0 -80 -59 -139t-143 -59
q-43 0 -79.5 15.5t-63.5 42.5t-42.5 63t-15.5 77q0 79 58 137t143 58q43 0 80 -15.5t64 -42.5t42.5 -62.5t15.5 -74.5zM1420 1482q0 20 -14 34t-31 14q-16 0 -30 -14t-14 -34q0 -23 14 -37t30 -14q17 0 31 14t14 37z" />
    <glyph glyph-name="u1000_u1036_u1037" unicode="&#x1000;&#x1036;&#x1037;" horiz-adv-x="2026" 
d="M1019 520q0 -67 -13 -139.5t-42 -140t-75.5 -126.5t-113.5 -99q-11 -5 -23 -8.5t-23 -3.5q-34 0 -56.5 20t-22.5 58q0 17 7 30.5t18 24t24 18.5t24 14q15 7 23 14q31 21 54.5 58.5t39 83t23 94.5t7.5 94q0 76 -29 142.5t-78 115.5t-114 77.5t-138 28.5q-74 0 -139.5 -29
t-114 -79t-76.5 -117.5t-28 -143.5q0 -45 7.5 -94.5t22 -95t37 -81.5t52.5 -53q42 -24 66 -47t24 -61q0 -32 -22 -50.5t-56 -18.5q-8 0 -18.5 2t-18.5 7q-72 39 -119 96t-74.5 124t-38.5 138.5t-11 138.5q0 105 39 196.5t107 160t161 107.5t200 39q73 0 143 -22t128 -56.5
t101 -76t63 -80.5q6 11 22.5 31t39.5 43.5t50.5 46t55.5 39.5q61 35 126.5 55t134.5 20q104 0 197 -40.5t163.5 -109.5t111.5 -161t41 -194q0 -101 -38.5 -193t-107 -162t-161.5 -111.5t-201 -41.5q-24 0 -61 3t-71.5 12t-59 26.5t-24.5 46.5q0 13 4.5 28.5t14.5 29t25.5 22
t37.5 8.5q16 0 29.5 -6.5t23.5 -13.5q6 -4 11 -7t10 -3q16 -4 31.5 -5.5t30.5 -1.5q72 0 136.5 30t113 81t77 118.5t28.5 141.5q0 77 -30 143t-80 114.5t-114.5 76t-134.5 27.5q-74 0 -138.5 -28t-113 -76.5t-77 -112.5t-30.5 -136zM1577 1482q0 -80 -59 -139t-143 -59
q-43 0 -79.5 15.5t-63.5 42.5t-42.5 63t-15.5 77q0 79 58 137t143 58q43 0 80 -15.5t64 -42.5t42.5 -62.5t15.5 -74.5zM1420 1482q0 20 -14 34t-31 14q-16 0 -30 -14t-14 -34q0 -23 14 -37t30 -14q17 0 31 14t14 37zM1583 -455q0 -80 -59 -139t-143 -59q-43 0 -80 15.5
t-64 42.5t-42 63t-15 77q0 80 58 138q58 57 143 57q43 0 80 -15.5t64 -42.5t42.5 -62.5t15.5 -74.5zM1426 -455q0 20 -14 34t-31 14q-16 0 -30 -14t-14 -34q0 -23 14 -37t30 -14q17 0 31 14t14 37z" />
    <glyph glyph-name="u1000_u102D_u102F" unicode="&#x1000;&#x102d;&#x102f;" horiz-adv-x="2027" 
d="M1019 520q0 -67 -13 -139.5t-42 -140t-75.5 -126.5t-113.5 -99q-11 -5 -23 -8.5t-23 -3.5q-34 0 -56.5 20t-22.5 58q0 17 7 30.5t18 24t24 18.5t24 14q15 7 23 14q31 21 54.5 58.5t39 83t23 94.5t7.5 94q0 76 -29 142.5t-78 115.5t-114 77.5t-138 28.5q-74 0 -139.5 -29
t-114 -79t-76.5 -117.5t-28 -143.5q0 -45 7.5 -94.5t22 -95t37 -81.5t52.5 -53q42 -24 66 -47t24 -61q0 -32 -22 -50.5t-56 -18.5q-8 0 -18.5 2t-18.5 7q-72 39 -119 96t-74.5 124t-38.5 138.5t-11 138.5q0 105 39 196.5t107 160t161 107.5t200 39q73 0 143 -22t128 -56.5
t101 -76t63 -80.5q6 11 22.5 31t39.5 43.5t50.5 46t55.5 39.5q61 35 126.5 55t134.5 20q104 0 197 -40.5t163.5 -109.5t111.5 -161t41 -194q0 -101 -38.5 -193t-107 -162t-161.5 -111.5t-201 -41.5q-24 0 -61 3t-71.5 12t-59 26.5t-24.5 46.5q0 13 4.5 28.5t14.5 29t25.5 22
t37.5 8.5q16 0 29.5 -6.5t23.5 -13.5q6 -4 11 -7t10 -3q16 -4 31.5 -5.5t30.5 -1.5q72 0 136.5 30t113 81t77 118.5t28.5 141.5q0 77 -30 143t-80 114.5t-114.5 76t-134.5 27.5q-74 0 -138.5 -28t-113 -76.5t-77 -112.5t-30.5 -136zM1391 18q40 0 60 -32q19 -31 19 -61v-811
h627l7 4q7 3 16 9t17.5 16.5t14 26t5.5 36.5q0 74 -48 115q-46 40 -115 40q-41 0 -195 -35q124 97 173 112t92 15q44 0 86.5 -14.5t76 -44.5t54 -76.5t20.5 -111.5q0 -62 -24 -107.5t-57.5 -75t-68.5 -44t-57 -14.5h-708q-34 0 -58 32q-24 31 -24 68v769q0 17 -14 34
q-13 16 -13 59q0 57 33 74q34 17 81 17zM1860 1538q0 -99 -37.5 -186t-103 -152.5t-154 -103t-190.5 -37.5t-190.5 37.5t-153.5 103t-102 152.5t-38 186q1 99 38 186.5t102 152.5t153.5 102.5t190.5 38.5q103 -1 191 -38.5t153.5 -102.5t102.5 -152.5t38 -186.5zM1712 1538
q0 72 -27 134.5t-73 108.5t-107 72.5t-130 26.5t-130 -26.5t-107 -72.5t-72.5 -108.5t-26.5 -134.5t26.5 -134.5t72.5 -108.5t107 -72.5t130 -26.5t130 26.5t107 72.5t73 108.5t27 134.5z" />
    <glyph glyph-name="u1000_u102D_u102F_u1037" unicode="&#x1000;&#x102d;&#x102f;&#x1037;" horiz-adv-x="2027" 
d="M1019 520q0 -67 -13 -139.5t-42 -140t-75.5 -126.5t-113.5 -99q-11 -5 -23 -8.5t-23 -3.5q-34 0 -56.5 20t-22.5 58q0 17 7 30.5t18 24t24 18.5t24 14q15 7 23 14q31 21 54.5 58.5t39 83t23 94.5t7.5 94q0 76 -29 142.5t-78 115.5t-114 77.5t-138 28.5q-74 0 -139.5 -29
t-114 -79t-76.5 -117.5t-28 -143.5q0 -45 7.5 -94.5t22 -95t37 -81.5t52.5 -53q42 -24 66 -47t24 -61q0 -32 -22 -50.5t-56 -18.5q-8 0 -18.5 2t-18.5 7q-72 39 -119 96t-74.5 124t-38.5 138.5t-11 138.5q0 105 39 196.5t107 160t161 107.5t200 39q73 0 143 -22t128 -56.5
t101 -76t63 -80.5q6 11 22.5 31t39.5 43.5t50.5 46t55.5 39.5q61 35 126.5 55t134.5 20q104 0 197 -40.5t163.5 -109.5t111.5 -161t41 -194q0 -101 -38.5 -193t-107 -162t-161.5 -111.5t-201 -41.5q-24 0 -61 3t-71.5 12t-59 26.5t-24.5 46.5q0 13 4.5 28.5t14.5 29t25.5 22
t37.5 8.5q16 0 29.5 -6.5t23.5 -13.5q6 -4 11 -7t10 -3q16 -4 31.5 -5.5t30.5 -1.5q72 0 136.5 30t113 81t77 118.5t28.5 141.5q0 77 -30 143t-80 114.5t-114.5 76t-134.5 27.5q-74 0 -138.5 -28t-113 -76.5t-77 -112.5t-30.5 -136zM1391 18q40 0 60 -32q19 -31 19 -61v-811
h627l7 4q7 3 16 9t17.5 16.5t14 26t5.5 36.5q0 74 -48 115q-46 40 -115 40q-41 0 -195 -35q124 97 173 112t92 15q44 0 86.5 -14.5t76 -44.5t54 -76.5t20.5 -111.5q0 -62 -24 -107.5t-57.5 -75t-68.5 -44t-57 -14.5h-708q-34 0 -58 32q-24 31 -24 68v769q0 17 -14 34
q-13 16 -13 59q0 57 33 74q34 17 81 17zM1860 1538q0 -99 -37.5 -186t-103 -152.5t-154 -103t-190.5 -37.5t-190.5 37.5t-153.5 103t-102 152.5t-38 186q1 99 38 186.5t102 152.5t153.5 102.5t190.5 38.5q103 -1 191 -38.5t153.5 -102.5t102.5 -152.5t38 -186.5zM1712 1538
q0 72 -27 134.5t-73 108.5t-107 72.5t-130 26.5t-130 -26.5t-107 -72.5t-72.5 -108.5t-26.5 -134.5t26.5 -134.5t72.5 -108.5t107 -72.5t130 -26.5t130 26.5t107 72.5t73 108.5t27 134.5zM1979 -295q0 -80 -59 -139t-143 -59q-43 0 -80 15.5t-64 42.5t-42 63t-15 77
q0 80 58 138q58 57 143 57q43 0 80 -15.5t64 -42.5t42.5 -62.5t15.5 -74.5zM1822 -295q0 20 -14 34t-31 14q-16 0 -30 -14t-14 -34q0 -23 14 -37t30 -14q17 0 31 14t14 37z" />
    <glyph glyph-name="u1000_u102F_u1036" unicode="&#x1000;&#x102f;&#x1036;" horiz-adv-x="2022" 
d="M1019 520q0 -67 -13 -139.5t-42 -140t-75.5 -126.5t-113.5 -99q-11 -5 -23 -8.5t-23 -3.5q-34 0 -56.5 20t-22.5 58q0 17 7 30.5t18 24t24 18.5t24 14q15 7 23 14q31 21 54.5 58.5t39 83t23 94.5t7.5 94q0 76 -29 142.5t-78 115.5t-114 77.5t-138 28.5q-74 0 -139.5 -29
t-114 -79t-76.5 -117.5t-28 -143.5q0 -45 7.5 -94.5t22 -95t37 -81.5t52.5 -53q42 -24 66 -47t24 -61q0 -32 -22 -50.5t-56 -18.5q-8 0 -18.5 2t-18.5 7q-72 39 -119 96t-74.5 124t-38.5 138.5t-11 138.5q0 105 39 196.5t107 160t161 107.5t200 39q73 0 143 -22t128 -56.5
t101 -76t63 -80.5q6 11 22.5 31t39.5 43.5t50.5 46t55.5 39.5q61 35 126.5 55t134.5 20q104 0 197 -40.5t163.5 -109.5t111.5 -161t41 -194q0 -101 -38.5 -193t-107 -162t-161.5 -111.5t-201 -41.5q-24 0 -61 3t-71.5 12t-59 26.5t-24.5 46.5q0 13 4.5 28.5t14.5 29t25.5 22
t37.5 8.5q16 0 29.5 -6.5t23.5 -13.5q6 -4 11 -7t10 -3q16 -4 31.5 -5.5t30.5 -1.5q72 0 136.5 30t113 81t77 118.5t28.5 141.5q0 77 -30 143t-80 114.5t-114.5 76t-134.5 27.5q-74 0 -138.5 -28t-113 -76.5t-77 -112.5t-30.5 -136zM1391 18q40 0 60 -32q19 -31 19 -61v-811
h627l7 4q7 3 16 9t17.5 16.5t14 26t5.5 36.5q0 74 -48 115q-46 40 -115 40q-41 0 -195 -35q124 97 173 112t92 15q44 0 86.5 -14.5t76 -44.5t54 -76.5t20.5 -111.5q0 -62 -24 -107.5t-57.5 -75t-68.5 -44t-57 -14.5h-708q-34 0 -58 32q-24 31 -24 68v769q0 17 -14 34
q-13 16 -13 59q0 57 33 74q34 17 81 17zM1577 1482q0 -80 -59 -139t-143 -59q-43 0 -79.5 15.5t-63.5 42.5t-42.5 63t-15.5 77q0 79 58 137t143 58q43 0 80 -15.5t64 -42.5t42.5 -62.5t15.5 -74.5zM1420 1482q0 20 -14 34t-31 14q-16 0 -30 -14t-14 -34q0 -23 14 -37t30 -14
q17 0 31 14t14 37z" />
    <glyph glyph-name="u1000_u102F_u1036_u1037" unicode="&#x1000;&#x102f;&#x1036;&#x1037;" horiz-adv-x="2027" 
d="M1019 520q0 -67 -13 -139.5t-42 -140t-75.5 -126.5t-113.5 -99q-11 -5 -23 -8.5t-23 -3.5q-34 0 -56.5 20t-22.5 58q0 17 7 30.5t18 24t24 18.5t24 14q15 7 23 14q31 21 54.5 58.5t39 83t23 94.5t7.5 94q0 76 -29 142.5t-78 115.5t-114 77.5t-138 28.5q-74 0 -139.5 -29
t-114 -79t-76.5 -117.5t-28 -143.5q0 -45 7.5 -94.5t22 -95t37 -81.5t52.5 -53q42 -24 66 -47t24 -61q0 -32 -22 -50.5t-56 -18.5q-8 0 -18.5 2t-18.5 7q-72 39 -119 96t-74.5 124t-38.5 138.5t-11 138.5q0 105 39 196.5t107 160t161 107.5t200 39q73 0 143 -22t128 -56.5
t101 -76t63 -80.5q6 11 22.5 31t39.5 43.5t50.5 46t55.5 39.5q61 35 126.5 55t134.5 20q104 0 197 -40.5t163.5 -109.5t111.5 -161t41 -194q0 -101 -38.5 -193t-107 -162t-161.5 -111.5t-201 -41.5q-24 0 -61 3t-71.5 12t-59 26.5t-24.5 46.5q0 13 4.5 28.5t14.5 29t25.5 22
t37.5 8.5q16 0 29.5 -6.5t23.5 -13.5q6 -4 11 -7t10 -3q16 -4 31.5 -5.5t30.5 -1.5q72 0 136.5 30t113 81t77 118.5t28.5 141.5q0 77 -30 143t-80 114.5t-114.5 76t-134.5 27.5q-74 0 -138.5 -28t-113 -76.5t-77 -112.5t-30.5 -136zM1391 18q40 0 60 -32q19 -31 19 -61v-811
h627l7 4q7 3 16 9t17.5 16.5t14 26t5.5 36.5q0 74 -48 115q-46 40 -115 40q-41 0 -195 -35q124 97 173 112t92 15q44 0 86.5 -14.5t76 -44.5t54 -76.5t20.5 -111.5q0 -62 -24 -107.5t-57.5 -75t-68.5 -44t-57 -14.5h-708q-34 0 -58 32q-24 31 -24 68v769q0 17 -14 34
q-13 16 -13 59q0 57 33 74q34 17 81 17zM1577 1482q0 -80 -59 -139t-143 -59q-43 0 -79.5 15.5t-63.5 42.5t-42.5 63t-15.5 77q0 79 58 137t143 58q43 0 80 -15.5t64 -42.5t42.5 -62.5t15.5 -74.5zM1420 1482q0 20 -14 34t-31 14q-16 0 -30 -14t-14 -34q0 -23 14 -37t30 -14
q17 0 31 14t14 37zM1979 -295q0 -80 -59 -139t-143 -59q-43 0 -80 15.5t-64 42.5t-42 63t-15 77q0 80 58 138q58 57 143 57q43 0 80 -15.5t64 -42.5t42.5 -62.5t15.5 -74.5zM1822 -295q0 20 -14 34t-31 14q-16 0 -30 -14t-14 -34q0 -23 14 -37t30 -14q17 0 31 14t14 37z" />
    <glyph glyph-name="u1000_u103B" unicode="&#x1000;&#x103b;" horiz-adv-x="2348" 
d="M1019 520q0 -67 -13 -139.5t-42 -140t-75.5 -126.5t-113.5 -99q-11 -5 -23 -8.5t-23 -3.5q-34 0 -56.5 20t-22.5 58q0 17 7 30.5t18 24t24 18.5t24 14q15 7 23 14q31 21 54.5 58.5t39 83t23 94.5t7.5 94q0 76 -29 142.5t-78 115.5t-114 77.5t-138 28.5q-74 0 -139.5 -29
t-114 -79t-76.5 -117.5t-28 -143.5q0 -45 7.5 -94.5t22 -95t37 -81.5t52.5 -53q42 -24 66 -47t24 -61q0 -32 -22 -50.5t-56 -18.5q-8 0 -18.5 2t-18.5 7q-72 39 -119 96t-74.5 124t-38.5 138.5t-11 138.5q0 105 39 196.5t107 160t161 107.5t200 39q73 0 143 -22t128 -56.5
t101 -76t63 -80.5q6 11 22.5 31t39.5 43.5t50.5 46t55.5 39.5q61 35 126.5 55t134.5 20q104 0 197 -40.5t163.5 -109.5t111.5 -161t41 -194q0 -101 -38.5 -193t-107 -162t-161.5 -111.5t-201 -41.5q-24 0 -61 3t-71.5 12t-59 26.5t-24.5 46.5q0 13 4.5 28.5t14.5 29t25.5 22
t37.5 8.5q16 0 29.5 -6.5t23.5 -13.5q6 -4 11 -7t10 -3q16 -4 31.5 -5.5t30.5 -1.5q72 0 136.5 30t113 81t77 118.5t28.5 141.5q0 77 -30 143t-80 114.5t-114.5 76t-134.5 27.5q-74 0 -138.5 -28t-113 -76.5t-77 -112.5t-30.5 -136zM1490 -692v131.5t-1 121.5
q0 48 -0.5 89.5t-0.5 78.5v196q0 18 6.5 35t20 30.5t33 21.5t45.5 8q31 0 68 -17q36 -17 36 -67q0 -30 -8 -49t-16 -33q-5 -9 -9 -17.5t-3 -16.5v-448q0 -27 2.5 -58t10.5 -62t22 -59.5t36 -50t54.5 -34.5t76.5 -12h219q8 0 16 7t14.5 17.5t10.5 23.5t4 25t-1 14
q-12 43 -27 120.5t-27.5 175t-21.5 207.5t-9 218v945q0 17 -18 37q-18 19 -18 65q0 55 32 75t72 20q52 0 76 -28.5t24 -66.5v-21.5t1 -45.5t2 -275t2 -709q0 -99 8 -202t22 -202.5t32 -191t38 -165.5q1 -5 1.5 -12.5t0.5 -16.5q0 -31 -16 -61.5t-42 -54.5t-58 -39t-63 -15
h-335q-79 0 -137.5 36.5t-97.5 90.5t-58 117.5t-19 123.5z" />
    <glyph glyph-name="u1000_u103B_u102C" unicode="&#x1000;&#x103b;&#x102c;" horiz-adv-x="3283" 
d="M1019 520q0 -67 -13 -139.5t-42 -140t-75.5 -126.5t-113.5 -99q-11 -5 -23 -8.5t-23 -3.5q-34 0 -56.5 20t-22.5 58q0 17 7 30.5t18 24t24 18.5t24 14q15 7 23 14q31 21 54.5 58.5t39 83t23 94.5t7.5 94q0 76 -29 142.5t-78 115.5t-114 77.5t-138 28.5q-74 0 -139.5 -29
t-114 -79t-76.5 -117.5t-28 -143.5q0 -45 7.5 -94.5t22 -95t37 -81.5t52.5 -53q42 -24 66 -47t24 -61q0 -32 -22 -50.5t-56 -18.5q-8 0 -18.5 2t-18.5 7q-72 39 -119 96t-74.5 124t-38.5 138.5t-11 138.5q0 105 39 196.5t107 160t161 107.5t200 39q73 0 143 -22t128 -56.5
t101 -76t63 -80.5q6 11 22.5 31t39.5 43.5t50.5 46t55.5 39.5q61 35 126.5 55t134.5 20q104 0 197 -40.5t163.5 -109.5t111.5 -161t41 -194q0 -101 -38.5 -193t-107 -162t-161.5 -111.5t-201 -41.5q-24 0 -61 3t-71.5 12t-59 26.5t-24.5 46.5q0 13 4.5 28.5t14.5 29t25.5 22
t37.5 8.5q16 0 29.5 -6.5t23.5 -13.5q6 -4 11 -7t10 -3q16 -4 31.5 -5.5t30.5 -1.5q72 0 136.5 30t113 81t77 118.5t28.5 141.5q0 77 -30 143t-80 114.5t-114.5 76t-134.5 27.5q-74 0 -138.5 -28t-113 -76.5t-77 -112.5t-30.5 -136zM1490 -692v131.5t-1 121.5
q0 48 -0.5 89.5t-0.5 78.5v196q0 18 6.5 35t20 30.5t33 21.5t45.5 8q31 0 68 -17q36 -17 36 -67q0 -30 -8 -49t-16 -33q-5 -9 -9 -17.5t-3 -16.5v-448q0 -27 2.5 -58t10.5 -62t22 -59.5t36 -50t54.5 -34.5t76.5 -12h219q8 0 16 7t14.5 17.5t10.5 23.5t4 25t-1 14
q-12 43 -27 120.5t-27.5 175t-21.5 207.5t-9 218v945q0 17 -18 37q-18 19 -18 65q0 55 32 75t72 20q52 0 76 -28.5t24 -66.5v-16q1 -26 2 -84t1 -148q0 -49 0.5 -108.5t0.5 -131.5q0 -51 0.5 -116.5t0.5 -139v-152v-155.5q0 -99 8 -202t22 -202.5t32 -191t38 -165.5
q1 -5 1.5 -12.5t0.5 -16.5q0 -31 -16 -61.5t-42 -54.5t-58 -39t-63 -15h-335q-79 0 -137.5 36.5t-97.5 90.5t-58 117.5t-19 123.5zM2543 156q4 0 9.5 -1.5t8.5 -3.5q2 2 3 2q47 -19 91 -19q63 0 119 21t101 59q58 65 91.5 139t33.5 148q0 66 -26.5 131.5t-73 118t-110.5 85
t-139 32.5q-60 0 -124 -21.5t-118 -63.5q-63 -57 -92 -123t-33 -134q0 -21 2.5 -31.5t9.5 -27.5l3 -6q-5 -39 -26.5 -62t-72.5 -41q-38 11 -57 56q-8 35 -12.5 67t-4.5 61q0 89 37.5 174t105 151t160.5 106.5t203 40.5q90 0 182 -33t167 -96.5t122 -156t47 -211.5
q0 -56 -13 -113.5t-38 -111.5t-61.5 -102.5t-84.5 -86.5q-75 -54 -160 -78t-176 -24q-24 0 -55 2t-58.5 9.5t-46.5 23t-19 43.5q0 8 6 21.5t16.5 26.5t25.5 22.5t33 9.5q13 0 24 -3z" />
    <glyph glyph-name="u1000_u103B_u102C_u1037" unicode="&#x1000;&#x103b;&#x102c;&#x1037;" horiz-adv-x="3289" 
d="M1019 520q0 -67 -13 -139.5t-42 -140t-75.5 -126.5t-113.5 -99q-11 -5 -23 -8.5t-23 -3.5q-34 0 -56.5 20t-22.5 58q0 17 7 30.5t18 24t24 18.5t24 14q15 7 23 14q31 21 54.5 58.5t39 83t23 94.5t7.5 94q0 76 -29 142.5t-78 115.5t-114 77.5t-138 28.5q-74 0 -139.5 -29
t-114 -79t-76.5 -117.5t-28 -143.5q0 -45 7.5 -94.5t22 -95t37 -81.5t52.5 -53q42 -24 66 -47t24 -61q0 -32 -22 -50.5t-56 -18.5q-8 0 -18.5 2t-18.5 7q-72 39 -119 96t-74.5 124t-38.5 138.5t-11 138.5q0 105 39 196.5t107 160t161 107.5t200 39q73 0 143 -22t128 -56.5
t101 -76t63 -80.5q6 11 22.5 31t39.5 43.5t50.5 46t55.5 39.5q61 35 126.5 55t134.5 20q104 0 197 -40.5t163.5 -109.5t111.5 -161t41 -194q0 -101 -38.5 -193t-107 -162t-161.5 -111.5t-201 -41.5q-24 0 -61 3t-71.5 12t-59 26.5t-24.5 46.5q0 13 4.5 28.5t14.5 29t25.5 22
t37.5 8.5q16 0 29.5 -6.5t23.5 -13.5q6 -4 11 -7t10 -3q16 -4 31.5 -5.5t30.5 -1.5q72 0 136.5 30t113 81t77 118.5t28.5 141.5q0 77 -30 143t-80 114.5t-114.5 76t-134.5 27.5q-74 0 -138.5 -28t-113 -76.5t-77 -112.5t-30.5 -136zM1490 -692v131.5t-1 121.5
q0 48 -0.5 89.5t-0.5 78.5v196q0 18 6.5 35t20 30.5t33 21.5t45.5 8q31 0 68 -17q36 -17 36 -67q0 -30 -8 -49t-16 -33q-5 -9 -9 -17.5t-3 -16.5v-448q0 -27 2.5 -58t10.5 -62t22 -59.5t36 -50t54.5 -34.5t76.5 -12h219q8 0 16 7t14.5 17.5t10.5 23.5t4 25t-1 14
q-12 43 -27 120.5t-27.5 175t-21.5 207.5t-9 218v945q0 17 -18 37q-18 19 -18 65q0 55 32 75t72 20q52 0 76 -28.5t24 -66.5v-16q1 -26 2 -84t1 -148q0 -49 0.5 -108.5t0.5 -131.5q0 -51 0.5 -116.5t0.5 -139v-152v-155.5q0 -99 8 -202t22 -202.5t32 -191t38 -165.5
q1 -5 1.5 -12.5t0.5 -16.5q0 -31 -16 -61.5t-42 -54.5t-58 -39t-63 -15h-335q-79 0 -137.5 36.5t-97.5 90.5t-58 117.5t-19 123.5zM2543 156q4 0 9.5 -1.5t8.5 -3.5q2 2 3 2q47 -19 91 -19q63 0 119 21t101 59q58 65 91.5 139t33.5 148q0 66 -26.5 131.5t-73 118t-110.5 85
t-139 32.5q-60 0 -124 -21.5t-118 -63.5q-63 -57 -92 -123t-33 -134q0 -21 2.5 -31.5t9.5 -27.5l3 -6q-5 -39 -26.5 -62t-72.5 -41q-38 11 -57 56q-8 35 -12.5 67t-4.5 61q0 89 37.5 174t105 151t160.5 106.5t203 40.5q90 0 182 -33t167 -96.5t122 -156t47 -211.5
q0 -56 -13 -113.5t-38 -111.5t-61.5 -102.5t-84.5 -86.5q-75 -54 -160 -78t-176 -24q-24 0 -55 2t-58.5 9.5t-46.5 23t-19 43.5q0 8 6 21.5t16.5 26.5t25.5 22.5t33 9.5q13 0 24 -3zM2821 -455q0 -80 -59 -139t-143 -59q-43 0 -80 15.5t-64 42.5t-42 63t-15 77q0 80 58 138
q58 57 143 57q43 0 80 -15.5t64 -42.5t42.5 -62.5t15.5 -74.5zM2664 -455q0 20 -14 34t-31 14q-16 0 -30 -14t-14 -34q0 -23 14 -37t30 -14q17 0 31 14t14 37z" />
    <glyph glyph-name="u1000_u103B_u102D" unicode="&#x1000;&#x103b;&#x102d;" horiz-adv-x="2354" 
d="M1019 520q0 -67 -13 -139.5t-42 -140t-75.5 -126.5t-113.5 -99q-11 -5 -23 -8.5t-23 -3.5q-34 0 -56.5 20t-22.5 58q0 17 7 30.5t18 24t24 18.5t24 14q15 7 23 14q31 21 54.5 58.5t39 83t23 94.5t7.5 94q0 76 -29 142.5t-78 115.5t-114 77.5t-138 28.5q-74 0 -139.5 -29
t-114 -79t-76.5 -117.5t-28 -143.5q0 -45 7.5 -94.5t22 -95t37 -81.5t52.5 -53q42 -24 66 -47t24 -61q0 -32 -22 -50.5t-56 -18.5q-8 0 -18.5 2t-18.5 7q-72 39 -119 96t-74.5 124t-38.5 138.5t-11 138.5q0 105 39 196.5t107 160t161 107.5t200 39q73 0 143 -22t128 -56.5
t101 -76t63 -80.5q6 11 22.5 31t39.5 43.5t50.5 46t55.5 39.5q61 35 126.5 55t134.5 20q104 0 197 -40.5t163.5 -109.5t111.5 -161t41 -194q0 -101 -38.5 -193t-107 -162t-161.5 -111.5t-201 -41.5q-24 0 -61 3t-71.5 12t-59 26.5t-24.5 46.5q0 13 4.5 28.5t14.5 29t25.5 22
t37.5 8.5q16 0 29.5 -6.5t23.5 -13.5q6 -4 11 -7t10 -3q16 -4 31.5 -5.5t30.5 -1.5q72 0 136.5 30t113 81t77 118.5t28.5 141.5q0 77 -30 143t-80 114.5t-114.5 76t-134.5 27.5q-74 0 -138.5 -28t-113 -76.5t-77 -112.5t-30.5 -136zM1490 -692v131.5t-1 121.5
q0 48 -0.5 89.5t-0.5 78.5v196q0 18 6.5 35t20 30.5t33 21.5t45.5 8q31 0 68 -17q36 -17 36 -67q0 -30 -8 -49t-16 -33q-5 -9 -9 -17.5t-3 -16.5v-448q0 -27 2.5 -58t10.5 -62t22 -59.5t36 -50t54.5 -34.5t76.5 -12h219q8 0 16 7t14.5 17.5t10.5 23.5t4 25t-1 14
q-12 43 -27 120.5t-27.5 175t-21.5 207.5t-9 218v945q0 17 -18 37q-18 19 -18 65q0 55 32 75t72 20q52 0 76 -28.5t24 -66.5v-21.5t1 -45.5t2 -275t2 -709q0 -99 8 -202t22 -202.5t32 -191t38 -165.5q1 -5 1.5 -12.5t0.5 -16.5q0 -31 -16 -61.5t-42 -54.5t-58 -39t-63 -15
h-335q-79 0 -137.5 36.5t-97.5 90.5t-58 117.5t-19 123.5zM2320 1538q0 -99 -37.5 -186t-103 -152.5t-154 -103t-190.5 -37.5t-190.5 37.5t-153.5 103t-102 152.5t-38 186q1 99 38 186.5t102 152.5t153.5 102.5t190.5 38.5q103 -1 191 -38.5t153.5 -102.5t102.5 -152.5
t38 -186.5zM2172 1538q0 72 -27 134.5t-73 108.5t-107 72.5t-130 26.5t-130 -26.5t-107 -72.5t-72.5 -108.5t-26.5 -134.5t26.5 -134.5t72.5 -108.5t107 -72.5t130 -26.5t130 26.5t107 72.5t73 108.5t27 134.5z" />
    <glyph glyph-name="u1000_u103B_u102E" unicode="&#x1000;&#x103b;&#x102e;" horiz-adv-x="2353" 
d="M1019 520q0 -67 -13 -139.5t-42 -140t-75.5 -126.5t-113.5 -99q-11 -5 -23 -8.5t-23 -3.5q-34 0 -56.5 20t-22.5 58q0 17 7 30.5t18 24t24 18.5t24 14q15 7 23 14q31 21 54.5 58.5t39 83t23 94.5t7.5 94q0 76 -29 142.5t-78 115.5t-114 77.5t-138 28.5q-74 0 -139.5 -29
t-114 -79t-76.5 -117.5t-28 -143.5q0 -45 7.5 -94.5t22 -95t37 -81.5t52.5 -53q42 -24 66 -47t24 -61q0 -32 -22 -50.5t-56 -18.5q-8 0 -18.5 2t-18.5 7q-72 39 -119 96t-74.5 124t-38.5 138.5t-11 138.5q0 105 39 196.5t107 160t161 107.5t200 39q73 0 143 -22t128 -56.5
t101 -76t63 -80.5q6 11 22.5 31t39.5 43.5t50.5 46t55.5 39.5q61 35 126.5 55t134.5 20q104 0 197 -40.5t163.5 -109.5t111.5 -161t41 -194q0 -101 -38.5 -193t-107 -162t-161.5 -111.5t-201 -41.5q-24 0 -61 3t-71.5 12t-59 26.5t-24.5 46.5q0 13 4.5 28.5t14.5 29t25.5 22
t37.5 8.5q16 0 29.5 -6.5t23.5 -13.5q6 -4 11 -7t10 -3q16 -4 31.5 -5.5t30.5 -1.5q72 0 136.5 30t113 81t77 118.5t28.5 141.5q0 77 -30 143t-80 114.5t-114.5 76t-134.5 27.5q-74 0 -138.5 -28t-113 -76.5t-77 -112.5t-30.5 -136zM1490 -692v131.5t-1 121.5
q0 48 -0.5 89.5t-0.5 78.5v196q0 18 6.5 35t20 30.5t33 21.5t45.5 8q31 0 68 -17q36 -17 36 -67q0 -30 -8 -49t-16 -33q-5 -9 -9 -17.5t-3 -16.5v-448q0 -27 2.5 -58t10.5 -62t22 -59.5t36 -50t54.5 -34.5t76.5 -12h219q8 0 16 7t14.5 17.5t10.5 23.5t4 25t-1 14
q-12 43 -27 120.5t-27.5 175t-21.5 207.5t-9 218v945q0 17 -18 37q-18 19 -18 65q0 55 32 75t72 20q52 0 76 -28.5t24 -66.5v-21.5t1 -45.5t2 -275t2 -709q0 -99 8 -202t22 -202.5t32 -191t38 -165.5q1 -5 1.5 -12.5t0.5 -16.5q0 -31 -16 -61.5t-42 -54.5t-58 -39t-63 -15
h-335q-79 0 -137.5 36.5t-97.5 90.5t-58 117.5t-19 123.5zM2322 1536q-1 -99 -38 -186.5t-102.5 -152.5t-153.5 -102.5t-191 -38.5q-103 1 -191 38.5t-153.5 102.5t-102.5 152.5t-38 186.5q1 99 38 186.5t102.5 152.5t153.5 102.5t191 38.5q103 -1 191 -38.5t153.5 -102.5
t102.5 -152.5t38 -186.5zM1561 1333q2 8 25 22.5t61 31.5q41 19 90.5 29t104.5 10q53 0 101 -9.5t87 -27.5q37 -17 60 -30t26 -21q12 14 34 70q11 29 17.5 62.5t6.5 65.5q0 72 -27 134.5t-73 108.5t-107 72.5t-130 26.5t-130 -26.5t-107 -72.5t-73 -108.5t-27 -134.5
q0 -34 7 -68t19 -64q14 -30 22.5 -48t12.5 -23zM1980 1245q0 20 -38 37.5t-100 17.5q-32 0 -58 -5t-44.5 -12.5t-29 -17.5t-10.5 -20q0 -18 39.5 -34.5t102.5 -16.5t100.5 16.5t37.5 34.5z" />
    <glyph glyph-name="u1000_u103B_u102E_u1037" unicode="&#x1000;&#x103b;&#x102e;&#x1037;" horiz-adv-x="2354" 
d="M1019 520q0 -67 -13 -139.5t-42 -140t-75.5 -126.5t-113.5 -99q-11 -5 -23 -8.5t-23 -3.5q-34 0 -56.5 20t-22.5 58q0 17 7 30.5t18 24t24 18.5t24 14q15 7 23 14q31 21 54.5 58.5t39 83t23 94.5t7.5 94q0 76 -29 142.5t-78 115.5t-114 77.5t-138 28.5q-74 0 -139.5 -29
t-114 -79t-76.5 -117.5t-28 -143.5q0 -45 7.5 -94.5t22 -95t37 -81.5t52.5 -53q42 -24 66 -47t24 -61q0 -32 -22 -50.5t-56 -18.5q-8 0 -18.5 2t-18.5 7q-72 39 -119 96t-74.5 124t-38.5 138.5t-11 138.5q0 105 39 196.5t107 160t161 107.5t200 39q73 0 143 -22t128 -56.5
t101 -76t63 -80.5q6 11 22.5 31t39.5 43.5t50.5 46t55.5 39.5q61 35 126.5 55t134.5 20q104 0 197 -40.5t163.5 -109.5t111.5 -161t41 -194q0 -101 -38.5 -193t-107 -162t-161.5 -111.5t-201 -41.5q-24 0 -61 3t-71.5 12t-59 26.5t-24.5 46.5q0 13 4.5 28.5t14.5 29t25.5 22
t37.5 8.5q16 0 29.5 -6.5t23.5 -13.5q6 -4 11 -7t10 -3q16 -4 31.5 -5.5t30.5 -1.5q72 0 136.5 30t113 81t77 118.5t28.5 141.5q0 77 -30 143t-80 114.5t-114.5 76t-134.5 27.5q-74 0 -138.5 -28t-113 -76.5t-77 -112.5t-30.5 -136zM1490 -692v131.5t-1 121.5
q0 48 -0.5 89.5t-0.5 78.5v196q0 18 6.5 35t20 30.5t33 21.5t45.5 8q31 0 68 -17q36 -17 36 -67q0 -30 -8 -49t-16 -33q-5 -9 -9 -17.5t-3 -16.5v-448q0 -27 2.5 -58t10.5 -62t22 -59.5t36 -50t54.5 -34.5t76.5 -12h219q8 0 16 7t14.5 17.5t10.5 23.5t4 25t-1 14
q-12 43 -27 120.5t-27.5 175t-21.5 207.5t-9 218v945q0 17 -18 37q-18 19 -18 65q0 55 32 75t72 20q52 0 76 -28.5t24 -66.5v-21.5t1 -45.5t2 -275t2 -709q0 -99 8 -202t22 -202.5t32 -191t38 -165.5q1 -5 1.5 -12.5t0.5 -16.5q0 -31 -16 -61.5t-42 -54.5t-58 -39t-63 -15
h-335q-79 0 -137.5 36.5t-97.5 90.5t-58 117.5t-19 123.5zM2322 1536q-1 -99 -38 -186.5t-102.5 -152.5t-153.5 -102.5t-191 -38.5q-103 1 -191 38.5t-153.5 102.5t-102.5 152.5t-38 186.5q1 99 38 186.5t102.5 152.5t153.5 102.5t191 38.5q103 -1 191 -38.5t153.5 -102.5
t102.5 -152.5t38 -186.5zM1561 1333q2 8 25 22.5t61 31.5q41 19 90.5 29t104.5 10q53 0 101 -9.5t87 -27.5q37 -17 60 -30t26 -21q12 14 34 70q11 29 17.5 62.5t6.5 65.5q0 72 -27 134.5t-73 108.5t-107 72.5t-130 26.5t-130 -26.5t-107 -72.5t-73 -108.5t-27 -134.5
q0 -34 7 -68t19 -64q14 -30 22.5 -48t12.5 -23zM1980 1245q0 20 -38 37.5t-100 17.5q-32 0 -58 -5t-44.5 -12.5t-29 -17.5t-10.5 -20q0 -18 39.5 -34.5t102.5 -16.5t100.5 16.5t37.5 34.5zM1309 -455q0 -80 -59 -139t-143 -59q-43 0 -80 15.5t-64 42.5t-42 63t-15 77
q0 80 58 138q58 57 143 57q43 0 80 -15.5t64 -42.5t42.5 -62.5t15.5 -74.5zM1152 -455q0 20 -14 34t-31 14q-16 0 -30 -14t-14 -34q0 -23 14 -37t30 -14q17 0 31 14t14 37z" />
    <glyph glyph-name="u1000_u103B_u102F" unicode="&#x1000;&#x103b;&#x102f;" horiz-adv-x="2680" 
d="M1019 520q0 -67 -13 -139.5t-42 -140t-75.5 -126.5t-113.5 -99q-11 -5 -23 -8.5t-23 -3.5q-34 0 -56.5 20t-22.5 58q0 17 7 30.5t18 24t24 18.5t24 14q15 7 23 14q31 21 54.5 58.5t39 83t23 94.5t7.5 94q0 76 -29 142.5t-78 115.5t-114 77.5t-138 28.5q-74 0 -139.5 -29
t-114 -79t-76.5 -117.5t-28 -143.5q0 -45 7.5 -94.5t22 -95t37 -81.5t52.5 -53q42 -24 66 -47t24 -61q0 -32 -22 -50.5t-56 -18.5q-8 0 -18.5 2t-18.5 7q-72 39 -119 96t-74.5 124t-38.5 138.5t-11 138.5q0 105 39 196.5t107 160t161 107.5t200 39q73 0 143 -22t128 -56.5
t101 -76t63 -80.5q6 11 22.5 31t39.5 43.5t50.5 46t55.5 39.5q61 35 126.5 55t134.5 20q104 0 197 -40.5t163.5 -109.5t111.5 -161t41 -194q0 -101 -38.5 -193t-107 -162t-161.5 -111.5t-201 -41.5q-24 0 -61 3t-71.5 12t-59 26.5t-24.5 46.5q0 13 4.5 28.5t14.5 29t25.5 22
t37.5 8.5q16 0 29.5 -6.5t23.5 -13.5q6 -4 11 -7t10 -3q16 -4 31.5 -5.5t30.5 -1.5q72 0 136.5 30t113 81t77 118.5t28.5 141.5q0 77 -30 143t-80 114.5t-114.5 76t-134.5 27.5q-74 0 -138.5 -28t-113 -76.5t-77 -112.5t-30.5 -136zM1490 -692v131.5t-1 121.5
q0 48 -0.5 89.5t-0.5 78.5v196q0 18 6.5 35t20 30.5t33 21.5t45.5 8q31 0 68 -17q36 -17 36 -67q0 -30 -8 -49t-16 -33q-5 -9 -9 -17.5t-3 -16.5v-448q0 -27 2.5 -58t10.5 -62t22 -59.5t36 -50t54.5 -34.5t76.5 -12h219q8 0 16 7t14.5 17.5t10.5 23.5t4 25t-1 14
q-12 43 -27 120.5t-27.5 175t-21.5 207.5t-9 218v945q0 17 -18 37q-18 19 -18 65q0 55 32 75t72 20q52 0 76 -28.5t24 -66.5v-16q1 -26 2 -84t1 -148q0 -49 0.5 -108.5t0.5 -131.5q0 -51 0.5 -116.5t0.5 -139v-152v-155.5q0 -99 8 -202t22 -202.5t32 -191t38 -165.5
q1 -5 1.5 -12.5t0.5 -16.5q0 -31 -16 -61.5t-42 -54.5t-58 -39t-63 -15h-335q-79 0 -137.5 36.5t-97.5 90.5t-58 117.5t-19 123.5zM2459 1042q40 0 60 -32q19 -31 19 -61v-1835h514q0 1 6 4q7 3 16 9t17.5 16.5t14.5 26t6 36.5q0 37 -12.5 66t-35 48.5t-52.5 30t-64 10.5
q-41 0 -195 -35q123 97 174 112q49 15 92 15t85.5 -14.5t76 -44.5t54 -76.5t20.5 -111.5q0 -62 -24 -107.5t-57.5 -75t-68.5 -44t-57 -14.5h-594q-34 0 -58 32q-24 31 -24 68v1793q0 17 -14 34q-13 16 -13 59q0 57 33 74q34 17 81 17z" />
    <glyph glyph-name="u1000_u103B_u1030" unicode="&#x1000;&#x103b;&#x1030;" horiz-adv-x="2973" 
d="M1019 520q0 -67 -13 -139.5t-42 -140t-75.5 -126.5t-113.5 -99q-11 -5 -23 -8.5t-23 -3.5q-34 0 -56.5 20t-22.5 58q0 17 7 30.5t18 24t24 18.5t24 14q15 7 23 14q31 21 54.5 58.5t39 83t23 94.5t7.5 94q0 76 -29 142.5t-78 115.5t-114 77.5t-138 28.5q-74 0 -139.5 -29
t-114 -79t-76.5 -117.5t-28 -143.5q0 -45 7.5 -94.5t22 -95t37 -81.5t52.5 -53q42 -24 66 -47t24 -61q0 -32 -22 -50.5t-56 -18.5q-8 0 -18.5 2t-18.5 7q-72 39 -119 96t-74.5 124t-38.5 138.5t-11 138.5q0 105 39 196.5t107 160t161 107.5t200 39q73 0 143 -22t128 -56.5
t101 -76t63 -80.5q6 11 22.5 31t39.5 43.5t50.5 46t55.5 39.5q61 35 126.5 55t134.5 20q104 0 197 -40.5t163.5 -109.5t111.5 -161t41 -194q0 -101 -38.5 -193t-107 -162t-161.5 -111.5t-201 -41.5q-24 0 -61 3t-71.5 12t-59 26.5t-24.5 46.5q0 13 4.5 28.5t14.5 29t25.5 22
t37.5 8.5q16 0 29.5 -6.5t23.5 -13.5q6 -4 11 -7t10 -3q16 -4 31.5 -5.5t30.5 -1.5q72 0 136.5 30t113 81t77 118.5t28.5 141.5q0 77 -30 143t-80 114.5t-114.5 76t-134.5 27.5q-74 0 -138.5 -28t-113 -76.5t-77 -112.5t-30.5 -136zM1490 -692v131.5t-1 121.5
q0 48 -0.5 89.5t-0.5 78.5v196q0 18 6.5 35t20 30.5t33 21.5t45.5 8q31 0 68 -17q36 -17 36 -67q0 -30 -8 -49t-16 -33q-5 -9 -9 -17.5t-3 -16.5v-448q0 -27 2.5 -58t10.5 -62t22 -59.5t36 -50t54.5 -34.5t76.5 -12h219q8 0 16 7t14.5 17.5t10.5 23.5t4 25t-1 14
q-12 43 -27 120.5t-27.5 175t-21.5 207.5t-9 218v945q0 17 -18 37q-18 19 -18 65q0 55 32 75t72 20q52 0 76 -28.5t24 -66.5v-16q1 -26 2 -84t1 -148q0 -49 0.5 -108.5t0.5 -131.5q0 -51 0.5 -116.5t0.5 -139v-152v-155.5q0 -99 8 -202t22 -202.5t32 -191t38 -165.5
q1 -5 1.5 -12.5t0.5 -16.5q0 -31 -16 -61.5t-42 -54.5t-58 -39t-63 -15h-335q-79 0 -137.5 36.5t-97.5 90.5t-58 117.5t-19 123.5zM2753 1039q39 0 59 -30q20 -31 20 -60v-1836q0 -1 -1 -1h469l7 4q7 2 16 8.5t17 17t14 26t6 36.5q0 73 -48 114q-47 41 -116 41
q-11 0 -23.5 -0.5t-23.5 -2.5q-8 -2 -28 -5t-50 -8q-13 -2 -28 -4t-32 -5q112 87 162 102q49 15 92 15q44 1 87.5 -13.5t77.5 -45.5t54.5 -77.5t19.5 -110.5q0 -63 -24 -108t-57.5 -74t-69 -43t-57.5 -14h-548q-17 0 -31.5 8t-26 22t-18 32t-6.5 38v1791q0 16 -14 33
q-13 16 -13 60q0 59 33 74q33 16 81 16zM2519 -849q0 -17 16 -36t16 -62q0 -46 -31 -68q-30 -22 -64 -22q-27 0 -45.5 8t-30 20.5t-17 29.5t-5.5 35v1800q0 17 -16 33t-16 62q0 48 29.5 68t68.5 20q95 0 95 -90v-1798z" />
    <glyph glyph-name="u1000_u103B_u1030_u1037" unicode="&#x1000;&#x103b;&#x1030;&#x1037;" horiz-adv-x="2968" 
d="M1019 520q0 -67 -13 -139.5t-42 -140t-75.5 -126.5t-113.5 -99q-11 -5 -23 -8.5t-23 -3.5q-34 0 -56.5 20t-22.5 58q0 17 7 30.5t18 24t24 18.5t24 14q15 7 23 14q31 21 54.5 58.5t39 83t23 94.5t7.5 94q0 76 -29 142.5t-78 115.5t-114 77.5t-138 28.5q-74 0 -139.5 -29
t-114 -79t-76.5 -117.5t-28 -143.5q0 -45 7.5 -94.5t22 -95t37 -81.5t52.5 -53q42 -24 66 -47t24 -61q0 -32 -22 -50.5t-56 -18.5q-8 0 -18.5 2t-18.5 7q-72 39 -119 96t-74.5 124t-38.5 138.5t-11 138.5q0 105 39 196.5t107 160t161 107.5t200 39q73 0 143 -22t128 -56.5
t101 -76t63 -80.5q6 11 22.5 31t39.5 43.5t50.5 46t55.5 39.5q61 35 126.5 55t134.5 20q104 0 197 -40.5t163.5 -109.5t111.5 -161t41 -194q0 -101 -38.5 -193t-107 -162t-161.5 -111.5t-201 -41.5q-24 0 -61 3t-71.5 12t-59 26.5t-24.5 46.5q0 13 4.5 28.5t14.5 29t25.5 22
t37.5 8.5q16 0 29.5 -6.5t23.5 -13.5q6 -4 11 -7t10 -3q16 -4 31.5 -5.5t30.5 -1.5q72 0 136.5 30t113 81t77 118.5t28.5 141.5q0 77 -30 143t-80 114.5t-114.5 76t-134.5 27.5q-74 0 -138.5 -28t-113 -76.5t-77 -112.5t-30.5 -136zM1490 -692v131.5t-1 121.5
q0 48 -0.5 89.5t-0.5 78.5v196q0 18 6.5 35t20 30.5t33 21.5t45.5 8q31 0 68 -17q36 -17 36 -67q0 -30 -8 -49t-16 -33q-5 -9 -9 -17.5t-3 -16.5v-448q0 -27 2.5 -58t10.5 -62t22 -59.5t36 -50t54.5 -34.5t76.5 -12h219q8 0 16 7t14.5 17.5t10.5 23.5t4 25t-1 14
q-12 43 -27 120.5t-27.5 175t-21.5 207.5t-9 218v945q0 17 -18 37q-18 19 -18 65q0 55 32 75t72 20q52 0 76 -28.5t24 -66.5v-16q1 -26 2 -84t1 -148q0 -49 0.5 -108.5t0.5 -131.5q0 -51 0.5 -116.5t0.5 -139v-152v-155.5q0 -99 8 -202t22 -202.5t32 -191t38 -165.5
q1 -5 1.5 -12.5t0.5 -16.5q0 -31 -16 -61.5t-42 -54.5t-58 -39t-63 -15h-335q-79 0 -137.5 36.5t-97.5 90.5t-58 117.5t-19 123.5zM2753 1039q39 0 59 -30q20 -31 20 -60v-1836q0 -1 -1 -1h469l7 4q7 2 16 8.5t17 17t14 26t6 36.5q0 73 -48 114q-47 41 -116 41
q-11 0 -23.5 -0.5t-23.5 -2.5q-8 -2 -28 -5t-50 -8q-13 -2 -28 -4t-32 -5q112 87 162 102q49 15 92 15q44 1 87.5 -13.5t77.5 -45.5t54.5 -77.5t19.5 -110.5q0 -63 -24 -108t-57.5 -74t-69 -43t-57.5 -14h-548q-17 0 -31.5 8t-26 22t-18 32t-6.5 38v1791q0 16 -14 33
q-13 16 -13 60q0 59 33 74q33 16 81 16zM2519 -849q0 -17 16 -36t16 -62q0 -46 -31 -68q-30 -22 -64 -22q-27 0 -45.5 8t-30 20.5t-17 29.5t-5.5 35v1800q0 17 -16 33t-16 62q0 48 29.5 68t68.5 20q95 0 95 -90v-1798zM3319 -275q0 -80 -59 -139t-143 -59q-43 0 -80 15.5
t-64 42.5t-42 63t-15 77q0 80 58 138q58 57 143 57q43 0 80 -15.5t64 -42.5t42.5 -62.5t15.5 -74.5zM3162 -275q0 20 -14 34t-31 14q-16 0 -30 -14t-14 -34q0 -23 14 -37t30 -14q17 0 31 14t14 37z" />
    <glyph glyph-name="u1000_u103B_u1031" unicode="&#x1000;&#x103b;&#x1031;" horiz-adv-x="3403" 
d="M310 185q3 -16 4 -16t1 4v27q0 61 24 117t65.5 98t98 67t122.5 25q56 0 109.5 -18.5t95 -51t67 -77.5t25.5 -97q0 -69 -43.5 -119t-109 -82t-142 -47t-142.5 -15q-108 0 -196.5 40t-152 108.5t-98.5 160t-35 194.5q0 107 39.5 200.5t108 162.5t161 109t199.5 40
q68 0 133 -19t122 -53t104 -80t80 -101q4 -7 6.5 -14.5t2.5 -13.5q0 -11 -6.5 -24t-18.5 -24t-28.5 -18t-35.5 -7q-21 0 -34.5 6t-22.5 16t-14.5 21.5t-9.5 22.5q-3 8 -5 14.5t-7 11.5q-46 57 -115 90t-151 33q-74 0 -140 -28.5t-115 -78.5t-77.5 -118.5t-28.5 -147.5
q0 -59 14.5 -112t38 -95t52 -71t55.5 -40zM467 140q2 -1 29 -1q38 0 85 6t87.5 21t68 39t27.5 60q0 22 -13 42t-33 34.5t-44.5 23t-48.5 8.5q-33 0 -64 -13.5t-54.5 -36.5t-37.5 -55t-14 -68q0 -14 3 -27t6 -22q1 -4 2 -8.5t1 -2.5zM2067 520q0 -67 -13 -139.5t-42 -140
t-75.5 -126.5t-113.5 -99q-11 -5 -23 -8.5t-23 -3.5q-34 0 -56.5 20t-22.5 58q0 17 7 30.5t18 24t24 18.5t24 14q15 7 23 14q31 21 54.5 58.5t39 83t23 94.5t7.5 94q0 76 -29 142.5t-78 115.5t-114 77.5t-138 28.5q-74 0 -139.5 -29t-114 -79t-76.5 -117.5t-28 -143.5
q0 -45 7.5 -94.5t22 -95t37 -81.5t52.5 -53q42 -24 66 -47t24 -61q0 -32 -22 -50.5t-56 -18.5q-8 0 -18.5 2t-18.5 7q-72 39 -119 96t-74.5 124t-38.5 138.5t-11 138.5q0 105 39 196.5t107 160t161 107.5t200 39q73 0 143 -22t128 -56.5t101 -76t63 -80.5q6 11 22.5 31
t39.5 43.5t50.5 46t55.5 39.5q61 35 126.5 55t134.5 20q104 0 197 -40.5t163.5 -109.5t111.5 -161t41 -194q0 -101 -38.5 -193t-107 -162t-161.5 -111.5t-201 -41.5q-24 0 -61 3t-71.5 12t-59 26.5t-24.5 46.5q0 13 4.5 28.5t14.5 29t25.5 22t37.5 8.5q16 0 29.5 -6.5
t23.5 -13.5q6 -4 11 -7t10 -3q16 -4 31.5 -5.5t30.5 -1.5q72 0 136.5 30t113 81t77 118.5t28.5 141.5q0 77 -30 143t-80 114.5t-114.5 76t-134.5 27.5q-74 0 -138.5 -28t-113 -76.5t-77 -112.5t-30.5 -136zM2538 -692v131.5t-1 121.5q0 48 -0.5 89.5t-0.5 78.5v196
q0 18 6.5 35t20 30.5t33 21.5t45.5 8q31 0 68 -17q36 -17 36 -67q0 -30 -8 -49t-16 -33q-5 -9 -9 -17.5t-3 -16.5v-448q0 -27 2.5 -58t10.5 -62t22 -59.5t36 -50t54.5 -34.5t76.5 -12h219q8 0 16 7t14.5 17.5t10.5 23.5t4 25t-1 14q-12 43 -27 120.5t-27.5 175t-21.5 207.5
t-9 218v945q0 17 -18 37q-18 19 -18 65q0 55 32 75t72 20q52 0 76 -28.5t24 -66.5v-21.5t1 -45.5q1 -59 3 -378q1 -161 1 -311.5v-294.5q0 -99 8 -202t22 -202.5t32 -191t38 -165.5q1 -5 1.5 -12.5t0.5 -16.5q0 -31 -16 -61.5t-42 -54.5t-58 -39t-63 -15h-335
q-79 0 -137.5 36.5t-97.5 90.5t-58 117.5t-19 123.5z" />
    <glyph glyph-name="u1000_u103B_u1031_u1037" unicode="&#x1000;&#x103b;&#x1031;&#x1037;" horiz-adv-x="3403" 
d="M307 185q3 -16 4 -16t1 4v27q0 61 24 117t65.5 98t98 67t122.5 25q56 0 109.5 -18.5t95 -51t67 -77.5t25.5 -97q0 -69 -43.5 -119t-109 -82t-142 -47t-142.5 -15q-108 0 -196.5 40t-152 108.5t-98.5 160t-35 194.5q0 107 39.5 200.5t108 162.5t161 109t199.5 40
q68 0 133 -19t122 -53t104 -80t80 -101q4 -7 6.5 -14.5t2.5 -13.5q0 -11 -6.5 -24t-18.5 -24t-28.5 -18t-35.5 -7q-21 0 -34.5 6t-22.5 16t-14.5 21.5t-9.5 22.5q-3 8 -5 14.5t-7 11.5q-46 57 -115 90t-151 33q-74 0 -140 -28.5t-115 -78.5t-77.5 -118.5t-28.5 -147.5
q0 -59 14.5 -112t38 -95t52 -71t55.5 -40zM464 140q2 -1 29 -1q38 0 85 6t87.5 21t68 39t27.5 60q0 22 -13 42t-33 34.5t-44.5 23t-48.5 8.5q-33 0 -64 -13.5t-54.5 -36.5t-37.5 -55t-14 -68q0 -14 3 -27t6 -22q1 -4 2 -8.5t1 -2.5zM2064 520q0 -67 -13 -139.5t-42 -140
t-75.5 -126.5t-113.5 -99q-11 -5 -23 -8.5t-23 -3.5q-34 0 -56.5 20t-22.5 58q0 17 7 30.5t18 24t24 18.5t24 14q15 7 23 14q31 21 54.5 58.5t39 83t23 94.5t7.5 94q0 76 -29 142.5t-78 115.5t-114 77.5t-138 28.5q-74 0 -139.5 -29t-114 -79t-76.5 -117.5t-28 -143.5
q0 -45 7.5 -94.5t22 -95t37 -81.5t52.5 -53q42 -24 66 -47t24 -61q0 -32 -22 -50.5t-56 -18.5q-8 0 -18.5 2t-18.5 7q-72 39 -119 96t-74.5 124t-38.5 138.5t-11 138.5q0 105 39 196.5t107 160t161 107.5t200 39q73 0 143 -22t128 -56.5t101 -76t63 -80.5q6 11 22.5 31
t39.5 43.5t50.5 46t55.5 39.5q61 35 126.5 55t134.5 20q104 0 197 -40.5t163.5 -109.5t111.5 -161t41 -194q0 -101 -38.5 -193t-107 -162t-161.5 -111.5t-201 -41.5q-24 0 -61 3t-71.5 12t-59 26.5t-24.5 46.5q0 13 4.5 28.5t14.5 29t25.5 22t37.5 8.5q16 0 29.5 -6.5
t23.5 -13.5q6 -4 11 -7t10 -3q16 -4 31.5 -5.5t30.5 -1.5q72 0 136.5 30t113 81t77 118.5t28.5 141.5q0 77 -30 143t-80 114.5t-114.5 76t-134.5 27.5q-74 0 -138.5 -28t-113 -76.5t-77 -112.5t-30.5 -136zM2535 -692v131.5t-1 121.5q0 48 -0.5 89.5t-0.5 78.5v196
q0 18 6.5 35t20 30.5t33 21.5t45.5 8q31 0 68 -17q36 -17 36 -67q0 -30 -8 -49t-16 -33q-5 -9 -9 -17.5t-3 -16.5v-448q0 -27 2.5 -58t10.5 -62t22 -59.5t36 -50t54.5 -34.5t76.5 -12h219q8 0 16 7t14.5 17.5t10.5 23.5t4 25t-1 14q-12 43 -27 120.5t-27.5 175t-21.5 207.5
t-9 218v945q0 17 -18 37q-18 19 -18 65q0 55 32 75t72 20q52 0 76 -28.5t24 -66.5v-21.5t1 -45.5q1 -59 3 -378q1 -161 1 -311.5v-294.5q0 -99 8 -202t22 -202.5t32 -191t38 -165.5q1 -5 1.5 -12.5t0.5 -16.5q0 -31 -16 -61.5t-42 -54.5t-58 -39t-63 -15h-335
q-79 0 -137.5 36.5t-97.5 90.5t-58 117.5t-19 123.5zM2344 -455q0 -80 -59 -139t-143 -59q-43 0 -80 15.5t-64 42.5t-42 63t-15 77q0 80 58 138q58 57 143 57q43 0 80 -15.5t64 -42.5t42.5 -62.5t15.5 -74.5zM2187 -455q0 20 -14 34t-31 14q-16 0 -30 -14t-14 -34
q0 -23 14 -37t30 -14q17 0 31 14t14 37z" />
    <glyph glyph-name="u1000_u103B_u1032" unicode="&#x1000;&#x103b;&#x1032;" horiz-adv-x="2348" 
d="M1019 520q0 -67 -13 -139.5t-42 -140t-75.5 -126.5t-113.5 -99q-11 -5 -23 -8.5t-23 -3.5q-34 0 -56.5 20t-22.5 58q0 17 7 30.5t18 24t24 18.5t24 14q15 7 23 14q31 21 54.5 58.5t39 83t23 94.5t7.5 94q0 76 -29 142.5t-78 115.5t-114 77.5t-138 28.5q-74 0 -139.5 -29
t-114 -79t-76.5 -117.5t-28 -143.5q0 -45 7.5 -94.5t22 -95t37 -81.5t52.5 -53q42 -24 66 -47t24 -61q0 -32 -22 -50.5t-56 -18.5q-8 0 -18.5 2t-18.5 7q-72 39 -119 96t-74.5 124t-38.5 138.5t-11 138.5q0 105 39 196.5t107 160t161 107.5t200 39q73 0 143 -22t128 -56.5
t101 -76t63 -80.5q6 11 22.5 31t39.5 43.5t50.5 46t55.5 39.5q61 35 126.5 55t134.5 20q104 0 197 -40.5t163.5 -109.5t111.5 -161t41 -194q0 -101 -38.5 -193t-107 -162t-161.5 -111.5t-201 -41.5q-24 0 -61 3t-71.5 12t-59 26.5t-24.5 46.5q0 13 4.5 28.5t14.5 29t25.5 22
t37.5 8.5q16 0 29.5 -6.5t23.5 -13.5q6 -4 11 -7t10 -3q16 -4 31.5 -5.5t30.5 -1.5q72 0 136.5 30t113 81t77 118.5t28.5 141.5q0 77 -30 143t-80 114.5t-114.5 76t-134.5 27.5q-74 0 -138.5 -28t-113 -76.5t-77 -112.5t-30.5 -136zM1490 -692v131.5t-1 121.5
q0 48 -0.5 89.5t-0.5 78.5v196q0 18 6.5 35t20 30.5t33 21.5t45.5 8q31 0 68 -17q36 -17 36 -67q0 -30 -8 -49t-16 -33q-5 -9 -9 -17.5t-3 -16.5v-448q0 -27 2.5 -58t10.5 -62t22 -59.5t36 -50t54.5 -34.5t76.5 -12h219q8 0 16 7t14.5 17.5t10.5 23.5t4 25t-1 14
q-12 43 -27 120.5t-27.5 175t-21.5 207.5t-9 218v945q0 17 -18 37q-18 19 -18 65q0 55 32 75t72 20q52 0 76 -28.5t24 -66.5v-21.5t1 -45.5q1 -59 3 -378q1 -161 1 -311.5v-294.5q0 -99 8 -202t22 -202.5t32 -191t38 -165.5q1 -5 1.5 -12.5t0.5 -16.5q0 -31 -16 -61.5
t-42 -54.5t-58 -39t-63 -15h-335q-79 0 -137.5 36.5t-97.5 90.5t-58 117.5t-19 123.5zM2190 1230q19 -11 44 -20t58 -9q22 0 118 21q-73 -81 -127 -94q-54 -12 -98 -12q-57 0 -125 28.5t-143.5 80t-156.5 124t-163 159.5q-57 62 -105.5 122t-84.5 110t-58 84.5t-26 45.5
q-4 5 -14.5 21t-21.5 37t-19.5 43.5t-8.5 42.5q0 31 24 51.5t61 20.5q58 0 79 -35q10 -17 15.5 -32t5.5 -26v-22q0 -10 -1 -11q13 -15 73 -111q60 -97 200 -251q43 -48 92 -92.5t98 -84t95 -72t84 -57.5t65.5 -41t39.5 -21z" />
    <glyph glyph-name="u1000_u103B_u1032_u1037" unicode="&#x1000;&#x103b;&#x1032;&#x1037;" horiz-adv-x="2348" 
d="M1019 520q0 -67 -13 -139.5t-42 -140t-75.5 -126.5t-113.5 -99q-11 -5 -23 -8.5t-23 -3.5q-34 0 -56.5 20t-22.5 58q0 17 7 30.5t18 24t24 18.5t24 14q15 7 23 14q31 21 54.5 58.5t39 83t23 94.5t7.5 94q0 76 -29 142.5t-78 115.5t-114 77.5t-138 28.5q-74 0 -139.5 -29
t-114 -79t-76.5 -117.5t-28 -143.5q0 -45 7.5 -94.5t22 -95t37 -81.5t52.5 -53q42 -24 66 -47t24 -61q0 -32 -22 -50.5t-56 -18.5q-8 0 -18.5 2t-18.5 7q-72 39 -119 96t-74.5 124t-38.5 138.5t-11 138.5q0 105 39 196.5t107 160t161 107.5t200 39q73 0 143 -22t128 -56.5
t101 -76t63 -80.5q6 11 22.5 31t39.5 43.5t50.5 46t55.5 39.5q61 35 126.5 55t134.5 20q104 0 197 -40.5t163.5 -109.5t111.5 -161t41 -194q0 -101 -38.5 -193t-107 -162t-161.5 -111.5t-201 -41.5q-24 0 -61 3t-71.5 12t-59 26.5t-24.5 46.5q0 13 4.5 28.5t14.5 29t25.5 22
t37.5 8.5q16 0 29.5 -6.5t23.5 -13.5q6 -4 11 -7t10 -3q16 -4 31.5 -5.5t30.5 -1.5q72 0 136.5 30t113 81t77 118.5t28.5 141.5q0 77 -30 143t-80 114.5t-114.5 76t-134.5 27.5q-74 0 -138.5 -28t-113 -76.5t-77 -112.5t-30.5 -136zM1490 -692v131.5t-1 121.5
q0 48 -0.5 89.5t-0.5 78.5v196q0 18 6.5 35t20 30.5t33 21.5t45.5 8q31 0 68 -17q36 -17 36 -67q0 -30 -8 -49t-16 -33q-5 -9 -9 -17.5t-3 -16.5v-448q0 -27 2.5 -58t10.5 -62t22 -59.5t36 -50t54.5 -34.5t76.5 -12h219q8 0 16 7t14.5 17.5t10.5 23.5t4 25t-1 14
q-12 43 -27 120.5t-27.5 175t-21.5 207.5t-9 218v945q0 17 -18 37q-18 19 -18 65q0 55 32 75t72 20q52 0 76 -28.5t24 -66.5v-21.5t1 -45.5q1 -59 3 -378q1 -161 1 -311.5v-294.5q0 -99 8 -202t22 -202.5t32 -191t38 -165.5q1 -5 1.5 -12.5t0.5 -16.5q0 -31 -16 -61.5
t-42 -54.5t-58 -39t-63 -15h-335q-79 0 -137.5 36.5t-97.5 90.5t-58 117.5t-19 123.5zM2196 1230q19 -11 44 -20t58 -9q22 0 118 21q-73 -81 -127 -94q-54 -12 -98 -12q-57 0 -125 28.5t-143.5 80t-156.5 124t-163 159.5q-57 62 -105.5 122t-84.5 110t-58 84.5t-26 45.5
q-4 5 -14.5 21t-21.5 37t-19.5 43.5t-8.5 42.5q0 31 24 51.5t61 20.5q58 0 79 -35q10 -17 15.5 -32t5.5 -26v-22q0 -10 -1 -11q13 -15 73 -111q60 -97 200 -251q43 -48 92 -92.5t98 -84t95 -72t84 -57.5t65.5 -41t39.5 -21zM1319 -455q0 -80 -59 -139t-143 -59
q-43 0 -80 15.5t-64 42.5t-42 63t-15 77q0 80 58 138q58 57 143 57q43 0 80 -15.5t64 -42.5t42.5 -62.5t15.5 -74.5zM1162 -455q0 20 -14 34t-31 14q-16 0 -30 -14t-14 -34q0 -23 14 -37t30 -14q17 0 31 14t14 37z" />
    <glyph glyph-name="u1000_u103B_u1031_u102C" unicode="&#x1000;&#x103b;&#x1031;&#x102c;" horiz-adv-x="4335" 
d="M312 185q3 -16 4 -16t1 4v27q0 61 24 117t65.5 98t98 67t122.5 25q56 0 109.5 -18.5t95 -51t67 -77.5t25.5 -97q0 -69 -43.5 -119t-109 -82t-142 -47t-142.5 -15q-108 0 -196.5 40t-152 108.5t-98.5 160t-35 194.5q0 107 39.5 200.5t108 162.5t161 109t199.5 40
q68 0 133 -19t122 -53t104 -80t80 -101q4 -7 6.5 -14.5t2.5 -13.5q0 -11 -6.5 -24t-18.5 -24t-28.5 -18t-35.5 -7q-21 0 -34.5 6t-22.5 16t-14.5 21.5t-9.5 22.5q-3 8 -5 14.5t-7 11.5q-46 57 -115 90t-151 33q-74 0 -140 -28.5t-115 -78.5t-77.5 -118.5t-28.5 -147.5
q0 -59 14.5 -112t38 -95t52 -71t55.5 -40zM469 140q2 -1 29 -1q38 0 85 6t87.5 21t68 39t27.5 60q0 22 -13 42t-33 34.5t-44.5 23t-48.5 8.5q-33 0 -64 -13.5t-54.5 -36.5t-37.5 -55t-14 -68q0 -14 3 -27t6 -22q1 -4 2 -8.5t1 -2.5zM2069 520q0 -67 -13 -139.5t-42 -140
t-75.5 -126.5t-113.5 -99q-11 -5 -23 -8.5t-23 -3.5q-34 0 -56.5 20t-22.5 58q0 17 7 30.5t18 24t24 18.5t24 14q15 7 23 14q31 21 54.5 58.5t39 83t23 94.5t7.5 94q0 76 -29 142.5t-78 115.5t-114 77.5t-138 28.5q-74 0 -139.5 -29t-114 -79t-76.5 -117.5t-28 -143.5
q0 -45 7.5 -94.5t22 -95t37 -81.5t52.5 -53q42 -24 66 -47t24 -61q0 -32 -22 -50.5t-56 -18.5q-8 0 -18.5 2t-18.5 7q-72 39 -119 96t-74.5 124t-38.5 138.5t-11 138.5q0 105 39 196.5t107 160t161 107.5t200 39q73 0 143 -22t128 -56.5t101 -76t63 -80.5q6 11 22.5 31
t39.5 43.5t50.5 46t55.5 39.5q61 35 126.5 55t134.5 20q104 0 197 -40.5t163.5 -109.5t111.5 -161t41 -194q0 -101 -38.5 -193t-107 -162t-161.5 -111.5t-201 -41.5q-24 0 -61 3t-71.5 12t-59 26.5t-24.5 46.5q0 13 4.5 28.5t14.5 29t25.5 22t37.5 8.5q16 0 29.5 -6.5
t23.5 -13.5q6 -4 11 -7t10 -3q16 -4 31.5 -5.5t30.5 -1.5q72 0 136.5 30t113 81t77 118.5t28.5 141.5q0 77 -30 143t-80 114.5t-114.5 76t-134.5 27.5q-74 0 -138.5 -28t-113 -76.5t-77 -112.5t-30.5 -136zM2540 -692v131.5t-1 121.5q0 48 -0.5 89.5t-0.5 78.5v196
q0 18 6.5 35t20 30.5t33 21.5t45.5 8q31 0 68 -17q36 -17 36 -67q0 -30 -8 -49t-16 -33q-5 -9 -9 -17.5t-3 -16.5v-448q0 -27 2.5 -58t10.5 -62t22 -59.5t36 -50t54.5 -34.5t76.5 -12h219q8 0 16 7t14.5 17.5t10.5 23.5t4 25t-1 14q-12 43 -27 120.5t-27.5 175t-21.5 207.5
t-9 218v945q0 17 -18 37q-18 19 -18 65q0 55 32 75t72 20q52 0 76 -28.5t24 -66.5v-16q1 -26 2 -84t1 -148q0 -49 0.5 -108.5t0.5 -131.5q0 -51 0.5 -116.5t0.5 -139v-152v-155.5q0 -99 8 -202t22 -202.5t32 -191t38 -165.5q1 -5 1.5 -12.5t0.5 -16.5q0 -31 -16 -61.5
t-42 -54.5t-58 -39t-63 -15h-335q-79 0 -137.5 36.5t-97.5 90.5t-58 117.5t-19 123.5zM3589 156q4 0 9.5 -1.5t8.5 -3.5q2 2 3 2q47 -19 91 -19q63 0 119 21t101 59q58 65 91.5 139t33.5 148q0 66 -26.5 131.5t-73 118t-110.5 85t-139 32.5q-60 0 -124 -21.5t-118 -63.5
q-63 -57 -92 -123t-33 -134q0 -21 2.5 -31.5t9.5 -27.5l3 -6q-5 -39 -26.5 -62t-72.5 -41q-38 11 -57 56q-8 35 -12.5 67t-4.5 61q0 89 37.5 174t105 151t160.5 106.5t203 40.5q90 0 182 -33t167 -96.5t122 -156t47 -211.5q0 -56 -13 -113.5t-38 -111.5t-61.5 -102.5
t-84.5 -86.5q-75 -54 -160 -78t-176 -24q-24 0 -55 2t-58.5 9.5t-46.5 23t-19 43.5q0 8 6 21.5t16.5 26.5t25.5 22.5t33 9.5q13 0 24 -3z" />
    <glyph glyph-name="u1000_u103B_u1031_u102C_u1037" unicode="&#x1000;&#x103b;&#x1031;&#x102c;&#x1037;" horiz-adv-x="4335" 
d="M312 185q3 -16 4 -16t1 4v27q0 61 24 117t65.5 98t98 67t122.5 25q56 0 109.5 -18.5t95 -51t67 -77.5t25.5 -97q0 -69 -43.5 -119t-109 -82t-142 -47t-142.5 -15q-108 0 -196.5 40t-152 108.5t-98.5 160t-35 194.5q0 107 39.5 200.5t108 162.5t161 109t199.5 40
q68 0 133 -19t122 -53t104 -80t80 -101q4 -7 6.5 -14.5t2.5 -13.5q0 -11 -6.5 -24t-18.5 -24t-28.5 -18t-35.5 -7q-21 0 -34.5 6t-22.5 16t-14.5 21.5t-9.5 22.5q-3 8 -5 14.5t-7 11.5q-46 57 -115 90t-151 33q-74 0 -140 -28.5t-115 -78.5t-77.5 -118.5t-28.5 -147.5
q0 -59 14.5 -112t38 -95t52 -71t55.5 -40zM469 140q2 -1 29 -1q38 0 85 6t87.5 21t68 39t27.5 60q0 22 -13 42t-33 34.5t-44.5 23t-48.5 8.5q-33 0 -64 -13.5t-54.5 -36.5t-37.5 -55t-14 -68q0 -14 3 -27t6 -22q1 -4 2 -8.5t1 -2.5zM2069 520q0 -67 -13 -139.5t-42 -140
t-75.5 -126.5t-113.5 -99q-11 -5 -23 -8.5t-23 -3.5q-34 0 -56.5 20t-22.5 58q0 17 7 30.5t18 24t24 18.5t24 14q15 7 23 14q31 21 54.5 58.5t39 83t23 94.5t7.5 94q0 76 -29 142.5t-78 115.5t-114 77.5t-138 28.5q-74 0 -139.5 -29t-114 -79t-76.5 -117.5t-28 -143.5
q0 -45 7.5 -94.5t22 -95t37 -81.5t52.5 -53q42 -24 66 -47t24 -61q0 -32 -22 -50.5t-56 -18.5q-8 0 -18.5 2t-18.5 7q-72 39 -119 96t-74.5 124t-38.5 138.5t-11 138.5q0 105 39 196.5t107 160t161 107.5t200 39q73 0 143 -22t128 -56.5t101 -76t63 -80.5q6 11 22.5 31
t39.5 43.5t50.5 46t55.5 39.5q61 35 126.5 55t134.5 20q104 0 197 -40.5t163.5 -109.5t111.5 -161t41 -194q0 -101 -38.5 -193t-107 -162t-161.5 -111.5t-201 -41.5q-24 0 -61 3t-71.5 12t-59 26.5t-24.5 46.5q0 13 4.5 28.5t14.5 29t25.5 22t37.5 8.5q16 0 29.5 -6.5
t23.5 -13.5q6 -4 11 -7t10 -3q16 -4 31.5 -5.5t30.5 -1.5q72 0 136.5 30t113 81t77 118.5t28.5 141.5q0 77 -30 143t-80 114.5t-114.5 76t-134.5 27.5q-74 0 -138.5 -28t-113 -76.5t-77 -112.5t-30.5 -136zM2540 -692v131.5t-1 121.5q0 48 -0.5 89.5t-0.5 78.5v196
q0 18 6.5 35t20 30.5t33 21.5t45.5 8q31 0 68 -17q36 -17 36 -67q0 -30 -8 -49t-16 -33q-5 -9 -9 -17.5t-3 -16.5v-448q0 -27 2.5 -58t10.5 -62t22 -59.5t36 -50t54.5 -34.5t76.5 -12h219q8 0 16 7t14.5 17.5t10.5 23.5t4 25t-1 14q-12 43 -27 120.5t-27.5 175t-21.5 207.5
t-9 218v945q0 17 -18 37q-18 19 -18 65q0 55 32 75t72 20q52 0 76 -28.5t24 -66.5v-16q1 -26 2 -84t1 -148q0 -49 0.5 -108.5t0.5 -131.5q0 -51 0.5 -116.5t0.5 -139v-152v-155.5q0 -99 8 -202t22 -202.5t32 -191t38 -165.5q1 -5 1.5 -12.5t0.5 -16.5q0 -31 -16 -61.5
t-42 -54.5t-58 -39t-63 -15h-335q-79 0 -137.5 36.5t-97.5 90.5t-58 117.5t-19 123.5zM3589 156q4 0 9.5 -1.5t8.5 -3.5q2 2 3 2q47 -19 91 -19q63 0 119 21t101 59q58 65 91.5 139t33.5 148q0 66 -26.5 131.5t-73 118t-110.5 85t-139 32.5q-60 0 -124 -21.5t-118 -63.5
q-63 -57 -92 -123t-33 -134q0 -21 2.5 -31.5t9.5 -27.5l3 -6q-5 -39 -26.5 -62t-72.5 -41q-38 11 -57 56q-8 35 -12.5 67t-4.5 61q0 89 37.5 174t105 151t160.5 106.5t203 40.5q90 0 182 -33t167 -96.5t122 -156t47 -211.5q0 -56 -13 -113.5t-38 -111.5t-61.5 -102.5
t-84.5 -86.5q-75 -54 -160 -78t-176 -24q-24 0 -55 2t-58.5 9.5t-46.5 23t-19 43.5q0 8 6 21.5t16.5 26.5t25.5 22.5t33 9.5q13 0 24 -3zM3870 -455q0 -80 -59 -139t-143 -59q-43 0 -80 15.5t-64 42.5t-42 63t-15 77q0 80 58 138q58 57 143 57q43 0 80 -15.5t64 -42.5
t42.5 -62.5t15.5 -74.5zM3713 -455q0 20 -14 34t-31 14q-16 0 -30 -14t-14 -34q0 -23 14 -37t30 -14q17 0 31 14t14 37z" />
    <glyph glyph-name="u1000_u103B_u1031_u102C_u103A" unicode="&#x1000;&#x103b;&#x1031;&#x102c;&#x103a;" horiz-adv-x="4340" 
d="M312 185q3 -16 4 -16t1 4v27q0 61 24 117t65.5 98t98 67t122.5 25q56 0 109.5 -18.5t95 -51t67 -77.5t25.5 -97q0 -69 -43.5 -119t-109 -82t-142 -47t-142.5 -15q-108 0 -196.5 40t-152 108.5t-98.5 160t-35 194.5q0 107 39.5 200.5t108 162.5t161 109t199.5 40
q68 0 133 -19t122 -53t104 -80t80 -101q4 -7 6.5 -14.5t2.5 -13.5q0 -11 -6.5 -24t-18.5 -24t-28.5 -18t-35.5 -7q-21 0 -34.5 6t-22.5 16t-14.5 21.5t-9.5 22.5q-3 8 -5 14.5t-7 11.5q-46 57 -115 90t-151 33q-74 0 -140 -28.5t-115 -78.5t-77.5 -118.5t-28.5 -147.5
q0 -59 14.5 -112t38 -95t52 -71t55.5 -40zM469 140q2 -1 29 -1q38 0 85 6t87.5 21t68 39t27.5 60q0 22 -13 42t-33 34.5t-44.5 23t-48.5 8.5q-33 0 -64 -13.5t-54.5 -36.5t-37.5 -55t-14 -68q0 -14 3 -27t6 -22q1 -4 2 -8.5t1 -2.5zM2069 520q0 -67 -13 -139.5t-42 -140
t-75.5 -126.5t-113.5 -99q-11 -5 -23 -8.5t-23 -3.5q-34 0 -56.5 20t-22.5 58q0 17 7 30.5t18 24t24 18.5t24 14q15 7 23 14q31 21 54.5 58.5t39 83t23 94.5t7.5 94q0 76 -29 142.5t-78 115.5t-114 77.5t-138 28.5q-74 0 -139.5 -29t-114 -79t-76.5 -117.5t-28 -143.5
q0 -45 7.5 -94.5t22 -95t37 -81.5t52.5 -53q42 -24 66 -47t24 -61q0 -32 -22 -50.5t-56 -18.5q-8 0 -18.5 2t-18.5 7q-72 39 -119 96t-74.5 124t-38.5 138.5t-11 138.5q0 105 39 196.5t107 160t161 107.5t200 39q73 0 143 -22t128 -56.5t101 -76t63 -80.5q6 11 22.5 31
t39.5 43.5t50.5 46t55.5 39.5q61 35 126.5 55t134.5 20q104 0 197 -40.5t163.5 -109.5t111.5 -161t41 -194q0 -101 -38.5 -193t-107 -162t-161.5 -111.5t-201 -41.5q-24 0 -61 3t-71.5 12t-59 26.5t-24.5 46.5q0 13 4.5 28.5t14.5 29t25.5 22t37.5 8.5q16 0 29.5 -6.5
t23.5 -13.5q6 -4 11 -7t10 -3q16 -4 31.5 -5.5t30.5 -1.5q72 0 136.5 30t113 81t77 118.5t28.5 141.5q0 77 -30 143t-80 114.5t-114.5 76t-134.5 27.5q-74 0 -138.5 -28t-113 -76.5t-77 -112.5t-30.5 -136zM2540 -692v131.5t-1 121.5q0 48 -0.5 89.5t-0.5 78.5v196
q0 18 6.5 35t20 30.5t33 21.5t45.5 8q31 0 68 -17q36 -17 36 -67q0 -30 -8 -49t-16 -33q-5 -9 -9 -17.5t-3 -16.5v-448q0 -27 2.5 -58t10.5 -62t22 -59.5t36 -50t54.5 -34.5t76.5 -12h219q8 0 16 7t14.5 17.5t10.5 23.5t4 25t-1 14q-12 43 -27 120.5t-27.5 175t-21.5 207.5
t-9 218v945q0 17 -18 37q-18 19 -18 65q0 55 32 75t72 20q52 0 76 -28.5t24 -66.5v-16q1 -26 2 -84t1 -148q0 -49 0.5 -108.5t0.5 -131.5q0 -51 0.5 -116.5t0.5 -139v-152v-155.5q0 -99 8 -202t22 -202.5t32 -191t38 -165.5q1 -5 1.5 -12.5t0.5 -16.5q0 -31 -16 -61.5
t-42 -54.5t-58 -39t-63 -15h-335q-79 0 -137.5 36.5t-97.5 90.5t-58 117.5t-19 123.5zM3589 156q4 0 9.5 -1.5t8.5 -3.5q2 2 3 2q47 -19 91 -19q63 0 119 21t101 59q58 65 91.5 139t33.5 148q0 66 -26.5 131.5t-73 118t-110.5 85t-139 32.5q-60 0 -124 -21.5t-118 -63.5
q-63 -57 -92 -123t-33 -134q0 -21 2.5 -31.5t9.5 -27.5l3 -6q-5 -39 -26.5 -62t-72.5 -41q-38 11 -57 56q-8 35 -12.5 67t-4.5 61q0 89 37.5 174t105 151t160.5 106.5t203 40.5q90 0 182 -33t167 -96.5t122 -156t47 -211.5q0 -56 -13 -113.5t-38 -111.5t-61.5 -102.5
t-84.5 -86.5q-75 -54 -160 -78t-176 -24q-24 0 -55 2t-58.5 9.5t-46.5 23t-19 43.5q0 8 6 21.5t16.5 26.5t25.5 22.5t33 9.5q13 0 24 -3zM3630 1146q11 0 12 -1v-1q2 1 4 1t4 1q7 1 14.5 2t16.5 1q46 0 65 -30t19 -56q0 -15 -6 -29.5t-16.5 -25.5t-24 -17.5t-28.5 -6.5
q-40 0 -86.5 13t-92.5 39t-89 66t-76 93.5t-52.5 121.5t-19.5 151q0 64 18.5 128.5t54.5 124t89 111.5t121 90t151 60t180 22q150 0 275 -42t228 -120q102 -77 182 -185q81 -110 236 -481q-195 299 -251 353q-28 28 -55 52t-55 45q-32 24 -66 47t-63 41q-18 11 -35 22
t-32 22q-33 21 -74 38t-87 29.5t-96 19t-100 6.5q-124 0 -211.5 -34t-143 -89.5t-81.5 -125t-26 -141.5q0 -75 20 -130.5t49.5 -94t64 -60.5t63.5 -30z" />
    <glyph glyph-name="u1000_u103B_u1031_u102C_u1037_u103A" unicode="&#x1000;&#x103b;&#x1031;&#x102c;&#x1037;&#x103a;" horiz-adv-x="4340" 
d="M312 185q3 -16 4 -16t1 4v27q0 61 24 117t65.5 98t98 67t122.5 25q56 0 109.5 -18.5t95 -51t67 -77.5t25.5 -97q0 -69 -43.5 -119t-109 -82t-142 -47t-142.5 -15q-108 0 -196.5 40t-152 108.5t-98.5 160t-35 194.5q0 107 39.5 200.5t108 162.5t161 109t199.5 40
q68 0 133 -19t122 -53t104 -80t80 -101q4 -7 6.5 -14.5t2.5 -13.5q0 -11 -6.5 -24t-18.5 -24t-28.5 -18t-35.5 -7q-21 0 -34.5 6t-22.5 16t-14.5 21.5t-9.5 22.5q-3 8 -5 14.5t-7 11.5q-46 57 -115 90t-151 33q-74 0 -140 -28.5t-115 -78.5t-77.5 -118.5t-28.5 -147.5
q0 -59 14.5 -112t38 -95t52 -71t55.5 -40zM469 140q2 -1 29 -1q38 0 85 6t87.5 21t68 39t27.5 60q0 22 -13 42t-33 34.5t-44.5 23t-48.5 8.5q-33 0 -64 -13.5t-54.5 -36.5t-37.5 -55t-14 -68q0 -14 3 -27t6 -22q1 -4 2 -8.5t1 -2.5zM2069 520q0 -67 -13 -139.5t-42 -140
t-75.5 -126.5t-113.5 -99q-11 -5 -23 -8.5t-23 -3.5q-34 0 -56.5 20t-22.5 58q0 17 7 30.5t18 24t24 18.5t24 14q15 7 23 14q31 21 54.5 58.5t39 83t23 94.5t7.5 94q0 76 -29 142.5t-78 115.5t-114 77.5t-138 28.5q-74 0 -139.5 -29t-114 -79t-76.5 -117.5t-28 -143.5
q0 -45 7.5 -94.5t22 -95t37 -81.5t52.5 -53q42 -24 66 -47t24 -61q0 -32 -22 -50.5t-56 -18.5q-8 0 -18.5 2t-18.5 7q-72 39 -119 96t-74.5 124t-38.5 138.5t-11 138.5q0 105 39 196.5t107 160t161 107.5t200 39q73 0 143 -22t128 -56.5t101 -76t63 -80.5q6 11 22.5 31
t39.5 43.5t50.5 46t55.5 39.5q61 35 126.5 55t134.5 20q104 0 197 -40.5t163.5 -109.5t111.5 -161t41 -194q0 -101 -38.5 -193t-107 -162t-161.5 -111.5t-201 -41.5q-24 0 -61 3t-71.5 12t-59 26.5t-24.5 46.5q0 13 4.5 28.5t14.5 29t25.5 22t37.5 8.5q16 0 29.5 -6.5
t23.5 -13.5q6 -4 11 -7t10 -3q16 -4 31.5 -5.5t30.5 -1.5q72 0 136.5 30t113 81t77 118.5t28.5 141.5q0 77 -30 143t-80 114.5t-114.5 76t-134.5 27.5q-74 0 -138.5 -28t-113 -76.5t-77 -112.5t-30.5 -136zM2540 -692v131.5t-1 121.5q0 48 -0.5 89.5t-0.5 78.5v196
q0 18 6.5 35t20 30.5t33 21.5t45.5 8q31 0 68 -17q36 -17 36 -67q0 -30 -8 -49t-16 -33q-5 -9 -9 -17.5t-3 -16.5v-448q0 -27 2.5 -58t10.5 -62t22 -59.5t36 -50t54.5 -34.5t76.5 -12h219q8 0 16 7t14.5 17.5t10.5 23.5t4 25t-1 14q-12 43 -27 120.5t-27.5 175t-21.5 207.5
t-9 218v945q0 17 -18 37q-18 19 -18 65q0 55 32 75t72 20q52 0 76 -28.5t24 -66.5v-16q1 -26 2 -84t1 -148q0 -49 0.5 -108.5t0.5 -131.5q0 -51 0.5 -116.5t0.5 -139v-152v-155.5q0 -99 8 -202t22 -202.5t32 -191t38 -165.5q1 -5 1.5 -12.5t0.5 -16.5q0 -31 -16 -61.5
t-42 -54.5t-58 -39t-63 -15h-335q-79 0 -137.5 36.5t-97.5 90.5t-58 117.5t-19 123.5zM3589 156q4 0 9.5 -1.5t8.5 -3.5q2 2 3 2q47 -19 91 -19q63 0 119 21t101 59q58 65 91.5 139t33.5 148q0 66 -26.5 131.5t-73 118t-110.5 85t-139 32.5q-60 0 -124 -21.5t-118 -63.5
q-63 -57 -92 -123t-33 -134q0 -21 2.5 -31.5t9.5 -27.5l3 -6q-5 -39 -26.5 -62t-72.5 -41q-38 11 -57 56q-8 35 -12.5 67t-4.5 61q0 89 37.5 174t105 151t160.5 106.5t203 40.5q90 0 182 -33t167 -96.5t122 -156t47 -211.5q0 -56 -13 -113.5t-38 -111.5t-61.5 -102.5
t-84.5 -86.5q-75 -54 -160 -78t-176 -24q-24 0 -55 2t-58.5 9.5t-46.5 23t-19 43.5q0 8 6 21.5t16.5 26.5t25.5 22.5t33 9.5q13 0 24 -3zM3628 1146q11 0 12 -1v-1q2 1 4 1t4 1q7 1 14.5 2t16.5 1q46 0 65 -30t19 -56q0 -15 -6 -29.5t-16.5 -25.5t-24 -17.5t-28.5 -6.5
q-40 0 -86.5 13t-92.5 39t-89 66t-76 93.5t-52.5 121.5t-19.5 151q0 64 18.5 128.5t54.5 124t89 111.5t121 90t151 60t180 22q150 0 275 -42t228 -120q102 -77 182 -185q81 -110 236 -481q-195 299 -251 353q-28 28 -55 52t-55 45q-32 24 -66 47t-63 41q-18 11 -35 22
t-32 22q-33 21 -74 38t-87 29.5t-96 19t-100 6.5q-124 0 -211.5 -34t-143 -89.5t-81.5 -125t-26 -141.5q0 -75 20 -130.5t49.5 -94t64 -60.5t63.5 -30zM3862 -455q0 -80 -59 -139t-143 -59q-43 0 -80 15.5t-64 42.5t-42 63t-15 77q0 80 58 138q58 57 143 57q43 0 80 -15.5
t64 -42.5t42.5 -62.5t15.5 -74.5zM3705 -455q0 20 -14 34t-31 14q-16 0 -30 -14t-14 -34q0 -23 14 -37t30 -14q17 0 31 14t14 37z" />
    <glyph glyph-name="u1000_u103B_u1036" unicode="&#x1000;&#x103b;&#x1036;" horiz-adv-x="2354" 
d="M1019 520q0 -67 -13 -139.5t-42 -140t-75.5 -126.5t-113.5 -99q-11 -5 -23 -8.5t-23 -3.5q-34 0 -56.5 20t-22.5 58q0 17 7 30.5t18 24t24 18.5t24 14q15 7 23 14q31 21 54.5 58.5t39 83t23 94.5t7.5 94q0 76 -29 142.5t-78 115.5t-114 77.5t-138 28.5q-74 0 -139.5 -29
t-114 -79t-76.5 -117.5t-28 -143.5q0 -45 7.5 -94.5t22 -95t37 -81.5t52.5 -53q42 -24 66 -47t24 -61q0 -32 -22 -50.5t-56 -18.5q-8 0 -18.5 2t-18.5 7q-72 39 -119 96t-74.5 124t-38.5 138.5t-11 138.5q0 105 39 196.5t107 160t161 107.5t200 39q73 0 143 -22t128 -56.5
t101 -76t63 -80.5q6 11 22.5 31t39.5 43.5t50.5 46t55.5 39.5q61 35 126.5 55t134.5 20q104 0 197 -40.5t163.5 -109.5t111.5 -161t41 -194q0 -101 -38.5 -193t-107 -162t-161.5 -111.5t-201 -41.5q-24 0 -61 3t-71.5 12t-59 26.5t-24.5 46.5q0 13 4.5 28.5t14.5 29t25.5 22
t37.5 8.5q16 0 29.5 -6.5t23.5 -13.5q6 -4 11 -7t10 -3q16 -4 31.5 -5.5t30.5 -1.5q72 0 136.5 30t113 81t77 118.5t28.5 141.5q0 77 -30 143t-80 114.5t-114.5 76t-134.5 27.5q-74 0 -138.5 -28t-113 -76.5t-77 -112.5t-30.5 -136zM1490 -692v131.5t-1 121.5
q0 48 -0.5 89.5t-0.5 78.5v196q0 18 6.5 35t20 30.5t33 21.5t45.5 8q31 0 68 -17q36 -17 36 -67q0 -30 -8 -49t-16 -33q-5 -9 -9 -17.5t-3 -16.5v-448q0 -27 2.5 -58t10.5 -62t22 -59.5t36 -50t54.5 -34.5t76.5 -12h219q8 0 16 7t14.5 17.5t10.5 23.5t4 25t-1 14
q-12 43 -27 120.5t-27.5 175t-21.5 207.5t-9 218v945q0 17 -18 37q-18 19 -18 65q0 55 32 75t72 20q52 0 76 -28.5t24 -66.5v-21.5t1 -45.5t2 -275t2 -709q0 -99 8 -202t22 -202.5t32 -191t38 -165.5q1 -5 1.5 -12.5t0.5 -16.5q0 -31 -16 -61.5t-42 -54.5t-58 -39t-63 -15
h-335q-79 0 -137.5 36.5t-97.5 90.5t-58 117.5t-19 123.5zM2307 1482q0 -80 -59 -139t-143 -59q-43 0 -79.5 15.5t-63.5 42.5t-42.5 63t-15.5 77q0 79 58 137t143 58q43 0 80 -15.5t64 -42.5t42.5 -62.5t15.5 -74.5zM2150 1482q0 20 -14 34t-31 14q-16 0 -30 -14t-14 -34
q0 -23 14 -37t30 -14q17 0 31 14t14 37z" />
    <glyph glyph-name="u1000_u103B_u1036_u1037" unicode="&#x1000;&#x103b;&#x1036;&#x1037;" horiz-adv-x="2354" 
d="M1019 520q0 -67 -13 -139.5t-42 -140t-75.5 -126.5t-113.5 -99q-11 -5 -23 -8.5t-23 -3.5q-34 0 -56.5 20t-22.5 58q0 17 7 30.5t18 24t24 18.5t24 14q15 7 23 14q31 21 54.5 58.5t39 83t23 94.5t7.5 94q0 76 -29 142.5t-78 115.5t-114 77.5t-138 28.5q-74 0 -139.5 -29
t-114 -79t-76.5 -117.5t-28 -143.5q0 -45 7.5 -94.5t22 -95t37 -81.5t52.5 -53q42 -24 66 -47t24 -61q0 -32 -22 -50.5t-56 -18.5q-8 0 -18.5 2t-18.5 7q-72 39 -119 96t-74.5 124t-38.5 138.5t-11 138.5q0 105 39 196.5t107 160t161 107.5t200 39q73 0 143 -22t128 -56.5
t101 -76t63 -80.5q6 11 22.5 31t39.5 43.5t50.5 46t55.5 39.5q61 35 126.5 55t134.5 20q104 0 197 -40.5t163.5 -109.5t111.5 -161t41 -194q0 -101 -38.5 -193t-107 -162t-161.5 -111.5t-201 -41.5q-24 0 -61 3t-71.5 12t-59 26.5t-24.5 46.5q0 13 4.5 28.5t14.5 29t25.5 22
t37.5 8.5q16 0 29.5 -6.5t23.5 -13.5q6 -4 11 -7t10 -3q16 -4 31.5 -5.5t30.5 -1.5q72 0 136.5 30t113 81t77 118.5t28.5 141.5q0 77 -30 143t-80 114.5t-114.5 76t-134.5 27.5q-74 0 -138.5 -28t-113 -76.5t-77 -112.5t-30.5 -136zM1490 -692v131.5t-1 121.5
q0 48 -0.5 89.5t-0.5 78.5v196q0 18 6.5 35t20 30.5t33 21.5t45.5 8q31 0 68 -17q36 -17 36 -67q0 -30 -8 -49t-16 -33q-5 -9 -9 -17.5t-3 -16.5v-448q0 -27 2.5 -58t10.5 -62t22 -59.5t36 -50t54.5 -34.5t76.5 -12h219q8 0 16 7t14.5 17.5t10.5 23.5t4 25t-1 14
q-12 43 -27 120.5t-27.5 175t-21.5 207.5t-9 218v945q0 17 -18 37q-18 19 -18 65q0 55 32 75t72 20q52 0 76 -28.5t24 -66.5v-21.5t1 -45.5t2 -275t2 -709q0 -99 8 -202t22 -202.5t32 -191t38 -165.5q1 -5 1.5 -12.5t0.5 -16.5q0 -31 -16 -61.5t-42 -54.5t-58 -39t-63 -15
h-335q-79 0 -137.5 36.5t-97.5 90.5t-58 117.5t-19 123.5zM2307 1482q0 -80 -59 -139t-143 -59q-43 0 -79.5 15.5t-63.5 42.5t-42.5 63t-15.5 77q0 79 58 137t143 58q43 0 80 -15.5t64 -42.5t42.5 -62.5t15.5 -74.5zM2150 1482q0 20 -14 34t-31 14q-16 0 -30 -14t-14 -34
q0 -23 14 -37t30 -14q17 0 31 14t14 37zM1309 -455q0 -80 -59 -139t-143 -59q-43 0 -80 15.5t-64 42.5t-42 63t-15 77q0 80 58 138q58 57 143 57q43 0 80 -15.5t64 -42.5t42.5 -62.5t15.5 -74.5zM1152 -455q0 20 -14 34t-31 14q-16 0 -30 -14t-14 -34q0 -23 14 -37t30 -14
q17 0 31 14t14 37z" />
    <glyph glyph-name="u1000_u103B_u102D_u102F" unicode="&#x1000;&#x103b;&#x102d;&#x102f;" horiz-adv-x="2675" 
d="M1019 520q0 -67 -13 -139.5t-42 -140t-75.5 -126.5t-113.5 -99q-11 -5 -23 -8.5t-23 -3.5q-34 0 -56.5 20t-22.5 58q0 17 7 30.5t18 24t24 18.5t24 14q15 7 23 14q31 21 54.5 58.5t39 83t23 94.5t7.5 94q0 76 -29 142.5t-78 115.5t-114 77.5t-138 28.5q-74 0 -139.5 -29
t-114 -79t-76.5 -117.5t-28 -143.5q0 -45 7.5 -94.5t22 -95t37 -81.5t52.5 -53q42 -24 66 -47t24 -61q0 -32 -22 -50.5t-56 -18.5q-8 0 -18.5 2t-18.5 7q-72 39 -119 96t-74.5 124t-38.5 138.5t-11 138.5q0 105 39 196.5t107 160t161 107.5t200 39q73 0 143 -22t128 -56.5
t101 -76t63 -80.5q6 11 22.5 31t39.5 43.5t50.5 46t55.5 39.5q61 35 126.5 55t134.5 20q104 0 197 -40.5t163.5 -109.5t111.5 -161t41 -194q0 -101 -38.5 -193t-107 -162t-161.5 -111.5t-201 -41.5q-24 0 -61 3t-71.5 12t-59 26.5t-24.5 46.5q0 13 4.5 28.5t14.5 29t25.5 22
t37.5 8.5q16 0 29.5 -6.5t23.5 -13.5q6 -4 11 -7t10 -3q16 -4 31.5 -5.5t30.5 -1.5q72 0 136.5 30t113 81t77 118.5t28.5 141.5q0 77 -30 143t-80 114.5t-114.5 76t-134.5 27.5q-74 0 -138.5 -28t-113 -76.5t-77 -112.5t-30.5 -136zM1490 -692v131.5t-1 121.5
q0 48 -0.5 89.5t-0.5 78.5v196q0 18 6.5 35t20 30.5t33 21.5t45.5 8q31 0 68 -17q36 -17 36 -67q0 -30 -8 -49t-16 -33q-5 -9 -9 -17.5t-3 -16.5v-448q0 -27 2.5 -58t10.5 -62t22 -59.5t36 -50t54.5 -34.5t76.5 -12h219q8 0 16 7t14.5 17.5t10.5 23.5t4 25t-1 14
q-12 43 -27 120.5t-27.5 175t-21.5 207.5t-9 218v945q0 17 -18 37q-18 19 -18 65q0 55 32 75t72 20q52 0 76 -28.5t24 -66.5v-21.5t1 -45.5t2 -275t2 -709q0 -99 8 -202t22 -202.5t32 -191t38 -165.5q1 -5 1.5 -12.5t0.5 -16.5q0 -31 -16 -61.5t-42 -54.5t-58 -39t-63 -15
h-335q-79 0 -137.5 36.5t-97.5 90.5t-58 117.5t-19 123.5zM2459 1042q40 0 60 -32q19 -31 19 -61v-1835h514q0 1 6 4q7 3 16 9t17.5 16.5t14.5 26t6 36.5q0 37 -12.5 66t-35 48.5t-52.5 30t-64 10.5q-41 0 -195 -35q123 97 174 112q49 15 92 15t85.5 -14.5t76 -44.5
t54 -76.5t20.5 -111.5q0 -62 -24 -107.5t-57.5 -75t-68.5 -44t-57 -14.5h-594q-34 0 -58 32q-24 31 -24 68v1793q0 17 -14 34q-13 16 -13 59q0 57 33 74q34 17 81 17zM2760 1538q0 -99 -37.5 -186t-103 -152.5t-154 -103t-190.5 -37.5t-190.5 37.5t-153.5 103t-102 152.5
t-38 186q1 99 38 186.5t102 152.5t153.5 102.5t190.5 38.5q103 -1 191 -38.5t153.5 -102.5t102.5 -152.5t38 -186.5zM2612 1538q0 72 -27 134.5t-73 108.5t-107 72.5t-130 26.5t-130 -26.5t-107 -72.5t-72.5 -108.5t-26.5 -134.5t26.5 -134.5t72.5 -108.5t107 -72.5
t130 -26.5t130 26.5t107 72.5t73 108.5t27 134.5z" />
    <glyph glyph-name="u1000_u103B_u102D_u102F_u1037" unicode="&#x1000;&#x103b;&#x102d;&#x102f;&#x1037;" horiz-adv-x="2675" 
d="M1019 520q0 -67 -13 -139.5t-42 -140t-75.5 -126.5t-113.5 -99q-11 -5 -23 -8.5t-23 -3.5q-34 0 -56.5 20t-22.5 58q0 17 7 30.5t18 24t24 18.5t24 14q15 7 23 14q31 21 54.5 58.5t39 83t23 94.5t7.5 94q0 76 -29 142.5t-78 115.5t-114 77.5t-138 28.5q-74 0 -139.5 -29
t-114 -79t-76.5 -117.5t-28 -143.5q0 -45 7.5 -94.5t22 -95t37 -81.5t52.5 -53q42 -24 66 -47t24 -61q0 -32 -22 -50.5t-56 -18.5q-8 0 -18.5 2t-18.5 7q-72 39 -119 96t-74.5 124t-38.5 138.5t-11 138.5q0 105 39 196.5t107 160t161 107.5t200 39q73 0 143 -22t128 -56.5
t101 -76t63 -80.5q6 11 22.5 31t39.5 43.5t50.5 46t55.5 39.5q61 35 126.5 55t134.5 20q104 0 197 -40.5t163.5 -109.5t111.5 -161t41 -194q0 -101 -38.5 -193t-107 -162t-161.5 -111.5t-201 -41.5q-24 0 -61 3t-71.5 12t-59 26.5t-24.5 46.5q0 13 4.5 28.5t14.5 29t25.5 22
t37.5 8.5q16 0 29.5 -6.5t23.5 -13.5q6 -4 11 -7t10 -3q16 -4 31.5 -5.5t30.5 -1.5q72 0 136.5 30t113 81t77 118.5t28.5 141.5q0 77 -30 143t-80 114.5t-114.5 76t-134.5 27.5q-74 0 -138.5 -28t-113 -76.5t-77 -112.5t-30.5 -136zM1490 -692v131.5t-1 121.5
q0 48 -0.5 89.5t-0.5 78.5v196q0 18 6.5 35t20 30.5t33 21.5t45.5 8q31 0 68 -17q36 -17 36 -67q0 -30 -8 -49t-16 -33q-5 -9 -9 -17.5t-3 -16.5v-448q0 -27 2.5 -58t10.5 -62t22 -59.5t36 -50t54.5 -34.5t76.5 -12h219q8 0 16 7t14.5 17.5t10.5 23.5t4 25t-1 14
q-12 43 -27 120.5t-27.5 175t-21.5 207.5t-9 218v945q0 17 -18 37q-18 19 -18 65q0 55 32 75t72 20q52 0 76 -28.5t24 -66.5v-21.5t1 -45.5t2 -275t2 -709q0 -99 8 -202t22 -202.5t32 -191t38 -165.5q1 -5 1.5 -12.5t0.5 -16.5q0 -31 -16 -61.5t-42 -54.5t-58 -39t-63 -15
h-335q-79 0 -137.5 36.5t-97.5 90.5t-58 117.5t-19 123.5zM2459 1042q40 0 60 -32q19 -31 19 -61v-1835h514q0 1 6 4q7 3 16 9t17.5 16.5t14.5 26t6 36.5q0 37 -12.5 66t-35 48.5t-52.5 30t-64 10.5q-41 0 -195 -35q123 97 174 112q49 15 92 15t85.5 -14.5t76 -44.5
t54 -76.5t20.5 -111.5q0 -62 -24 -107.5t-57.5 -75t-68.5 -44t-57 -14.5h-594q-34 0 -58 32q-24 31 -24 68v1793q0 17 -14 34q-13 16 -13 59q0 57 33 74q34 17 81 17zM2760 1538q0 -99 -37.5 -186t-103 -152.5t-154 -103t-190.5 -37.5t-190.5 37.5t-153.5 103t-102 152.5
t-38 186q1 99 38 186.5t102 152.5t153.5 102.5t190.5 38.5q103 -1 191 -38.5t153.5 -102.5t102.5 -152.5t38 -186.5zM2612 1538q0 72 -27 134.5t-73 108.5t-107 72.5t-130 26.5t-130 -26.5t-107 -72.5t-72.5 -108.5t-26.5 -134.5t26.5 -134.5t72.5 -108.5t107 -72.5
t130 -26.5t130 26.5t107 72.5t73 108.5t27 134.5zM3049 -275q0 -80 -59 -139t-143 -59q-43 0 -80 15.5t-64 42.5t-42 63t-15 77q0 80 58 138q58 57 143 57q43 0 80 -15.5t64 -42.5t42.5 -62.5t15.5 -74.5zM2892 -275q0 20 -14 34t-31 14q-16 0 -30 -14t-14 -34q0 -23 14 -37
t30 -14q17 0 31 14t14 37z" />
    <glyph glyph-name="u1000_u103B_u102F_u1036" unicode="&#x1000;&#x103b;&#x102f;&#x1036;" horiz-adv-x="2675" 
d="M1019 520q0 -67 -13 -139.5t-42 -140t-75.5 -126.5t-113.5 -99q-11 -5 -23 -8.5t-23 -3.5q-34 0 -56.5 20t-22.5 58q0 17 7 30.5t18 24t24 18.5t24 14q15 7 23 14q31 21 54.5 58.5t39 83t23 94.5t7.5 94q0 76 -29 142.5t-78 115.5t-114 77.5t-138 28.5q-74 0 -139.5 -29
t-114 -79t-76.5 -117.5t-28 -143.5q0 -45 7.5 -94.5t22 -95t37 -81.5t52.5 -53q42 -24 66 -47t24 -61q0 -32 -22 -50.5t-56 -18.5q-8 0 -18.5 2t-18.5 7q-72 39 -119 96t-74.5 124t-38.5 138.5t-11 138.5q0 105 39 196.5t107 160t161 107.5t200 39q73 0 143 -22t128 -56.5
t101 -76t63 -80.5q6 11 22.5 31t39.5 43.5t50.5 46t55.5 39.5q61 35 126.5 55t134.5 20q104 0 197 -40.5t163.5 -109.5t111.5 -161t41 -194q0 -101 -38.5 -193t-107 -162t-161.5 -111.5t-201 -41.5q-24 0 -61 3t-71.5 12t-59 26.5t-24.5 46.5q0 13 4.5 28.5t14.5 29t25.5 22
t37.5 8.5q16 0 29.5 -6.5t23.5 -13.5q6 -4 11 -7t10 -3q16 -4 31.5 -5.5t30.5 -1.5q72 0 136.5 30t113 81t77 118.5t28.5 141.5q0 77 -30 143t-80 114.5t-114.5 76t-134.5 27.5q-74 0 -138.5 -28t-113 -76.5t-77 -112.5t-30.5 -136zM1490 -692v131.5t-1 121.5
q0 48 -0.5 89.5t-0.5 78.5v196q0 18 6.5 35t20 30.5t33 21.5t45.5 8q31 0 68 -17q36 -17 36 -67q0 -30 -8 -49t-16 -33q-5 -9 -9 -17.5t-3 -16.5v-448q0 -27 2.5 -58t10.5 -62t22 -59.5t36 -50t54.5 -34.5t76.5 -12h219q8 0 16 7t14.5 17.5t10.5 23.5t4 25t-1 14
q-12 43 -27 120.5t-27.5 175t-21.5 207.5t-9 218v945q0 17 -18 37q-18 19 -18 65q0 55 32 75t72 20q52 0 76 -28.5t24 -66.5v-21.5t1 -45.5t2 -275t2 -709q0 -99 8 -202t22 -202.5t32 -191t38 -165.5q1 -5 1.5 -12.5t0.5 -16.5q0 -31 -16 -61.5t-42 -54.5t-58 -39t-63 -15
h-335q-79 0 -137.5 36.5t-97.5 90.5t-58 117.5t-19 123.5zM2459 1042q40 0 60 -32q19 -31 19 -61v-1835h514q0 1 6 4q7 3 16 9t17.5 16.5t14.5 26t6 36.5q0 37 -12.5 66t-35 48.5t-52.5 30t-64 10.5q-41 0 -195 -35q123 97 174 112q49 15 92 15t85.5 -14.5t76 -44.5
t54 -76.5t20.5 -111.5q0 -62 -24 -107.5t-57.5 -75t-68.5 -44t-57 -14.5h-594q-34 0 -58 32q-24 31 -24 68v1793q0 17 -14 34q-13 16 -13 59q0 57 33 74q34 17 81 17zM2477 1482q0 -80 -59 -139t-143 -59q-43 0 -79.5 15.5t-63.5 42.5t-42.5 63t-15.5 77q0 79 58 137t143 58
q43 0 80 -15.5t64 -42.5t42.5 -62.5t15.5 -74.5zM2320 1482q0 20 -14 34t-31 14q-16 0 -30 -14t-14 -34q0 -23 14 -37t30 -14q17 0 31 14t14 37z" />
    <glyph glyph-name="u1000_u103B_u102F_u1036_u1037" unicode="&#x1000;&#x103b;&#x102f;&#x1036;&#x1037;" horiz-adv-x="2680" 
d="M1019 520q0 -67 -13 -139.5t-42 -140t-75.5 -126.5t-113.5 -99q-11 -5 -23 -8.5t-23 -3.5q-34 0 -56.5 20t-22.5 58q0 17 7 30.5t18 24t24 18.5t24 14q15 7 23 14q31 21 54.5 58.5t39 83t23 94.5t7.5 94q0 76 -29 142.5t-78 115.5t-114 77.5t-138 28.5q-74 0 -139.5 -29
t-114 -79t-76.5 -117.5t-28 -143.5q0 -45 7.5 -94.5t22 -95t37 -81.5t52.5 -53q42 -24 66 -47t24 -61q0 -32 -22 -50.5t-56 -18.5q-8 0 -18.5 2t-18.5 7q-72 39 -119 96t-74.5 124t-38.5 138.5t-11 138.5q0 105 39 196.5t107 160t161 107.5t200 39q73 0 143 -22t128 -56.5
t101 -76t63 -80.5q6 11 22.5 31t39.5 43.5t50.5 46t55.5 39.5q61 35 126.5 55t134.5 20q104 0 197 -40.5t163.5 -109.5t111.5 -161t41 -194q0 -101 -38.5 -193t-107 -162t-161.5 -111.5t-201 -41.5q-24 0 -61 3t-71.5 12t-59 26.5t-24.5 46.5q0 13 4.5 28.5t14.5 29t25.5 22
t37.5 8.5q16 0 29.5 -6.5t23.5 -13.5q6 -4 11 -7t10 -3q16 -4 31.5 -5.5t30.5 -1.5q72 0 136.5 30t113 81t77 118.5t28.5 141.5q0 77 -30 143t-80 114.5t-114.5 76t-134.5 27.5q-74 0 -138.5 -28t-113 -76.5t-77 -112.5t-30.5 -136zM1490 -692v131.5t-1 121.5
q0 48 -0.5 89.5t-0.5 78.5v196q0 18 6.5 35t20 30.5t33 21.5t45.5 8q31 0 68 -17q36 -17 36 -67q0 -30 -8 -49t-16 -33q-5 -9 -9 -17.5t-3 -16.5v-448q0 -27 2.5 -58t10.5 -62t22 -59.5t36 -50t54.5 -34.5t76.5 -12h219q8 0 16 7t14.5 17.5t10.5 23.5t4 25t-1 14
q-12 43 -27 120.5t-27.5 175t-21.5 207.5t-9 218v945q0 17 -18 37q-18 19 -18 65q0 55 32 75t72 20q52 0 76 -28.5t24 -66.5v-21.5t1 -45.5t2 -275t2 -709q0 -99 8 -202t22 -202.5t32 -191t38 -165.5q1 -5 1.5 -12.5t0.5 -16.5q0 -31 -16 -61.5t-42 -54.5t-58 -39t-63 -15
h-335q-79 0 -137.5 36.5t-97.5 90.5t-58 117.5t-19 123.5zM2459 1042q40 0 60 -32q19 -31 19 -61v-1835h514q0 1 6 4q7 3 16 9t17.5 16.5t14.5 26t6 36.5q0 37 -12.5 66t-35 48.5t-52.5 30t-64 10.5q-41 0 -195 -35q123 97 174 112q49 15 92 15t85.5 -14.5t76 -44.5
t54 -76.5t20.5 -111.5q0 -62 -24 -107.5t-57.5 -75t-68.5 -44t-57 -14.5h-594q-34 0 -58 32q-24 31 -24 68v1793q0 17 -14 34q-13 16 -13 59q0 57 33 74q34 17 81 17zM2477 1482q0 -80 -59 -139t-143 -59q-43 0 -79.5 15.5t-63.5 42.5t-42.5 63t-15.5 77q0 79 58 137t143 58
q43 0 80 -15.5t64 -42.5t42.5 -62.5t15.5 -74.5zM2320 1482q0 20 -14 34t-31 14q-16 0 -30 -14t-14 -34q0 -23 14 -37t30 -14q17 0 31 14t14 37zM3049 -275q0 -80 -59 -139t-143 -59q-43 0 -80 15.5t-64 42.5t-42 63t-15 77q0 80 58 138q58 57 143 57q43 0 80 -15.5
t64 -42.5t42.5 -62.5t15.5 -74.5zM2892 -275q0 20 -14 34t-31 14q-16 0 -30 -14t-14 -34q0 -23 14 -37t30 -14q17 0 31 14t14 37z" />
    <glyph glyph-name="u1000_u103C" unicode="&#x1000;&#x103c;" horiz-adv-x="2413" 
d="M2394 1103q-114 300 -188 407q-37 54 -77.5 99t-86.5 82q-91 75 -193.5 114t-214.5 39h-967q-47 0 -93 -14.5t-89.5 -39.5t-84 -59t-75.5 -74q-35 -41 -63 -87t-49 -96q-42 -101 -42 -195v-1643q0 -45 8.5 -92t24.5 -93.5t40 -90t54 -81.5q30 -39 68 -71t81.5 -55
t93 -35.5t103.5 -12.5h1336q0 89 -0.5 188.5t-1 201.5t-1 202t-0.5 189q0 18 -16 37q-15 19 -15 63q0 64 37 82t85 18q45 -7 62 -40q16 -31 16 -60v-115q1 -205 2 -409t2 -409q0 -21 -6 -39.5t-16.5 -33t-26.5 -23t-35 -8.5q-89 0 -184.5 -0.5t-201.5 -0.5
q-56 0 -123.5 -0.5t-138.5 -0.5h-143h-137q-67 0 -135 0.5t-138 0.5q-75 1 -150.5 1h-154.5q-117 0 -220 61t-178 154q-37 46 -66.5 98t-50.5 106t-32 108.5t-11 107.5v1745q0 109 48 228q24 60 55.5 114t71.5 103q79 98 186 163t222 65h1117q93 0 184.5 -35t173 -95.5
t149 -141.5t111.5 -174q15 -38 25.5 -68.5t16.5 -60.5q4 -14 6 -31.5t4 -34.5q2 -21 7.5 -86t14.5 -172zM1399 520q0 -67 -13 -139.5t-42 -140t-75.5 -126.5t-113.5 -99q-11 -5 -23 -8.5t-23 -3.5q-34 0 -56.5 20t-22.5 58q0 17 7 30.5t18 24t24 18.5t24 14q15 7 23 14
q31 21 54.5 58.5t39 83t23 94.5t7.5 94q0 76 -29 142.5t-78 115.5t-114 77.5t-138 28.5q-74 0 -139.5 -29t-114 -79t-76.5 -117.5t-28 -143.5q0 -45 7.5 -94.5t22 -95t37 -81.5t52.5 -53q42 -24 66 -47t24 -61q0 -32 -22 -50.5t-56 -18.5q-8 0 -18.5 2t-18.5 7
q-72 39 -119 96t-74.5 124t-38.5 138.5t-11 138.5q0 105 39 196.5t107 160t161 107.5t200 39q73 0 143 -22t128 -56.5t101 -76t63 -80.5q6 11 22.5 31t39.5 43.5t50.5 46t55.5 39.5q61 35 126.5 55t134.5 20q104 0 197 -40.5t163.5 -109.5t111.5 -161t41 -194
q0 -101 -38.5 -193t-107 -162t-161.5 -111.5t-201 -41.5q-24 0 -61 3t-71.5 12t-59 26.5t-24.5 46.5q0 13 4.5 28.5t14.5 29t25.5 22t37.5 8.5q16 0 29.5 -6.5t23.5 -13.5q6 -4 11 -7t10 -3q16 -4 31.5 -5.5t30.5 -1.5q72 0 136.5 30t113 81t77 118.5t28.5 141.5
q0 77 -30 143t-80 114.5t-114.5 76t-134.5 27.5q-74 0 -138.5 -28t-113 -76.5t-77 -112.5t-30.5 -136z" />
    <glyph glyph-name="u1000_u103C_u102C" unicode="&#x1000;&#x103c;&#x102c;" horiz-adv-x="3346" 
d="M2394 1103q-114 300 -188 407q-37 54 -77.5 99t-86.5 82q-91 75 -193.5 114t-214.5 39h-967q-47 0 -93 -14.5t-89.5 -39.5t-84 -59t-75.5 -74q-35 -41 -63 -87t-49 -96q-42 -101 -42 -195v-1643q0 -45 8.5 -92t24.5 -93.5t40 -90t54 -81.5q30 -39 68 -71t81.5 -55
t93 -35.5t103.5 -12.5h1336q0 89 -0.5 188.5t-1 201.5t-1 202t-0.5 189q0 18 -16 37q-15 19 -15 63q0 64 37 82t85 18q45 -7 62 -40q16 -31 16 -60v-115q1 -183 2 -363t2 -363v-92q0 -21 -6 -39.5t-16.5 -33t-26.5 -23t-35 -8.5q-89 0 -184.5 -0.5t-201.5 -0.5
q-56 0 -123.5 -0.5t-138.5 -0.5h-143h-137q-67 0 -135 0.5t-138 0.5q-75 1 -150.5 1h-154.5q-117 0 -220 61t-178 154q-37 46 -66.5 98t-50.5 106t-32 108.5t-11 107.5v1745q0 109 48 228q24 60 55.5 114t71.5 103q79 98 186 163t222 65h1117q93 0 184.5 -35t173 -95.5
t149 -141.5t111.5 -174q15 -38 25.5 -68.5t16.5 -60.5q4 -14 6 -31.5t4 -34.5q2 -21 7.5 -86t14.5 -172zM1399 520q0 -67 -13 -139.5t-42 -140t-75.5 -126.5t-113.5 -99q-11 -5 -23 -8.5t-23 -3.5q-34 0 -56.5 20t-22.5 58q0 17 7 30.5t18 24t24 18.5t24 14q15 7 23 14
q31 21 54.5 58.5t39 83t23 94.5t7.5 94q0 76 -29 142.5t-78 115.5t-114 77.5t-138 28.5q-74 0 -139.5 -29t-114 -79t-76.5 -117.5t-28 -143.5q0 -45 7.5 -94.5t22 -95t37 -81.5t52.5 -53q42 -24 66 -47t24 -61q0 -32 -22 -50.5t-56 -18.5q-8 0 -18.5 2t-18.5 7
q-72 39 -119 96t-74.5 124t-38.5 138.5t-11 138.5q0 105 39 196.5t107 160t161 107.5t200 39q73 0 143 -22t128 -56.5t101 -76t63 -80.5q6 11 22.5 31t39.5 43.5t50.5 46t55.5 39.5q61 35 126.5 55t134.5 20q104 0 197 -40.5t163.5 -109.5t111.5 -161t41 -194
q0 -101 -38.5 -193t-107 -162t-161.5 -111.5t-201 -41.5q-24 0 -61 3t-71.5 12t-59 26.5t-24.5 46.5q0 13 4.5 28.5t14.5 29t25.5 22t37.5 8.5q16 0 29.5 -6.5t23.5 -13.5q6 -4 11 -7t10 -3q16 -4 31.5 -5.5t30.5 -1.5q72 0 136.5 30t113 81t77 118.5t28.5 141.5
q0 77 -30 143t-80 114.5t-114.5 76t-134.5 27.5q-74 0 -138.5 -28t-113 -76.5t-77 -112.5t-30.5 -136zM2599 156q4 0 9.5 -1.5t8.5 -3.5q2 2 3 2q47 -19 91 -19q63 0 119 21t101 59q58 65 91.5 139t33.5 148q0 66 -26.5 131.5t-73 118t-110.5 85t-139 32.5q-60 0 -124 -21.5
t-118 -63.5q-63 -57 -92 -123t-33 -134q0 -21 2.5 -31.5t9.5 -27.5l3 -6q-5 -39 -26.5 -62t-72.5 -41q-38 11 -57 56q-8 35 -12.5 67t-4.5 61q0 89 37.5 174t105 151t160.5 106.5t203 40.5q90 0 182 -33t167 -96.5t122 -156t47 -211.5q0 -56 -13 -113.5t-38 -111.5
t-61.5 -102.5t-84.5 -86.5q-75 -54 -160 -78t-176 -24q-24 0 -55 2t-58.5 9.5t-46.5 23t-19 43.5q0 8 6 21.5t16.5 26.5t25.5 22.5t33 9.5q13 0 24 -3z" />
    <glyph glyph-name="u1000_u103C_u102C_u1037" unicode="&#x1000;&#x103c;&#x102c;&#x1037;" horiz-adv-x="3355" 
d="M2394 1103q-114 300 -188 407q-37 54 -77.5 99t-86.5 82q-91 75 -193.5 114t-214.5 39h-967q-47 0 -93 -14.5t-89.5 -39.5t-84 -59t-75.5 -74q-35 -41 -63 -87t-49 -96q-42 -101 -42 -195v-1643q0 -45 8.5 -92t24.5 -93.5t40 -90t54 -81.5q30 -39 68 -71t81.5 -55
t93 -35.5t103.5 -12.5h1336q0 89 -0.5 188.5t-1 201.5t-1 202t-0.5 189q0 18 -16 37q-15 19 -15 63q0 64 37 82t85 18q45 -7 62 -40q16 -31 16 -60v-115q0 -39 1 -243.5t3 -574.5q0 -21 -6 -39.5t-16.5 -33t-26.5 -23t-35 -8.5q-89 0 -184.5 -0.5t-201.5 -0.5
q-56 0 -123.5 -0.5t-138.5 -0.5h-143h-137q-67 0 -135 0.5t-138 0.5q-75 1 -150.5 1h-154.5q-117 0 -220 61t-178 154q-37 46 -66.5 98t-50.5 106t-32 108.5t-11 107.5v1745q0 109 48 228q24 60 55.5 114t71.5 103q79 98 186 163t222 65h1117q93 0 184.5 -35t173 -95.5
t149 -141.5t111.5 -174q15 -38 25.5 -68.5t16.5 -60.5q4 -14 6 -31.5t4 -34.5q2 -21 7.5 -86t14.5 -172zM1399 520q0 -67 -13 -139.5t-42 -140t-75.5 -126.5t-113.5 -99q-11 -5 -23 -8.5t-23 -3.5q-34 0 -56.5 20t-22.5 58q0 17 7 30.5t18 24t24 18.5t24 14q15 7 23 14
q31 21 54.5 58.5t39 83t23 94.5t7.5 94q0 76 -29 142.5t-78 115.5t-114 77.5t-138 28.5q-74 0 -139.5 -29t-114 -79t-76.5 -117.5t-28 -143.5q0 -45 7.5 -94.5t22 -95t37 -81.5t52.5 -53q42 -24 66 -47t24 -61q0 -32 -22 -50.5t-56 -18.5q-8 0 -18.5 2t-18.5 7
q-72 39 -119 96t-74.5 124t-38.5 138.5t-11 138.5q0 105 39 196.5t107 160t161 107.5t200 39q73 0 143 -22t128 -56.5t101 -76t63 -80.5q6 11 22.5 31t39.5 43.5t50.5 46t55.5 39.5q61 35 126.5 55t134.5 20q104 0 197 -40.5t163.5 -109.5t111.5 -161t41 -194
q0 -101 -38.5 -193t-107 -162t-161.5 -111.5t-201 -41.5q-24 0 -61 3t-71.5 12t-59 26.5t-24.5 46.5q0 13 4.5 28.5t14.5 29t25.5 22t37.5 8.5q16 0 29.5 -6.5t23.5 -13.5q6 -4 11 -7t10 -3q16 -4 31.5 -5.5t30.5 -1.5q72 0 136.5 30t113 81t77 118.5t28.5 141.5
q0 77 -30 143t-80 114.5t-114.5 76t-134.5 27.5q-74 0 -138.5 -28t-113 -76.5t-77 -112.5t-30.5 -136zM2599 156q4 0 9.5 -1.5t8.5 -3.5q2 2 3 2q47 -19 91 -19q63 0 119 21t101 59q58 65 91.5 139t33.5 148q0 66 -26.5 131.5t-73 118t-110.5 85t-139 32.5q-60 0 -124 -21.5
t-118 -63.5q-63 -57 -92 -123t-33 -134q0 -21 2.5 -31.5t9.5 -27.5l3 -6q-5 -39 -26.5 -62t-72.5 -41q-38 11 -57 56q-8 35 -12.5 67t-4.5 61q0 89 37.5 174t105 151t160.5 106.5t203 40.5q90 0 182 -33t167 -96.5t122 -156t47 -211.5q0 -56 -13 -113.5t-38 -111.5
t-61.5 -102.5t-84.5 -86.5q-75 -54 -160 -78t-176 -24q-24 0 -55 2t-58.5 9.5t-46.5 23t-19 43.5q0 8 6 21.5t16.5 26.5t25.5 22.5t33 9.5q13 0 24 -3zM2869 -455q0 -80 -59 -139t-143 -59q-43 0 -80 15.5t-64 42.5t-42 63t-15 77q0 80 58 138q58 57 143 57q43 0 80 -15.5
t64 -42.5t42.5 -62.5t15.5 -74.5zM2712 -455q0 20 -14 34t-31 14q-16 0 -30 -14t-14 -34q0 -23 14 -37t30 -14q17 0 31 14t14 37z" />
    <glyph glyph-name="u1000_u103C_u102D" unicode="&#x1000;&#x103c;&#x102d;" horiz-adv-x="2413" 
d="M1399 520q0 -67 -13 -139.5t-42 -140t-75.5 -126.5t-113.5 -99q-11 -5 -23 -8.5t-23 -3.5q-34 0 -56.5 20t-22.5 58q0 17 7 30.5t18 24t24 18.5t24 14q15 7 23 14q31 21 54.5 58.5t39 83t23 94.5t7.5 94q0 76 -29 142.5t-78 115.5t-114 77.5t-138 28.5q-74 0 -139.5 -29
t-114 -79t-76.5 -117.5t-28 -143.5q0 -45 7.5 -94.5t22 -95t37 -81.5t52.5 -53q42 -24 66 -47t24 -61q0 -32 -22 -50.5t-56 -18.5q-8 0 -18.5 2t-18.5 7q-72 39 -119 96t-74.5 124t-38.5 138.5t-11 138.5q0 105 39 196.5t107 160t161 107.5t200 39q73 0 143 -22t128 -56.5
t101 -76t63 -80.5q6 11 22.5 31t39.5 43.5t50.5 46t55.5 39.5q61 35 126.5 55t134.5 20q104 0 197 -40.5t163.5 -109.5t111.5 -161t41 -194q0 -101 -38.5 -193t-107 -162t-161.5 -111.5t-201 -41.5q-24 0 -61 3t-71.5 12t-59 26.5t-24.5 46.5q0 13 4.5 28.5t14.5 29t25.5 22
t37.5 8.5q16 0 29.5 -6.5t23.5 -13.5q6 -4 11 -7t10 -3q16 -4 31.5 -5.5t30.5 -1.5q72 0 136.5 30t113 81t77 118.5t28.5 141.5q0 77 -30 143t-80 114.5t-114.5 76t-134.5 27.5q-74 0 -138.5 -28t-113 -76.5t-77 -112.5t-30.5 -136zM2240 1538q0 -99 -37.5 -186t-103 -152.5
t-154 -103t-190.5 -37.5t-190.5 37.5t-153.5 103t-102 152.5t-38 186q1 99 38 186.5t102 152.5t153.5 102.5t190.5 38.5q103 -1 191 -38.5t153.5 -102.5t102.5 -152.5t38 -186.5zM2092 1538q0 72 -27 134.5t-73 108.5t-107 72.5t-130 26.5t-130 -26.5t-107 -72.5
t-72.5 -108.5t-26.5 -134.5t26.5 -134.5t72.5 -108.5t107 -72.5t130 -26.5t130 26.5t107 72.5t73 108.5t27 134.5zM1503 1647q-242 108 -332 132q-44 13 -85.5 22t-79.5 16q-74 12 -140.5 17t-110.5 5q-27 0 -46.5 -0.5t-30.5 -1.5h-11q-63 0 -124 -24.5t-116 -66.5
t-102 -98t-81 -119t-53.5 -129.5t-19.5 -129.5v-1614q0 -60 15 -122.5t43 -121.5t69 -111t93.5 -90.5t116 -61t136.5 -21.5h1336q0 21 -3 327q0 77 -0.5 137.5t-0.5 106.5q0 47 -0.5 77.5t-0.5 46.5q0 17 -16 36t-16 68q0 63 42 78t79 15q48 0 65 -36q17 -37 17 -64v-106
q1 -186 2 -369t2 -369q0 -21 -6 -39.5t-17.5 -33t-27.5 -23t-35 -8.5h-1504q-121 0 -222 61q-101 62 -177 154q-75 94 -118 203.5t-43 215.5v1716q0 108 47 228q48 119 128 217q79 98 186 163t222 65h8t12 1l35 2.5t47 1.5q57 0 133 -8.5t166 -35.5q45 -14 93.5 -33
t98.5 -44q102 -50 327 -232z" />
    <glyph glyph-name="u1000_u103C_u102E" unicode="&#x1000;&#x103c;&#x102e;" horiz-adv-x="2413" 
d="M1399 520q0 -67 -13 -139.5t-42 -140t-75.5 -126.5t-113.5 -99q-11 -5 -23 -8.5t-23 -3.5q-34 0 -56.5 20t-22.5 58q0 17 7 30.5t18 24t24 18.5t24 14q15 7 23 14q31 21 54.5 58.5t39 83t23 94.5t7.5 94q0 76 -29 142.5t-78 115.5t-114 77.5t-138 28.5q-74 0 -139.5 -29
t-114 -79t-76.5 -117.5t-28 -143.5q0 -45 7.5 -94.5t22 -95t37 -81.5t52.5 -53q42 -24 66 -47t24 -61q0 -32 -22 -50.5t-56 -18.5q-8 0 -18.5 2t-18.5 7q-72 39 -119 96t-74.5 124t-38.5 138.5t-11 138.5q0 105 39 196.5t107 160t161 107.5t200 39q73 0 143 -22t128 -56.5
t101 -76t63 -80.5q6 11 22.5 31t39.5 43.5t50.5 46t55.5 39.5q61 35 126.5 55t134.5 20q104 0 197 -40.5t163.5 -109.5t111.5 -161t41 -194q0 -101 -38.5 -193t-107 -162t-161.5 -111.5t-201 -41.5q-24 0 -61 3t-71.5 12t-59 26.5t-24.5 46.5q0 13 4.5 28.5t14.5 29t25.5 22
t37.5 8.5q16 0 29.5 -6.5t23.5 -13.5q6 -4 11 -7t10 -3q16 -4 31.5 -5.5t30.5 -1.5q72 0 136.5 30t113 81t77 118.5t28.5 141.5q0 77 -30 143t-80 114.5t-114.5 76t-134.5 27.5q-74 0 -138.5 -28t-113 -76.5t-77 -112.5t-30.5 -136zM1503 1647q-242 108 -332 132
q-44 13 -85.5 22t-79.5 16q-74 12 -140.5 17t-110.5 5q-27 0 -46.5 -0.5t-30.5 -1.5h-11q-63 0 -124 -24.5t-116 -66.5t-102 -98t-81 -119t-53.5 -129.5t-19.5 -129.5v-1614q0 -60 15 -122.5t43 -121.5t69 -111t93.5 -90.5t116 -61t136.5 -21.5h1336q0 21 -3 327
q0 77 -0.5 137.5t-0.5 106.5q0 47 -0.5 77.5t-0.5 46.5q0 17 -16 36t-16 68q0 63 42 78t79 15q48 0 65 -36q17 -37 17 -64v-106q1 -186 2 -369t2 -369q0 -21 -6 -39.5t-17.5 -33t-27.5 -23t-35 -8.5q-90 0 -186 -0.5t-202 -0.5q-56 0 -123.5 -0.5t-138.5 -0.5h-142.5h-136.5
q-66 0 -133.5 0.5t-136.5 0.5q-74 1 -149.5 1h-155.5q-121 0 -222 61q-101 62 -177 154q-75 94 -118 203.5t-43 215.5v1716q0 108 47 228q48 119 128 217q79 98 186 163t222 65h8t12 1l35 2.5t47 1.5q57 0 133 -8.5t166 -35.5q45 -14 93.5 -33t98.5 -44q102 -50 327 -232z
M2235 1536q-1 -99 -38 -186.5t-102.5 -152.5t-153.5 -102.5t-191 -38.5q-103 1 -191 38.5t-153.5 102.5t-102.5 152.5t-38 186.5q1 99 38 186.5t102.5 152.5t153.5 102.5t191 38.5q103 -1 191 -38.5t153.5 -102.5t102.5 -152.5t38 -186.5zM1474 1333q2 8 25 22.5t61 31.5
q41 19 90.5 29t104.5 10q53 0 101 -9.5t87 -27.5q37 -17 60 -30t26 -21q12 14 34 70q11 29 17.5 62.5t6.5 65.5q0 72 -27 134.5t-73 108.5t-107 72.5t-130 26.5t-130 -26.5t-107 -72.5t-73 -108.5t-27 -134.5q0 -34 7 -68t19 -64q14 -30 22.5 -48t12.5 -23zM1893 1245
q0 20 -38 37.5t-100 17.5q-32 0 -58 -5t-44.5 -12.5t-29 -17.5t-10.5 -20q0 -18 39.5 -34.5t102.5 -16.5t100.5 16.5t37.5 34.5z" />
    <glyph glyph-name="u1000_u103C_u102E_u1037" unicode="&#x1000;&#x103c;&#x102e;&#x1037;" horiz-adv-x="2312" 
d="M1299 520q0 -67 -13 -139.5t-42 -140t-75.5 -126.5t-113.5 -99q-11 -5 -23 -8.5t-23 -3.5q-34 0 -56.5 20t-22.5 58q0 17 7 30.5t18 24t24 18.5t24 14q15 7 23 14q31 21 54.5 58.5t39 83t23 94.5t7.5 94q0 76 -29 142.5t-78 115.5t-114 77.5t-138 28.5q-74 0 -139.5 -29
t-114 -79t-76.5 -117.5t-28 -143.5q0 -45 7.5 -94.5t22 -95t37 -81.5t52.5 -53q42 -24 66 -47t24 -61q0 -32 -22 -50.5t-56 -18.5q-8 0 -18.5 2t-18.5 7q-72 39 -119 96t-74.5 124t-38.5 138.5t-11 138.5q0 105 39 196.5t107 160t161 107.5t200 39q73 0 143 -22t128 -56.5
t101 -76t63 -80.5q6 11 22.5 31t39.5 43.5t50.5 46t55.5 39.5q61 35 126.5 55t134.5 20q104 0 197 -40.5t163.5 -109.5t111.5 -161t41 -194q0 -101 -38.5 -193t-107 -162t-161.5 -111.5t-201 -41.5q-24 0 -61 3t-71.5 12t-59 26.5t-24.5 46.5q0 13 4.5 28.5t14.5 29t25.5 22
t37.5 8.5q16 0 29.5 -6.5t23.5 -13.5q6 -4 11 -7t10 -3q16 -4 31.5 -5.5t30.5 -1.5q72 0 136.5 30t113 81t77 118.5t28.5 141.5q0 77 -30 143t-80 114.5t-114.5 76t-134.5 27.5q-74 0 -138.5 -28t-113 -76.5t-77 -112.5t-30.5 -136zM1503 1647q-242 108 -332 132
q-44 13 -85.5 22t-79.5 16q-74 12 -140.5 17t-110.5 5q-27 0 -46.5 -0.5t-30.5 -1.5h-11q-63 0 -124 -24.5t-116 -66.5t-102 -98t-81 -119t-53.5 -129.5t-19.5 -129.5v-1614q0 -60 15 -122.5t43 -121.5t69 -111t93.5 -90.5t116 -61t136.5 -21.5h1236l-5 695q0 17 -16 36
t-16 68q0 63 42 78t79 15q48 0 65 -36q17 -37 17 -64v-106q1 -186 2 -369t2 -369q0 -21 -6 -39.5t-17.5 -33t-27.5 -23t-35 -8.5h-113.5h-174.5h-214.5h-232.5h-228h-202h-154.5h-84.5q-121 0 -222 61q-101 62 -177 154q-75 94 -118 203.5t-43 215.5v1716q0 108 47 228
q48 119 128 217q79 98 186 163t222 65h8t12 1l35 2.5t47 1.5q57 0 133 -8.5t166 -35.5q45 -14 93.5 -33t98.5 -44q102 -50 327 -232zM2135 1536q-1 -99 -38 -186.5t-102.5 -152.5t-153.5 -102.5t-191 -38.5q-103 1 -191 38.5t-153.5 102.5t-102.5 152.5t-38 186.5
q1 99 38 186.5t102.5 152.5t153.5 102.5t191 38.5q103 -1 191 -38.5t153.5 -102.5t102.5 -152.5t38 -186.5zM1374 1333q2 8 25 22.5t61 31.5q41 19 90.5 29t104.5 10q53 0 101 -9.5t87 -27.5q37 -17 60 -30t26 -21q12 14 34 70q11 29 17.5 62.5t6.5 65.5q0 72 -27 134.5
t-73 108.5t-107 72.5t-130 26.5t-130 -26.5t-107 -72.5t-73 -108.5t-27 -134.5q0 -34 7 -68t19 -64q14 -30 22.5 -48t12.5 -23zM1793 1245q0 20 -38 37.5t-100 17.5q-32 0 -58 -5t-44.5 -12.5t-29 -17.5t-10.5 -20q0 -18 39.5 -34.5t102.5 -16.5t100.5 16.5t37.5 34.5z
M1629 -455q0 -80 -59 -139t-143 -59q-43 0 -80 15.5t-64 42.5t-42 63t-15 77q0 80 58 138q58 57 143 57q43 0 80 -15.5t64 -42.5t42.5 -62.5t15.5 -74.5zM1472 -455q0 20 -14 34t-31 14q-16 0 -30 -14t-14 -34q0 -23 14 -37t30 -14q17 0 31 14t14 37z" />
    <glyph glyph-name="u1000_u103C_u102F" unicode="&#x1000;&#x103c;&#x102f;" horiz-adv-x="2414" 
d="M2394 1103q-114 300 -188 407q-37 54 -77.5 99t-86.5 82q-91 75 -193.5 114t-214.5 39h-967q-47 0 -93 -14.5t-89.5 -39.5t-84 -59t-75.5 -74q-35 -41 -63 -87t-49 -96q-42 -101 -42 -195v-1643q0 -45 8.5 -92t24.5 -93.5t40 -90t54 -81.5q30 -39 68 -71t81.5 -55
t93 -35.5t103.5 -12.5h1046q0 89 -0.5 188.5t-1 201.5t-1 202t-0.5 189q0 18 -16 37q-15 19 -15 63q0 64 37 82t85 18q45 -7 62 -40q16 -31 16 -60v-115q0 -39 1 -243.5t3 -574.5q0 -21 -6 -39.5t-16.5 -33t-26.5 -23t-35 -8.5h-1216q-117 0 -220 61t-178 154
q-37 46 -66.5 98t-50.5 106t-32 108.5t-11 107.5v1745q0 109 48 228q24 60 55.5 114t71.5 103q79 98 186 163t222 65h1117q93 0 184.5 -35t173 -95.5t149 -141.5t111.5 -174q15 -38 25.5 -68.5t16.5 -60.5q4 -14 6 -31.5t4 -34.5q2 -21 7.5 -86t14.5 -172zM1399 520
q0 -67 -13 -139.5t-42 -140t-75.5 -126.5t-113.5 -99q-11 -5 -23 -8.5t-23 -3.5q-34 0 -56.5 20t-22.5 58q0 17 7 30.5t18 24t24 18.5t24 14q15 7 23 14q31 21 54.5 58.5t39 83t23 94.5t7.5 94q0 76 -29 142.5t-78 115.5t-114 77.5t-138 28.5q-74 0 -139.5 -29t-114 -79
t-76.5 -117.5t-28 -143.5q0 -45 7.5 -94.5t22 -95t37 -81.5t52.5 -53q42 -24 66 -47t24 -61q0 -32 -22 -50.5t-56 -18.5q-8 0 -18.5 2t-18.5 7q-72 39 -119 96t-74.5 124t-38.5 138.5t-11 138.5q0 105 39 196.5t107 160t161 107.5t200 39q73 0 143 -22t128 -56.5t101 -76
t63 -80.5q6 11 22.5 31t39.5 43.5t50.5 46t55.5 39.5q61 35 126.5 55t134.5 20q104 0 197 -40.5t163.5 -109.5t111.5 -161t41 -194q0 -101 -38.5 -193t-107 -162t-161.5 -111.5t-201 -41.5q-24 0 -61 3t-71.5 12t-59 26.5t-24.5 46.5q0 13 4.5 28.5t14.5 29t25.5 22
t37.5 8.5q16 0 29.5 -6.5t23.5 -13.5q6 -4 11 -7t10 -3q16 -4 31.5 -5.5t30.5 -1.5q72 0 136.5 30t113 81t77 118.5t28.5 141.5q0 77 -30 143t-80 114.5t-114.5 76t-134.5 27.5q-74 0 -138.5 -28t-113 -76.5t-77 -112.5t-30.5 -136zM2101 18q40 0 60 -32q19 -31 19 -61v-811
h627l7 4q7 3 16 9t17.5 16.5t14 26t5.5 36.5q0 74 -48 115q-46 40 -115 40q-41 0 -195 -35q124 97 173 112t92 15q44 0 86.5 -14.5t76 -44.5t54 -76.5t20.5 -111.5q0 -62 -24 -107.5t-57.5 -75t-68.5 -44t-57 -14.5h-708q-34 0 -58 32q-24 31 -24 68v769q0 17 -14 34
q-13 16 -13 59q0 57 33 74q34 17 81 17z" />
    <glyph glyph-name="u1000_u103C_u1030" unicode="&#x1000;&#x103c;&#x1030;" horiz-adv-x="2407" 
d="M1399 520q0 -67 -13 -139.5t-42 -140t-75.5 -126.5t-113.5 -99q-11 -5 -23 -8.5t-23 -3.5q-34 0 -56.5 20t-22.5 58q0 17 7 30.5t18 24t24 18.5t24 14q15 7 23 14q31 21 54.5 58.5t39 83t23 94.5t7.5 94q0 76 -29 142.5t-78 115.5t-114 77.5t-138 28.5q-74 0 -139.5 -29
t-114 -79t-76.5 -117.5t-28 -143.5q0 -45 7.5 -94.5t22 -95t37 -81.5t52.5 -53q42 -24 66 -47t24 -61q0 -32 -22 -50.5t-56 -18.5q-8 0 -18.5 2t-18.5 7q-72 39 -119 96t-74.5 124t-38.5 138.5t-11 138.5q0 105 39 196.5t107 160t161 107.5t200 39q73 0 143 -22t128 -56.5
t101 -76t63 -80.5q6 11 22.5 31t39.5 43.5t50.5 46t55.5 39.5q61 35 126.5 55t134.5 20q104 0 197 -40.5t163.5 -109.5t111.5 -161t41 -194q0 -101 -38.5 -193t-107 -162t-161.5 -111.5t-201 -41.5q-24 0 -61 3t-71.5 12t-59 26.5t-24.5 46.5q0 13 4.5 28.5t14.5 29t25.5 22
t37.5 8.5q16 0 29.5 -6.5t23.5 -13.5q6 -4 11 -7t10 -3q16 -4 31.5 -5.5t30.5 -1.5q72 0 136.5 30t113 81t77 118.5t28.5 141.5q0 77 -30 143t-80 114.5t-114.5 76t-134.5 27.5q-74 0 -138.5 -28t-113 -76.5t-77 -112.5t-30.5 -136zM2094 14q39 0 59 -30q19 -29 19 -60v-812
h628l8 4q7 1 16 7t17 17t13.5 27t5.5 37q0 36 -12.5 64.5t-34.5 48.5t-52 30.5t-65 10.5q-22 0 -46 -3t-138 -21q114 87 161 101q49 15 91 15q45 0 88 -14.5t76.5 -44.5t54.5 -76.5t21 -110.5q0 -63 -24.5 -108t-58 -74.5t-68.5 -43.5t-57 -14h-708q-32 0 -57 30
q-25 29 -25 70v768q0 17 -13 33t-13 59q0 60 33 75t81 15zM1850 -850q0 -16 16 -35t16 -63q0 -46 -31 -68t-65 -22q-26 0 -44.5 8t-30.5 21t-17.5 30t-5.5 35v776q0 17 -16 33t-16 61q0 24 8 40.5t21.5 27t31.5 15.5t37 5q96 0 96 -90v-774zM560 -1039q-117 0 -220 61
t-178 154q-73 91 -117 203q-43 110 -43 216v1732q0 109 48 228q24 60 55.5 114t71.5 103q79 98 186 163t222 65h1117q93 -1 184.5 -36t172.5 -95.5t148.5 -141.5t112.5 -174q15 -38 25.5 -68t16.5 -60q4 -14 6 -31.5t4 -34.5q2 -21 7.5 -86t14.5 -172q-114 300 -188 407
q-37 54 -77.5 98.5t-86.5 81.5q-91 75 -193.5 114t-214.5 39h-967q-47 0 -93 -14t-89.5 -39t-84 -59t-75.5 -74q-35 -41 -63 -87t-49 -96q-42 -101 -42 -195v-1630q0 -45 8.5 -92t24.5 -93.5t40 -90t54 -81.5q61 -78 149 -125.5t197 -47.5h721q11 0 28 16q18 15 68 15
q60 0 81 -32q21 -33 21 -74q0 -23 -10 -38t-26.5 -25t-38 -14t-45.5 -4h-883z" />
    <glyph glyph-name="u1000_u103C_u1030_u1037" unicode="&#x1000;&#x103c;&#x1030;&#x1037;" horiz-adv-x="2412" 
d="M1399 520q0 -67 -13 -139.5t-42 -140t-75.5 -126.5t-113.5 -99q-11 -5 -23 -8.5t-23 -3.5q-34 0 -56.5 20t-22.5 58q0 17 7 30.5t18 24t24 18.5t24 14q15 7 23 14q31 21 54.5 58.5t39 83t23 94.5t7.5 94q0 76 -29 142.5t-78 115.5t-114 77.5t-138 28.5q-74 0 -139.5 -29
t-114 -79t-76.5 -117.5t-28 -143.5q0 -45 7.5 -94.5t22 -95t37 -81.5t52.5 -53q42 -24 66 -47t24 -61q0 -32 -22 -50.5t-56 -18.5q-8 0 -18.5 2t-18.5 7q-72 39 -119 96t-74.5 124t-38.5 138.5t-11 138.5q0 105 39 196.5t107 160t161 107.5t200 39q73 0 143 -22t128 -56.5
t101 -76t63 -80.5q6 11 22.5 31t39.5 43.5t50.5 46t55.5 39.5q61 35 126.5 55t134.5 20q104 0 197 -40.5t163.5 -109.5t111.5 -161t41 -194q0 -101 -38.5 -193t-107 -162t-161.5 -111.5t-201 -41.5q-24 0 -61 3t-71.5 12t-59 26.5t-24.5 46.5q0 13 4.5 28.5t14.5 29t25.5 22
t37.5 8.5q16 0 29.5 -6.5t23.5 -13.5q6 -4 11 -7t10 -3q16 -4 31.5 -5.5t30.5 -1.5q72 0 136.5 30t113 81t77 118.5t28.5 141.5q0 77 -30 143t-80 114.5t-114.5 76t-134.5 27.5q-74 0 -138.5 -28t-113 -76.5t-77 -112.5t-30.5 -136zM2094 14q39 0 59 -30q19 -29 19 -60v-812
h628l8 4q7 1 16 7t17 17t13.5 27t5.5 37q0 36 -12.5 64.5t-34.5 48.5t-52 30.5t-65 10.5q-22 0 -46 -3t-138 -21q114 87 161 101q49 15 91 15q45 0 88 -14.5t76.5 -44.5t54.5 -76.5t21 -110.5q0 -63 -24.5 -108t-58 -74.5t-68.5 -43.5t-57 -14h-708q-32 0 -57 30
q-25 29 -25 70v768q0 17 -13 33t-13 59q0 60 33 75t81 15zM1850 -850q0 -16 16 -35t16 -63q0 -46 -31 -68t-65 -22q-26 0 -44.5 8t-30.5 21t-17.5 30t-5.5 35v776q0 17 -16 33t-16 61q0 24 8 40.5t21.5 27t31.5 15.5t37 5q96 0 96 -90v-774zM560 -1039q-117 0 -220 61
t-178 154q-73 91 -117 203q-43 110 -43 216v1732q0 109 48 228q24 60 55.5 114t71.5 103q79 98 186 163t222 65h1117q93 -1 184.5 -36t172.5 -95.5t148.5 -141.5t112.5 -174q15 -38 25.5 -68t16.5 -60q4 -14 6 -31.5t4 -34.5q2 -21 7.5 -86t14.5 -172q-114 300 -188 407
q-37 54 -77.5 98.5t-86.5 81.5q-91 75 -193.5 114t-214.5 39h-967q-47 0 -93 -14t-89.5 -39t-84 -59t-75.5 -74q-35 -41 -63 -87t-49 -96q-42 -101 -42 -195v-1630q0 -45 8.5 -92t24.5 -93.5t40 -90t54 -81.5q61 -78 149 -125.5t197 -47.5h721q11 0 28 16q18 15 68 15
q60 0 81 -32q21 -33 21 -74q0 -23 -10 -38t-26.5 -25t-38 -14t-45.5 -4h-883zM2683 -295q0 -80 -59 -139t-143 -59q-43 0 -80 15.5t-64 42.5t-42 63t-15 77q0 80 58 138q58 57 143 57q43 0 80 -15.5t64 -42.5t42.5 -62.5t15.5 -74.5zM2526 -295q0 20 -14 34t-31 14
q-16 0 -30 -14t-14 -34q0 -23 14 -37t30 -14q17 0 31 14t14 37z" />
    <glyph glyph-name="u1000_u103C_u1031" unicode="&#x1000;&#x103c;&#x1031;" horiz-adv-x="3468" 
d="M311 185q3 -16 4 -16t1 4v27q0 61 24 117t65.5 98t98 67t122.5 25q56 0 109.5 -18.5t95 -51t67 -77.5t25.5 -97q0 -69 -43.5 -119t-109 -82t-142 -47t-142.5 -15q-108 0 -196.5 40t-152 108.5t-98.5 160t-35 194.5q0 107 39.5 200.5t108 162.5t161 109t199.5 40
q68 0 133 -19t122 -53t104 -80t80 -101q4 -7 6.5 -14.5t2.5 -13.5q0 -11 -6.5 -24t-18.5 -24t-28.5 -18t-35.5 -7q-21 0 -34.5 6t-22.5 16t-14.5 21.5t-9.5 22.5q-3 8 -5 14.5t-7 11.5q-46 57 -115 90t-151 33q-74 0 -140 -28.5t-115 -78.5t-77.5 -118.5t-28.5 -147.5
q0 -59 14.5 -112t38 -95t52 -71t55.5 -40zM468 140q2 -1 29 -1q38 0 85 6t87.5 21t68 39t27.5 60q0 22 -13 42t-33 34.5t-44.5 23t-48.5 8.5q-33 0 -64 -13.5t-54.5 -36.5t-37.5 -55t-14 -68q0 -14 3 -27t6 -22q1 -4 2 -8.5t1 -2.5zM3450 1103q-114 300 -188 407
q-37 54 -77.5 99t-86.5 82q-91 75 -193.5 114t-214.5 39h-967q-47 0 -93 -14.5t-89.5 -39.5t-84 -59t-75.5 -74q-35 -41 -63 -87t-49 -96q-42 -101 -42 -195v-1643q0 -45 8.5 -92t24.5 -93.5t40 -90t54 -81.5q30 -39 68 -71t81.5 -55t93 -35.5t103.5 -12.5h1336l-3 781
q0 18 -16 37q-15 19 -15 63q0 64 37 82t85 18q45 -7 62 -40q16 -31 16 -60v-115l4 -818q0 -21 -6 -39.5t-16.5 -33t-26.5 -23t-35 -8.5h-1506q-117 0 -220 61t-178 154q-37 46 -66.5 98t-50.5 106t-32 108.5t-11 107.5v1745q0 109 48 228q24 60 55.5 114t71.5 103
q79 98 186 163t222 65h1117q93 0 184.5 -35t173 -95.5t149 -141.5t111.5 -174q15 -38 25.5 -68.5t16.5 -60.5q4 -14 6 -31.5t4 -34.5q2 -21 7.5 -86t14.5 -172zM2455 520q0 -67 -13 -139.5t-42 -140t-75.5 -126.5t-113.5 -99q-11 -5 -23 -8.5t-23 -3.5q-34 0 -56.5 20
t-22.5 58q0 17 7 30.5t18 24t24 18.5t24 14q15 7 23 14q31 21 54.5 58.5t39 83t23 94.5t7.5 94q0 76 -29 142.5t-78 115.5t-114 77.5t-138 28.5q-74 0 -139.5 -29t-114 -79t-76.5 -117.5t-28 -143.5q0 -45 7.5 -94.5t22 -95t37 -81.5t52.5 -53q42 -24 66 -47t24 -61
q0 -32 -22 -50.5t-56 -18.5q-8 0 -18.5 2t-18.5 7q-72 39 -119 96t-74.5 124t-38.5 138.5t-11 138.5q0 105 39 196.5t107 160t161 107.5t200 39q73 0 143 -22t128 -56.5t101 -76t63 -80.5q6 11 22.5 31t39.5 43.5t50.5 46t55.5 39.5q61 35 126.5 55t134.5 20
q104 0 197 -40.5t163.5 -109.5t111.5 -161t41 -194q0 -101 -38.5 -193t-107 -162t-161.5 -111.5t-201 -41.5q-24 0 -61 3t-71.5 12t-59 26.5t-24.5 46.5q0 13 4.5 28.5t14.5 29t25.5 22t37.5 8.5q16 0 29.5 -6.5t23.5 -13.5q6 -4 11 -7t10 -3q16 -4 31.5 -5.5t30.5 -1.5
q72 0 136.5 30t113 81t77 118.5t28.5 141.5q0 77 -30 143t-80 114.5t-114.5 76t-134.5 27.5q-74 0 -138.5 -28t-113 -76.5t-77 -112.5t-30.5 -136z" />
    <glyph glyph-name="u1000_u103C_u1031_u1037" unicode="&#x1000;&#x103c;&#x1031;&#x1037;" horiz-adv-x="3475" 
d="M312 185q3 -16 4 -16t1 4v27q0 61 24 117t65.5 98t98 67t122.5 25q56 0 109.5 -18.5t95 -51t67 -77.5t25.5 -97q0 -69 -43.5 -119t-109 -82t-142 -47t-142.5 -15q-108 0 -196.5 40t-152 108.5t-98.5 160t-35 194.5q0 107 39.5 200.5t108 162.5t161 109t199.5 40
q68 0 133 -19t122 -53t104 -80t80 -101q4 -7 6.5 -14.5t2.5 -13.5q0 -11 -6.5 -24t-18.5 -24t-28.5 -18t-35.5 -7q-21 0 -34.5 6t-22.5 16t-14.5 21.5t-9.5 22.5q-3 8 -5 14.5t-7 11.5q-46 57 -115 90t-151 33q-74 0 -140 -28.5t-115 -78.5t-77.5 -118.5t-28.5 -147.5
q0 -59 14.5 -112t38 -95t52 -71t55.5 -40zM469 140q2 -1 29 -1q38 0 85 6t87.5 21t68 39t27.5 60q0 22 -13 42t-33 34.5t-44.5 23t-48.5 8.5q-33 0 -64 -13.5t-54.5 -36.5t-37.5 -55t-14 -68q0 -14 3 -27t6 -22q1 -4 2 -8.5t1 -2.5zM3461 1103q-114 300 -188 407
q-37 54 -77.5 99t-86.5 82q-91 75 -193.5 114t-214.5 39h-967q-47 0 -93 -14.5t-89.5 -39.5t-84 -59t-75.5 -74q-35 -41 -63 -87t-49 -96q-42 -101 -42 -195v-1643q0 -45 8.5 -92t24.5 -93.5t40 -90t54 -81.5q30 -39 68 -71t81.5 -55t93 -35.5t103.5 -12.5h1336l-3 781
q0 18 -16 37q-15 19 -15 63q0 64 37 82t85 18q45 -7 62 -40q16 -31 16 -60v-115l4 -818q0 -21 -6 -39.5t-16.5 -33t-26.5 -23t-35 -8.5h-1506q-117 0 -220 61t-178 154q-37 46 -66.5 98t-50.5 106t-32 108.5t-11 107.5v1745q0 109 48 228q24 60 55.5 114t71.5 103
q79 98 186 163t222 65h1117q93 0 184.5 -35t173 -95.5t149 -141.5t111.5 -174q15 -38 25.5 -68.5t16.5 -60.5q4 -14 6 -31.5t4 -34.5q2 -21 7.5 -86t14.5 -172zM2466 520q0 -67 -13 -139.5t-42 -140t-75.5 -126.5t-113.5 -99q-11 -5 -23 -8.5t-23 -3.5q-34 0 -56.5 20
t-22.5 58q0 17 7 30.5t18 24t24 18.5t24 14q15 7 23 14q31 21 54.5 58.5t39 83t23 94.5t7.5 94q0 76 -29 142.5t-78 115.5t-114 77.5t-138 28.5q-74 0 -139.5 -29t-114 -79t-76.5 -117.5t-28 -143.5q0 -45 7.5 -94.5t22 -95t37 -81.5t52.5 -53q42 -24 66 -47t24 -61
q0 -32 -22 -50.5t-56 -18.5q-8 0 -18.5 2t-18.5 7q-72 39 -119 96t-74.5 124t-38.5 138.5t-11 138.5q0 105 39 196.5t107 160t161 107.5t200 39q73 0 143 -22t128 -56.5t101 -76t63 -80.5q6 11 22.5 31t39.5 43.5t50.5 46t55.5 39.5q61 35 126.5 55t134.5 20
q104 0 197 -40.5t163.5 -109.5t111.5 -161t41 -194q0 -101 -38.5 -193t-107 -162t-161.5 -111.5t-201 -41.5q-24 0 -61 3t-71.5 12t-59 26.5t-24.5 46.5q0 13 4.5 28.5t14.5 29t25.5 22t37.5 8.5q16 0 29.5 -6.5t23.5 -13.5q6 -4 11 -7t10 -3q16 -4 31.5 -5.5t30.5 -1.5
q72 0 136.5 30t113 81t77 118.5t28.5 141.5q0 77 -30 143t-80 114.5t-114.5 76t-134.5 27.5q-74 0 -138.5 -28t-113 -76.5t-77 -112.5t-30.5 -136zM2839 -455q0 -80 -59 -139t-143 -59q-43 0 -80 15.5t-64 42.5t-42 63t-15 77q0 80 58 138q58 57 143 57q43 0 80 -15.5
t64 -42.5t42.5 -62.5t15.5 -74.5zM2682 -455q0 20 -14 34t-31 14q-16 0 -30 -14t-14 -34q0 -23 14 -37t30 -14q17 0 31 14t14 37z" />
    <glyph glyph-name="u1000_u103C_u1032" unicode="&#x1000;&#x103c;&#x1032;" horiz-adv-x="2413" 
d="M1399 520q0 -67 -13 -139.5t-42 -140t-75.5 -126.5t-113.5 -99q-11 -5 -23 -8.5t-23 -3.5q-34 0 -56.5 20t-22.5 58q0 17 7 30.5t18 24t24 18.5t24 14q15 7 23 14q31 21 54.5 58.5t39 83t23 94.5t7.5 94q0 76 -29 142.5t-78 115.5t-114 77.5t-138 28.5q-74 0 -139.5 -29
t-114 -79t-76.5 -117.5t-28 -143.5q0 -45 7.5 -94.5t22 -95t37 -81.5t52.5 -53q42 -24 66 -47t24 -61q0 -32 -22 -50.5t-56 -18.5q-8 0 -18.5 2t-18.5 7q-72 39 -119 96t-74.5 124t-38.5 138.5t-11 138.5q0 105 39 196.5t107 160t161 107.5t200 39q73 0 143 -22t128 -56.5
t101 -76t63 -80.5q6 11 22.5 31t39.5 43.5t50.5 46t55.5 39.5q61 35 126.5 55t134.5 20q104 0 197 -40.5t163.5 -109.5t111.5 -161t41 -194q0 -101 -38.5 -193t-107 -162t-161.5 -111.5t-201 -41.5q-24 0 -61 3t-71.5 12t-59 26.5t-24.5 46.5q0 13 4.5 28.5t14.5 29t25.5 22
t37.5 8.5q16 0 29.5 -6.5t23.5 -13.5q6 -4 11 -7t10 -3q16 -4 31.5 -5.5t30.5 -1.5q72 0 136.5 30t113 81t77 118.5t28.5 141.5q0 77 -30 143t-80 114.5t-114.5 76t-134.5 27.5q-74 0 -138.5 -28t-113 -76.5t-77 -112.5t-30.5 -136zM1503 1647q-242 108 -332 132
q-44 13 -85.5 22t-79.5 16q-74 12 -140.5 17t-110.5 5q-27 0 -46.5 -0.5t-30.5 -1.5h-11q-63 0 -124 -24.5t-116 -66.5t-102 -98t-81 -119t-53.5 -129.5t-19.5 -129.5v-1614q0 -60 15 -122.5t43 -121.5t69 -111t93.5 -90.5t116 -61t136.5 -21.5h1336q-1 38 -1.5 101.5
t-1 137t-1 150.5t-1 141.5t-0.5 109.5v55q0 17 -16 36t-16 68q0 63 42 78t79 15q48 0 65 -36q17 -37 17 -64v-106l4 -738q0 -21 -6 -39.5t-17.5 -33t-27.5 -23t-35 -8.5h-1504q-121 0 -222 61q-101 62 -177 154q-75 94 -118 203.5t-43 215.5v1716q0 108 47 228
q48 119 128 217q79 98 186 163t222 65h8t12 1l35 2.5t47 1.5q57 0 133 -8.5t166 -35.5q45 -14 93.5 -33t98.5 -44q102 -50 327 -232zM2271 1230q19 -11 44 -20t58 -9q22 0 118 21q-73 -81 -127 -94q-54 -12 -98 -12q-57 0 -125 28.5t-143.5 80t-156.5 124t-163 159.5
q-57 62 -105.5 122t-84.5 110t-58 84.5t-26 45.5q-4 5 -14.5 21t-21.5 37t-19.5 43.5t-8.5 42.5q0 31 24 51.5t61 20.5q58 0 79 -35q10 -17 15.5 -32t5.5 -26v-22q0 -10 -1 -11q13 -15 73 -111q60 -97 200 -251q43 -48 92 -92.5t98 -84t95 -72t84 -57.5t65.5 -41t39.5 -21z
" />
    <glyph glyph-name="u1000_u103C_u1032_u1037" unicode="&#x1000;&#x103c;&#x1032;&#x1037;" horiz-adv-x="2412" 
d="M1399 520q0 -67 -13 -139.5t-42 -140t-75.5 -126.5t-113.5 -99q-11 -5 -23 -8.5t-23 -3.5q-34 0 -56.5 20t-22.5 58q0 17 7 30.5t18 24t24 18.5t24 14q15 7 23 14q31 21 54.5 58.5t39 83t23 94.5t7.5 94q0 76 -29 142.5t-78 115.5t-114 77.5t-138 28.5q-74 0 -139.5 -29
t-114 -79t-76.5 -117.5t-28 -143.5q0 -45 7.5 -94.5t22 -95t37 -81.5t52.5 -53q42 -24 66 -47t24 -61q0 -32 -22 -50.5t-56 -18.5q-8 0 -18.5 2t-18.5 7q-72 39 -119 96t-74.5 124t-38.5 138.5t-11 138.5q0 105 39 196.5t107 160t161 107.5t200 39q73 0 143 -22t128 -56.5
t101 -76t63 -80.5q6 11 22.5 31t39.5 43.5t50.5 46t55.5 39.5q61 35 126.5 55t134.5 20q104 0 197 -40.5t163.5 -109.5t111.5 -161t41 -194q0 -101 -38.5 -193t-107 -162t-161.5 -111.5t-201 -41.5q-24 0 -61 3t-71.5 12t-59 26.5t-24.5 46.5q0 13 4.5 28.5t14.5 29t25.5 22
t37.5 8.5q16 0 29.5 -6.5t23.5 -13.5q6 -4 11 -7t10 -3q16 -4 31.5 -5.5t30.5 -1.5q72 0 136.5 30t113 81t77 118.5t28.5 141.5q0 77 -30 143t-80 114.5t-114.5 76t-134.5 27.5q-74 0 -138.5 -28t-113 -76.5t-77 -112.5t-30.5 -136zM1503 1647q-242 108 -332 132
q-44 13 -85.5 22t-79.5 16q-74 12 -140.5 17t-110.5 5q-27 0 -46.5 -0.5t-30.5 -1.5h-11q-63 0 -124 -24.5t-116 -66.5t-102 -98t-81 -119t-53.5 -129.5t-19.5 -129.5v-1614q0 -60 15 -122.5t43 -121.5t69 -111t93.5 -90.5t116 -61t136.5 -21.5h1336q-1 38 -1.5 101.5
t-1 137t-1 150.5t-1 141.5t-0.5 109.5v55q0 17 -16 36t-16 68q0 63 42 78t79 15q48 0 65 -36q17 -37 17 -64v-106l4 -738q0 -21 -6 -39.5t-17.5 -33t-27.5 -23t-35 -8.5h-1504q-121 0 -222 61q-101 62 -177 154q-75 94 -118 203.5t-43 215.5v1716q0 108 47 228
q48 119 128 217q79 98 186 163t222 65h8t12 1l35 2.5t47 1.5q57 0 133 -8.5t166 -35.5q45 -14 93.5 -33t98.5 -44q102 -50 327 -232zM2271 1230q19 -11 44 -20t58 -9q22 0 118 21q-73 -81 -127 -94q-54 -12 -98 -12q-57 0 -125 28.5t-143.5 80t-156.5 124t-163 159.5
q-57 62 -105.5 122t-84.5 110t-58 84.5t-26 45.5q-4 5 -14.5 21t-21.5 37t-19.5 43.5t-8.5 42.5q0 31 24 51.5t61 20.5q58 0 79 -35q10 -17 15.5 -32t5.5 -26v-22q0 -10 -1 -11q13 -15 73 -111q60 -97 200 -251q43 -48 92 -92.5t98 -84t95 -72t84 -57.5t65.5 -41t39.5 -21z
M1729 -455q0 -80 -59 -139t-143 -59q-43 0 -80 15.5t-64 42.5t-42 63t-15 77q0 80 58 138q58 57 143 57q43 0 80 -15.5t64 -42.5t42.5 -62.5t15.5 -74.5zM1572 -455q0 20 -14 34t-31 14q-16 0 -30 -14t-14 -34q0 -23 14 -37t30 -14q17 0 31 14t14 37z" />
    <glyph glyph-name="u1000_u103C_u1031_u102C" unicode="&#x1000;&#x103c;&#x1031;&#x102c;" horiz-adv-x="4401" 
d="M306 185q3 -16 4 -16t1 4v27q0 61 24 117t65.5 98t98 67t122.5 25q56 0 109.5 -18.5t95 -51t67 -77.5t25.5 -97q0 -69 -43.5 -119t-109 -82t-142 -47t-142.5 -15q-108 0 -196.5 40t-152 108.5t-98.5 160t-35 194.5q0 107 39.5 200.5t108 162.5t161 109t199.5 40
q68 0 133 -19t122 -53t104 -80t80 -101q4 -7 6.5 -14.5t2.5 -13.5q0 -11 -6.5 -24t-18.5 -24t-28.5 -18t-35.5 -7q-21 0 -34.5 6t-22.5 16t-14.5 21.5t-9.5 22.5q-3 8 -5 14.5t-7 11.5q-46 57 -115 90t-151 33q-74 0 -140 -28.5t-115 -78.5t-77.5 -118.5t-28.5 -147.5
q0 -59 14.5 -112t38 -95t52 -71t55.5 -40zM463 140q2 -1 29 -1q38 0 85 6t87.5 21t68 39t27.5 60q0 22 -13 42t-33 34.5t-44.5 23t-48.5 8.5q-33 0 -64 -13.5t-54.5 -36.5t-37.5 -55t-14 -68q0 -14 3 -27t6 -22q1 -4 2 -8.5t1 -2.5zM3445 1103q-114 300 -188 407
q-37 54 -77.5 99t-86.5 82q-91 75 -193.5 114t-214.5 39h-967q-47 0 -93 -14.5t-89.5 -39.5t-84 -59t-75.5 -74q-35 -41 -63 -87t-49 -96q-42 -101 -42 -195v-1643q0 -45 8.5 -92t24.5 -93.5t40 -90t54 -81.5q30 -39 68 -71t81.5 -55t93 -35.5t103.5 -12.5h1336
q0 89 -0.5 188.5t-1 201.5t-1 202t-0.5 189q0 18 -16 37q-15 19 -15 63q0 64 37 82t85 18q45 -7 62 -40q16 -31 16 -60v-115q0 -39 1 -220.5t3 -505.5v-92q0 -21 -6 -39.5t-16.5 -33t-26.5 -23t-35 -8.5h-1506q-117 0 -220 61t-178 154q-37 46 -66.5 98t-50.5 106t-32 108.5
t-11 107.5v1745q0 109 48 228q24 60 55.5 114t71.5 103q79 98 186 163t222 65h1117q93 0 184.5 -35t173 -95.5t149 -141.5t111.5 -174q15 -38 25.5 -68.5t16.5 -60.5q4 -14 6 -31.5t4 -34.5q2 -21 7.5 -86t14.5 -172zM2450 520q0 -67 -13 -139.5t-42 -140t-75.5 -126.5
t-113.5 -99q-11 -5 -23 -8.5t-23 -3.5q-34 0 -56.5 20t-22.5 58q0 17 7 30.5t18 24t24 18.5t24 14q15 7 23 14q31 21 54.5 58.5t39 83t23 94.5t7.5 94q0 76 -29 142.5t-78 115.5t-114 77.5t-138 28.5q-74 0 -139.5 -29t-114 -79t-76.5 -117.5t-28 -143.5q0 -45 7.5 -94.5
t22 -95t37 -81.5t52.5 -53q42 -24 66 -47t24 -61q0 -32 -22 -50.5t-56 -18.5q-8 0 -18.5 2t-18.5 7q-72 39 -119 96t-74.5 124t-38.5 138.5t-11 138.5q0 105 39 196.5t107 160t161 107.5t200 39q73 0 143 -22t128 -56.5t101 -76t63 -80.5q6 11 22.5 31t39.5 43.5t50.5 46
t55.5 39.5q61 35 126.5 55t134.5 20q104 0 197 -40.5t163.5 -109.5t111.5 -161t41 -194q0 -101 -38.5 -193t-107 -162t-161.5 -111.5t-201 -41.5q-24 0 -61 3t-71.5 12t-59 26.5t-24.5 46.5q0 13 4.5 28.5t14.5 29t25.5 22t37.5 8.5q16 0 29.5 -6.5t23.5 -13.5q6 -4 11 -7
t10 -3q16 -4 31.5 -5.5t30.5 -1.5q72 0 136.5 30t113 81t77 118.5t28.5 141.5q0 77 -30 143t-80 114.5t-114.5 76t-134.5 27.5q-74 0 -138.5 -28t-113 -76.5t-77 -112.5t-30.5 -136zM3653 156q4 0 9.5 -1.5t8.5 -3.5q2 2 3 2q47 -19 91 -19q63 0 119 21t101 59
q58 65 91.5 139t33.5 148q0 66 -26.5 131.5t-73 118t-110.5 85t-139 32.5q-60 0 -124 -21.5t-118 -63.5q-63 -57 -92 -123t-33 -134q0 -21 2.5 -31.5t9.5 -27.5l3 -6q-5 -39 -26.5 -62t-72.5 -41q-38 11 -57 56q-8 35 -12.5 67t-4.5 61q0 89 37.5 174t105 151t160.5 106.5
t203 40.5q90 0 182 -33t167 -96.5t122 -156t47 -211.5q0 -56 -13 -113.5t-38 -111.5t-61.5 -102.5t-84.5 -86.5q-75 -54 -160 -78t-176 -24q-24 0 -55 2t-58.5 9.5t-46.5 23t-19 43.5q0 8 6 21.5t16.5 26.5t25.5 22.5t33 9.5q13 0 24 -3z" />
    <glyph glyph-name="u1000_u103C_u1031_u102C_u1037" unicode="&#x1000;&#x103c;&#x1031;&#x102c;&#x1037;" horiz-adv-x="4406" 
d="M311 185q3 -16 4 -16t1 4v27q0 61 24 117t65.5 98t98 67t122.5 25q56 0 109.5 -18.5t95 -51t67 -77.5t25.5 -97q0 -69 -43.5 -119t-109 -82t-142 -47t-142.5 -15q-108 0 -196.5 40t-152 108.5t-98.5 160t-35 194.5q0 107 39.5 200.5t108 162.5t161 109t199.5 40
q68 0 133 -19t122 -53t104 -80t80 -101q4 -7 6.5 -14.5t2.5 -13.5q0 -11 -6.5 -24t-18.5 -24t-28.5 -18t-35.5 -7q-21 0 -34.5 6t-22.5 16t-14.5 21.5t-9.5 22.5q-3 8 -5 14.5t-7 11.5q-46 57 -115 90t-151 33q-74 0 -140 -28.5t-115 -78.5t-77.5 -118.5t-28.5 -147.5
q0 -59 14.5 -112t38 -95t52 -71t55.5 -40zM468 140q2 -1 29 -1q38 0 85 6t87.5 21t68 39t27.5 60q0 22 -13 42t-33 34.5t-44.5 23t-48.5 8.5q-33 0 -64 -13.5t-54.5 -36.5t-37.5 -55t-14 -68q0 -14 3 -27t6 -22q1 -4 2 -8.5t1 -2.5zM3450 1103q-114 300 -188 407
q-37 54 -77.5 99t-86.5 82q-91 75 -193.5 114t-214.5 39h-967q-47 0 -93 -14.5t-89.5 -39.5t-84 -59t-75.5 -74q-35 -41 -63 -87t-49 -96q-42 -101 -42 -195v-1643q0 -45 8.5 -92t24.5 -93.5t40 -90t54 -81.5q30 -39 68 -71t81.5 -55t93 -35.5t103.5 -12.5h1336
q0 89 -0.5 188.5t-1 201.5t-1 202t-0.5 189q0 18 -16 37q-15 19 -15 63q0 64 37 82t85 18q45 -7 62 -40q16 -31 16 -60v-115q1 -183 2 -363t2 -363v-92q0 -21 -6 -39.5t-16.5 -33t-26.5 -23t-35 -8.5h-1506q-117 0 -220 61t-178 154q-37 46 -66.5 98t-50.5 106t-32 108.5
t-11 107.5v1745q0 109 48 228q24 60 55.5 114t71.5 103q79 98 186 163t222 65h1117q93 0 184.5 -35t173 -95.5t149 -141.5t111.5 -174q15 -38 25.5 -68.5t16.5 -60.5q4 -14 6 -31.5t4 -34.5q2 -21 7.5 -86t14.5 -172zM2455 520q0 -67 -13 -139.5t-42 -140t-75.5 -126.5
t-113.5 -99q-11 -5 -23 -8.5t-23 -3.5q-34 0 -56.5 20t-22.5 58q0 17 7 30.5t18 24t24 18.5t24 14q15 7 23 14q31 21 54.5 58.5t39 83t23 94.5t7.5 94q0 76 -29 142.5t-78 115.5t-114 77.5t-138 28.5q-74 0 -139.5 -29t-114 -79t-76.5 -117.5t-28 -143.5q0 -45 7.5 -94.5
t22 -95t37 -81.5t52.5 -53q42 -24 66 -47t24 -61q0 -32 -22 -50.5t-56 -18.5q-8 0 -18.5 2t-18.5 7q-72 39 -119 96t-74.5 124t-38.5 138.5t-11 138.5q0 105 39 196.5t107 160t161 107.5t200 39q73 0 143 -22t128 -56.5t101 -76t63 -80.5q6 11 22.5 31t39.5 43.5t50.5 46
t55.5 39.5q61 35 126.5 55t134.5 20q104 0 197 -40.5t163.5 -109.5t111.5 -161t41 -194q0 -101 -38.5 -193t-107 -162t-161.5 -111.5t-201 -41.5q-24 0 -61 3t-71.5 12t-59 26.5t-24.5 46.5q0 13 4.5 28.5t14.5 29t25.5 22t37.5 8.5q16 0 29.5 -6.5t23.5 -13.5q6 -4 11 -7
t10 -3q16 -4 31.5 -5.5t30.5 -1.5q72 0 136.5 30t113 81t77 118.5t28.5 141.5q0 77 -30 143t-80 114.5t-114.5 76t-134.5 27.5q-74 0 -138.5 -28t-113 -76.5t-77 -112.5t-30.5 -136zM3658 156q4 0 9.5 -1.5t8.5 -3.5q2 2 3 2q47 -19 91 -19q63 0 119 21t101 59
q58 65 91.5 139t33.5 148q0 66 -26.5 131.5t-73 118t-110.5 85t-139 32.5q-60 0 -124 -21.5t-118 -63.5q-63 -57 -92 -123t-33 -134q0 -21 2.5 -31.5t9.5 -27.5l3 -6q-5 -39 -26.5 -62t-72.5 -41q-38 11 -57 56q-8 35 -12.5 67t-4.5 61q0 89 37.5 174t105 151t160.5 106.5
t203 40.5q90 0 182 -33t167 -96.5t122 -156t47 -211.5q0 -56 -13 -113.5t-38 -111.5t-61.5 -102.5t-84.5 -86.5q-75 -54 -160 -78t-176 -24q-24 0 -55 2t-58.5 9.5t-46.5 23t-19 43.5q0 8 6 21.5t16.5 26.5t25.5 22.5t33 9.5q13 0 24 -3zM3930 -455q0 -80 -59 -139t-143 -59
q-43 0 -80 15.5t-64 42.5t-42 63t-15 77q0 80 58 138q58 57 143 57q43 0 80 -15.5t64 -42.5t42.5 -62.5t15.5 -74.5zM3773 -455q0 20 -14 34t-31 14q-16 0 -30 -14t-14 -34q0 -23 14 -37t30 -14q17 0 31 14t14 37z" />
    <glyph glyph-name="u1000_u103C_u1031_u102C_u103A" unicode="&#x1000;&#x103c;&#x1031;&#x102c;&#x103a;" horiz-adv-x="4409" 
d="M308 185q3 -16 4 -16t1 4v27q0 61 24 117t65.5 98t98 67t122.5 25q56 0 109.5 -18.5t95 -51t67 -77.5t25.5 -97q0 -69 -43.5 -119t-109 -82t-142 -47t-142.5 -15q-108 0 -196.5 40t-152 108.5t-98.5 160t-35 194.5q0 107 39.5 200.5t108 162.5t161 109t199.5 40
q68 0 133 -19t122 -53t104 -80t80 -101q4 -7 6.5 -14.5t2.5 -13.5q0 -11 -6.5 -24t-18.5 -24t-28.5 -18t-35.5 -7q-21 0 -34.5 6t-22.5 16t-14.5 21.5t-9.5 22.5q-3 8 -5 14.5t-7 11.5q-46 57 -115 90t-151 33q-74 0 -140 -28.5t-115 -78.5t-77.5 -118.5t-28.5 -147.5
q0 -59 14.5 -112t38 -95t52 -71t55.5 -40zM465 140q2 -1 29 -1q38 0 85 6t87.5 21t68 39t27.5 60q0 22 -13 42t-33 34.5t-44.5 23t-48.5 8.5q-33 0 -64 -13.5t-54.5 -36.5t-37.5 -55t-14 -68q0 -14 3 -27t6 -22q1 -4 2 -8.5t1 -2.5zM3457 1103q-114 300 -188 407
q-37 54 -77.5 99t-86.5 82q-91 75 -193.5 114t-214.5 39h-967q-47 0 -93 -14.5t-89.5 -39.5t-84 -59t-75.5 -74q-35 -41 -63 -87t-49 -96q-42 -101 -42 -195v-1643q0 -45 8.5 -92t24.5 -93.5t40 -90t54 -81.5q30 -39 68 -71t81.5 -55t93 -35.5t103.5 -12.5h1336l-3 781
q0 18 -16 37q-15 19 -15 63q0 64 37 82t85 18q45 -7 62 -40q16 -31 16 -60v-115l4 -818q0 -21 -6 -39.5t-16.5 -33t-26.5 -23t-35 -8.5h-1506q-117 0 -220 61t-178 154q-37 46 -66.5 98t-50.5 106t-32 108.5t-11 107.5v1745q0 109 48 228q24 60 55.5 114t71.5 103
q79 98 186 163t222 65h1117q93 0 184.5 -35t173 -95.5t149 -141.5t111.5 -174q15 -38 25.5 -68.5t16.5 -60.5q4 -14 6 -31.5t4 -34.5q2 -21 7.5 -86t14.5 -172zM2462 520q0 -67 -13 -139.5t-42 -140t-75.5 -126.5t-113.5 -99q-11 -5 -23 -8.5t-23 -3.5q-34 0 -56.5 20
t-22.5 58q0 17 7 30.5t18 24t24 18.5t24 14q15 7 23 14q31 21 54.5 58.5t39 83t23 94.5t7.5 94q0 76 -29 142.5t-78 115.5t-114 77.5t-138 28.5q-74 0 -139.5 -29t-114 -79t-76.5 -117.5t-28 -143.5q0 -45 7.5 -94.5t22 -95t37 -81.5t52.5 -53q42 -24 66 -47t24 -61
q0 -32 -22 -50.5t-56 -18.5q-8 0 -18.5 2t-18.5 7q-72 39 -119 96t-74.5 124t-38.5 138.5t-11 138.5q0 105 39 196.5t107 160t161 107.5t200 39q73 0 143 -22t128 -56.5t101 -76t63 -80.5q6 11 22.5 31t39.5 43.5t50.5 46t55.5 39.5q61 35 126.5 55t134.5 20
q104 0 197 -40.5t163.5 -109.5t111.5 -161t41 -194q0 -101 -38.5 -193t-107 -162t-161.5 -111.5t-201 -41.5q-24 0 -61 3t-71.5 12t-59 26.5t-24.5 46.5q0 13 4.5 28.5t14.5 29t25.5 22t37.5 8.5q16 0 29.5 -6.5t23.5 -13.5q6 -4 11 -7t10 -3q16 -4 31.5 -5.5t30.5 -1.5
q72 0 136.5 30t113 81t77 118.5t28.5 141.5q0 77 -30 143t-80 114.5t-114.5 76t-134.5 27.5q-74 0 -138.5 -28t-113 -76.5t-77 -112.5t-30.5 -136zM3665 156q4 0 9.5 -1.5t8.5 -3.5q2 2 3 2q47 -19 91 -19q63 0 119 21t101 59q58 65 91.5 139t33.5 148q0 66 -26.5 131.5
t-73 118t-110.5 85t-139 32.5q-60 0 -124 -21.5t-118 -63.5q-63 -57 -92 -123t-33 -134q0 -21 2.5 -31.5t9.5 -27.5l3 -6q-5 -39 -26.5 -62t-72.5 -41q-38 11 -57 56q-8 35 -12.5 67t-4.5 61q0 89 37.5 174t105 151t160.5 106.5t203 40.5q90 0 182 -33t167 -96.5t122 -156
t47 -211.5q0 -56 -13 -113.5t-38 -111.5t-61.5 -102.5t-84.5 -86.5q-75 -54 -160 -78t-176 -24q-24 0 -55 2t-58.5 9.5t-46.5 23t-19 43.5q0 8 6 21.5t16.5 26.5t25.5 22.5t33 9.5q13 0 24 -3zM3697 1146q11 0 12 -1v-1q2 1 4 1t4 1q7 1 14.5 2t16.5 1q46 0 65 -30t19 -56
q0 -15 -6 -29.5t-16.5 -25.5t-24 -17.5t-28.5 -6.5q-40 0 -86.5 13t-92.5 39t-89 66t-76 93.5t-52.5 121.5t-19.5 151q0 64 18.5 128.5t54.5 124t89 111.5t121 90t151 60t180 22q150 0 275 -42t228 -120q102 -77 182 -185q81 -110 236 -481q-195 299 -251 353q-28 28 -55 52
t-55 45q-32 24 -66 47t-63 41q-18 11 -35 22t-32 22q-33 21 -74 38t-87 29.5t-96 19t-100 6.5q-124 0 -211.5 -34t-143 -89.5t-81.5 -125t-26 -141.5q0 -75 20 -130.5t49.5 -94t64 -60.5t63.5 -30z" />
    <glyph glyph-name="u1000_u103C_u1031_u102C_u1037_u103A" unicode="&#x1000;&#x103c;&#x1031;&#x102c;&#x1037;&#x103a;" horiz-adv-x="4400" 
d="M307 185q3 -16 4 -16t1 4v27q0 61 24 117t65.5 98t98 67t122.5 25q56 0 109.5 -18.5t95 -51t67 -77.5t25.5 -97q0 -69 -43.5 -119t-109 -82t-142 -47t-142.5 -15q-108 0 -196.5 40t-152 108.5t-98.5 160t-35 194.5q0 107 39.5 200.5t108 162.5t161 109t199.5 40
q68 0 133 -19t122 -53t104 -80t80 -101q4 -7 6.5 -14.5t2.5 -13.5q0 -11 -6.5 -24t-18.5 -24t-28.5 -18t-35.5 -7q-21 0 -34.5 6t-22.5 16t-14.5 21.5t-9.5 22.5q-3 8 -5 14.5t-7 11.5q-46 57 -115 90t-151 33q-74 0 -140 -28.5t-115 -78.5t-77.5 -118.5t-28.5 -147.5
q0 -59 14.5 -112t38 -95t52 -71t55.5 -40zM464 140q2 -1 29 -1q38 0 85 6t87.5 21t68 39t27.5 60q0 22 -13 42t-33 34.5t-44.5 23t-48.5 8.5q-33 0 -64 -13.5t-54.5 -36.5t-37.5 -55t-14 -68q0 -14 3 -27t6 -22q1 -4 2 -8.5t1 -2.5zM3446 1103q-114 300 -188 407
q-37 54 -77.5 99t-86.5 82q-91 75 -193.5 114t-214.5 39h-967q-47 0 -93 -14.5t-89.5 -39.5t-84 -59t-75.5 -74q-35 -41 -63 -87t-49 -96q-42 -101 -42 -195v-1643q0 -45 8.5 -92t24.5 -93.5t40 -90t54 -81.5q30 -39 68 -71t81.5 -55t93 -35.5t103.5 -12.5h1336l-3 781
q0 18 -16 37q-15 19 -15 63q0 64 37 82t85 18q45 -7 62 -40q16 -31 16 -60v-115l4 -818q0 -21 -6 -39.5t-16.5 -33t-26.5 -23t-35 -8.5h-1506q-117 0 -220 61t-178 154q-37 46 -66.5 98t-50.5 106t-32 108.5t-11 107.5v1745q0 109 48 228q24 60 55.5 114t71.5 103
q79 98 186 163t222 65h1117q93 0 184.5 -35t173 -95.5t149 -141.5t111.5 -174q15 -38 25.5 -68.5t16.5 -60.5q4 -14 6 -31.5t4 -34.5q2 -21 7.5 -86t14.5 -172zM2451 520q0 -67 -13 -139.5t-42 -140t-75.5 -126.5t-113.5 -99q-11 -5 -23 -8.5t-23 -3.5q-34 0 -56.5 20
t-22.5 58q0 17 7 30.5t18 24t24 18.5t24 14q15 7 23 14q31 21 54.5 58.5t39 83t23 94.5t7.5 94q0 76 -29 142.5t-78 115.5t-114 77.5t-138 28.5q-74 0 -139.5 -29t-114 -79t-76.5 -117.5t-28 -143.5q0 -45 7.5 -94.5t22 -95t37 -81.5t52.5 -53q42 -24 66 -47t24 -61
q0 -32 -22 -50.5t-56 -18.5q-8 0 -18.5 2t-18.5 7q-72 39 -119 96t-74.5 124t-38.5 138.5t-11 138.5q0 105 39 196.5t107 160t161 107.5t200 39q73 0 143 -22t128 -56.5t101 -76t63 -80.5q6 11 22.5 31t39.5 43.5t50.5 46t55.5 39.5q61 35 126.5 55t134.5 20
q104 0 197 -40.5t163.5 -109.5t111.5 -161t41 -194q0 -101 -38.5 -193t-107 -162t-161.5 -111.5t-201 -41.5q-24 0 -61 3t-71.5 12t-59 26.5t-24.5 46.5q0 13 4.5 28.5t14.5 29t25.5 22t37.5 8.5q16 0 29.5 -6.5t23.5 -13.5q6 -4 11 -7t10 -3q16 -4 31.5 -5.5t30.5 -1.5
q72 0 136.5 30t113 81t77 118.5t28.5 141.5q0 77 -30 143t-80 114.5t-114.5 76t-134.5 27.5q-74 0 -138.5 -28t-113 -76.5t-77 -112.5t-30.5 -136zM3654 156q4 0 9.5 -1.5t8.5 -3.5q2 2 3 2q47 -19 91 -19q63 0 119 21t101 59q58 65 91.5 139t33.5 148q0 66 -26.5 131.5
t-73 118t-110.5 85t-139 32.5q-60 0 -124 -21.5t-118 -63.5q-63 -57 -92 -123t-33 -134q0 -21 2.5 -31.5t9.5 -27.5l3 -6q-5 -39 -26.5 -62t-72.5 -41q-38 11 -57 56q-8 35 -12.5 67t-4.5 61q0 89 37.5 174t105 151t160.5 106.5t203 40.5q90 0 182 -33t167 -96.5t122 -156
t47 -211.5q0 -56 -13 -113.5t-38 -111.5t-61.5 -102.5t-84.5 -86.5q-75 -54 -160 -78t-176 -24q-24 0 -55 2t-58.5 9.5t-46.5 23t-19 43.5q0 8 6 21.5t16.5 26.5t25.5 22.5t33 9.5q13 0 24 -3zM3690 1146q11 0 12 -1v-1q2 1 4 1t4 1q7 1 14.5 2t16.5 1q46 0 65 -30t19 -56
q0 -15 -6 -29.5t-16.5 -25.5t-24 -17.5t-28.5 -6.5q-40 0 -86.5 13t-92.5 39t-89 66t-76 93.5t-52.5 121.5t-19.5 151q0 64 18.5 128.5t54.5 124t89 111.5t121 90t151 60t180 22q150 0 275 -42t228 -120q102 -77 182 -185q81 -110 236 -481q-195 299 -251 353q-28 28 -55 52
t-55 45q-32 24 -66 47t-63 41q-18 11 -35 22t-32 22q-33 21 -74 38t-87 29.5t-96 19t-100 6.5q-124 0 -211.5 -34t-143 -89.5t-81.5 -125t-26 -141.5q0 -75 20 -130.5t49.5 -94t64 -60.5t63.5 -30zM3926 -455q0 -80 -59 -139t-143 -59q-43 0 -80 15.5t-64 42.5t-42 63
t-15 77q0 80 58 138q58 57 143 57q43 0 80 -15.5t64 -42.5t42.5 -62.5t15.5 -74.5zM3769 -455q0 20 -14 34t-31 14q-16 0 -30 -14t-14 -34q0 -23 14 -37t30 -14q17 0 31 14t14 37z" />
    </font>
</defs>
</svg>
